<?xml version="1.0" encoding="UTF-8"?>
<!-- Created with Inkscape (http://www.inkscape.org/) -->
<svg width="512" height="512" version="1.1" viewBox="0 0 512 512" xml:space="preserve" xmlns="http://www.w3.org/2000/svg"><g fill-rule="evenodd" stroke-width="1.2237"><path d="m136.55 371.89c-21.082 6.4559-39.675 26.483-51.607 54.318 15.345 15.422 32.705 28.698 51.607 39.467z" fill="#f0d0b4"/><path d="m375.45 371.89v93.783c18.903-10.769 36.262-24.044 51.607-39.465-11.932-27.835-30.525-47.863-51.607-54.318z" fill="#f0d0b4"/><path d="m185.56 363.38c-10.181 4.0869-21.8 6.277-34.32 6.2773v103.72c32.679 15.749 68.488 23.928 104.76 23.928 36.276 1e-4 72.086-8.1786 104.77-23.928v-103.72c-12.522-4.9e-4 -24.142-2.1895-34.324-6.2773-7.6013 32.772-36.798 55.973-70.439 55.975-33.644 6.9e-4 -62.844-23.201-70.445-55.975z" fill="#ffd073"/><path d="m288.19 323.39a104.02 139.51 0 0 1-32.192 6.85 104.02 139.51 0 0 1-32.19-6.8476c-4.2003 13.728-12.883 24.927-24.699 32.866a57.629 57.629 0 0 0 56.889 48.416 57.629 57.629 0 0 0 56.887-48.421c-11.814-7.9397-20.495-19.137-24.695-32.864z" fill="#f0d0b4"/><path d="m359.88 197.94c-1.9283 49.986-23.675 94.755-56.988 117.32 7.5343 23.056 29.215 39.712 54.787 39.713 36.412 0 64.225 23.789 80.744 58.998 17.172-19.83 30.996-42.328 40.928-66.607-0.24878-23.558 2.2381-48.28 0.69922-66.346-0.0122-21.173-11.622-40.637-30.254-50.695-10.751-6.207-22.485-14.084-32.928-23.697-19.805-0.64204-39.005-3.6365-56.988-8.6836z" fill="#c79967"/><path d="m152.12 197.93c-17.982 5.0506-37.18 8.0454-56.984 8.6914-10.444 9.614-22.18 17.494-32.932 23.701-18.632 10.058-30.254 29.522-30.254 50.695-1.539 18.067 0.94838 42.79 0.69922 66.35 9.932 24.278 23.756 46.774 40.928 66.604 16.519-35.21 44.332-58.998 80.744-58.998 25.572-6.1e-4 47.253-16.657 54.787-39.713-33.315-22.565-55.063-67.34-56.988-117.33z" fill="#c79967"/></g><g fill-rule="evenodd"><path d="m255.98 124.01c17.781 30.993 49.964 55.272 89.335 69.306a89.332 119.81 0 0 1-89.311 117.23 89.332 119.81 0 0 1-89.311-117.25c39.35-14.036 71.513-38.309 89.287-69.289z" fill="#f0d0b4" stroke-width="1.2237"/><path d="m256 14.684c-71.765 0-129.94 58.177-129.94 129.94 0 19.792-8.203 36.58-19.888 50.505 89.667-7.2294 149.83-64.953 149.83-124.21 0.4622 58.582 59.652 116.81 149.81 124.19-11.674-13.92-19.867-30.701-19.867-50.481 0-71.765-58.177-129.94-129.94-129.94z" fill="#c79967" stroke-width="1.2237"/><path d="m198.98 207.49c-3.04 0-5.5042 2.4644-5.5043 5.5044 0 3.04 2.4644 5.5044 5.5043 5.5044 7.6292 0 8.1507 4.3165 20.115 4.3165 8.0705 0 14.414-3.1264 16.81-4.4982 0 0 0.0122-9e-3 0.0147-0.0122 2.6327-1.52 3.5349-4.8865 2.0149-7.5193s-4.8864-3.5349-7.5192-2.0148c-3.4416 1.9868-7.3456 3.033-11.32 3.033-9.091 0-9.1183-4.3141-20.115-4.3141zm114.04 0c-10.997 0-11.024 4.3141-20.115 4.3141-3.974 0-7.8779-1.0462-11.32-3.033-2.6328-1.52-5.9992-0.61801-7.5192 2.0148-1.52 2.6327-0.61786 5.9992 2.0149 7.5192v2e-3c0 4e-3 0.0122 0.01 0.0122 0.01 2.3957 1.3718 8.739 4.4982 16.81 4.4982 11.964 0 12.486-4.3165 20.115-4.3165 3.04 0 5.5045-2.4644 5.5045-5.5044-1.2e-4 -3.04-2.4645-5.5044-5.5045-5.5044zm-86.474 50.46a5.4435 5.4435 0 0 0-3.8505 1.5942 5.4435 5.4435 0 0 0 0 7.6985 5.4435 5.4435 0 0 0 0.0196 0.0191c8.8322 8.8222 20.803 13.778 33.287 13.781 12.484-4e-3 24.455-4.9591 33.287-13.781a5.4435 5.4435 0 0 0 0.0196-0.0191 5.4435 5.4435 0 0 0 0-7.6985 5.4435 5.4435 0 0 0-3.8505-1.5942 5.4435 5.4435 0 0 0-3.8457 1.5942c-6.7921 6.7918-16.003 10.608-25.608 10.612-9.6049-4e-3 -18.815-3.8203-25.608-10.612a5.4435 5.4435 0 0 0-3.8457-1.5942z" fill="#402921"/><path d="m256 0c-141.38 0-256 114.62-256 256s114.62 256 256 256 256-114.62 256-256-114.62-256-256-256zm-0.0352 14.686h0.0704c5.1657 0.1702 10.325 0.5063 15.469 1.0078 64.443 7.6759 114.44 62.424 114.44 128.93 0 19.781 8.1916 36.562 19.865 50.482-90.157-7.3728-149.35-65.605-149.81-124.19 0 59.258-60.161 116.98-149.83 124.21 11.685-13.925 19.889-30.714 19.889-50.506 0-66.509 49.993-121.26 114.44-128.93 5.1441-0.50151 10.303-0.83762 15.469-1.0078zm0.01 109.32c17.782 30.993 49.966 55.273 89.336 69.307-1.0467 65.148-40.724 117.23-89.311 117.23-48.591-8.5e-4 -88.271-52.091-89.311-117.25 39.35-14.036 71.511-38.309 89.285-69.289zm-103.85 73.924c1.9255 49.99 23.674 94.765 56.99 117.33-7.5343 23.056-29.217 39.712-54.789 39.713-36.412 0-64.223 23.789-80.742 58.998-17.173-19.831-30.998-42.329-40.93-66.609 0.24871-23.558-2.2381-48.276-0.69922-66.342 0-21.173 11.622-40.639 30.254-50.697 10.752-6.2074 22.487-14.085 32.932-23.699 19.804-0.64605 39.003-3.6427 56.984-8.6934zm207.76 0.0117c17.984 5.0471 37.183 8.0416 56.988 8.6836 10.443 9.6132 22.177 17.49 32.928 23.697 18.632 10.058 30.248 29.524 30.254 50.697 1.539 18.067-0.94837 42.788-0.69922 66.348-9.932 24.278-23.756 46.774-40.928 66.604-16.519-35.209-44.332-58.998-80.744-58.998-25.572-4.8e-4 -47.253-16.657-54.787-39.713 33.313-22.563 55.06-67.332 56.988-117.32zm-71.686 125.45c4.1997 13.727 12.881 24.924 24.695 32.863-1.1589 7.1621-3.6596 14.041-7.3711 20.275l0.67188-10.799-11.76 13.131c-1.5932 1.7791-3.076 3.6492-4.5879 5.4941l1.6738-6.2461-12.795 7.3867c-4.6724 2.6977-8.953 6.2952-12.902 10.227-1.0163-8.0954-4.3945-14.309-4.3945-14.309l-5.4199-10.373-5.4238 10.371s-3.3769 6.2125-4.3945 14.307c-3.9486-3.9304-8.2327-7.5254-12.904-10.223l-12.793-7.3867 1.6738 6.2461c-1.512-1.845-2.9947-3.715-4.5879-5.4941l-11.76-13.131 0.67188 10.801c-3.7119-6.2332-6.2152-13.11-7.375-20.271 11.816-7.9393 20.499-19.139 24.699-32.867 10.395 4.537 21.26 6.8479 32.191 6.8476 10.933-2.4e-4 21.796-2.3115 32.191-6.8496zm-174.26 61.332 7.166 5.5059c4.614 3.5456 9.8303 6.7184 15.451 9.0742v1.6602l-11.564 3.8887 11.564 4.9629v55.861c-18.902-10.769-36.261-24.044-51.605-39.465 7.4213-17.311 17.418-31.603 28.988-41.488zm284.14 0c11.571 9.8853 21.569 24.176 28.99 41.488-15.345 15.422-32.706 28.698-51.609 39.467v-55.863l11.566-4.9629-11.566-3.8887v-1.6602c5.6197-2.3557 10.84-5.5291 15.453-9.0742zm-246.83 31.227c2.6134 0.98242 5.2093 1.8436 7.832 2.5078l-7.832 5.0449zm209.53 0v7.5527l-7.834-5.0449c2.6234-0.66435 5.2197-1.525 7.834-2.5078zm-209.53 10.92 9.9121 2.498c7.6198 1.9203 14.851 3.6945 22.119 4.0586l-10.41 9.6289 14.592 0.6875c8.5775 0.40273 16.231 0.9192 23.656-0.11914l-7.6934 9.5879h12.756c11.171 0 19.721-1.4645 26.834-5.5117 0.32221-0.18344 0.5865-0.43238 0.90039-0.625-0.15248 12.955 6.7812 24.012 6.7812 24.012l5.3184 9.3438 5.3164-9.3477s6.9334-11.056 6.7793-24.012c0.31475 0.1931 0.58111 0.44498 0.9043 0.62891 7.1129 4.0482 15.66 5.5117 26.832 5.5117h12.756l-7.6914-9.5879c7.4251 1.0372 15.079 0.52077 23.656 0.11914l14.592-0.6875-10.41-9.6289c7.2683-0.36406 14.501-2.1383 22.121-4.0586l9.9102-2.498v46.518c-32.68 15.749-68.489 23.928-104.77 23.928-36.276 1e-4 -72.086-8.1786-104.77-23.928z" fill="#402921" stroke-width="65.001"/></g><path d="m327.17 363.67c-8.8543 20.251-7.9223 23.078-6.0899 39.965l-14.666 7.6268c9.0966-9.941 12.921-23.007 7.4238-35.997-11.141 19.297-11.827 17.906-12.921 38.144l-17.185 5.0646c10.715-8.1199 13.786-11.972 15.251-35.534-9.6606 10.789-17.585 22.122-21.124 36.334 0 0-11.192 1.3373-16.786 1.6826 14.57-6.5833 17.522-18.295 20.703-30.165-10.236 5.9096-19.737 16.769-24.477 27.034 0.29847-4.4484 0.96981-8.6148 1.8261-11.274 3.2521-10.1-3.1286-22.307-3.1286-22.307s-6.3829 12.207-3.131 22.307c0.85587 2.6581 1.5272 6.8232 1.826 11.269-4.7407-10.263-14.241-21.121-24.475-27.03 3.1806 11.87 6.1337 23.582 20.703 30.165-5.5933-0.34534-16.786-1.6826-16.786-1.6826-3.5392-14.212-11.463-25.546-21.124-36.334 1.4649 23.561 4.5361 27.414 15.251 35.534l-17.185-5.0646c-1.0943-20.238-1.7798-18.846-12.921-38.144-5.4972 12.99-1.673 26.056 7.4236 35.997l-14.666-7.6268c1.8323-16.887 2.764-19.712-6.09-39.963-0.35549 0.13865-0.71417 0.2746-1.0731 0.40872-5.9729 15.517-5.2314 21.634 0.73131 36.122l-12.565-9.8497c2.5166-7.4386 4.268-14.835 3.597-23.681-3.5959 0.93248-7.3268 1.6536-11.174 2.1534-0.70365 5.9811 0.28439 12.048 3.8408 18.208l-11.986-12.935c0.91009-1.5764 1.7157-3.1411 2.4236-4.6989-2.4234 0.17206-4.8884 0.26041-7.3878 0.26053-8.1028 2.5e-4 -15.995 2.0194-23.471 5.7696 7.1235 3.0762 15.178 3.7177 26.332 0.72898l12.543 13.201c-6.4213-3.8742-19.76-11.464-41.812-3.9842 13.023 10.008 31.246 16.672 46.387 7.7702l13.423 10.249c-6.8659-2.39-23.718-4.1691-42.513 2.1488 18.161 7.7889 30.901 13.518 47.08 0.46367l15.734 8.0307s-21.27-4.1482-42.298 9.393c18.995 4.7869 33.598 8.1499 47.886-7.359 13.751 3.926 15.787 4.5842 15.787 4.5842-8.0797 1.1126-27.375 6.6061-38.579 16.97 20.642 0.96907 33.91 2.5252 46.237-15.681 0 0 12.626 1.7985 16.171 2.0578-14.05 6.2418-23.595 10.15-33.975 23.086 21.278 0 29.336-5.5498 38.612-21.007-0.20644 3.844-0.79897 7.3082-1.9096 9.5293-7.5197 13.73 3.131 32.446 3.131 32.446s10.648-18.716 3.1286-32.446c-1.1109-2.2219-1.7034-5.6884-1.9096-9.5341 9.277 15.46 17.334 21.011 38.614 21.011-10.381-12.936-19.926-16.844-33.975-23.086 3.5454-0.25931 16.171-2.0578 16.171-2.0578 12.326 18.207 25.594 16.651 46.236 15.681-11.203-10.364-30.499-15.857-38.578-16.97 0 0 2.0357-0.65825 15.786-4.5842 14.288 15.509 28.891 12.146 47.886 7.359-21.028-13.541-42.298-9.393-42.298-9.393l15.734-8.0307c16.179 13.055 28.919 7.3253 47.08-0.46367-18.794-6.3179-35.647-4.5387-42.513-2.1488l13.423-10.249c15.141 8.902 33.364 2.2376 46.387-7.7702-22.053-7.4799-35.391 0.11014-41.812 3.9842l12.543-13.201c11.154 2.9888 19.21 2.3474 26.334-0.72898-7.4759-3.7505-15.37-5.7694-23.473-5.7696-2.5-1.2e-4 -4.964-0.0881-7.3878-0.26053 0.70793 1.5578 1.5131 3.122 2.4236 4.6989l-11.986 12.935c3.5564-6.1601 4.5422-12.227 3.8385-18.208-3.847-0.50002-7.5777-1.2207-11.174-2.1534-0.67097 8.8462 1.0828 16.242 3.5995 23.681l-12.565 9.8497c5.963-14.488 6.7025-20.606 0.72898-36.124-0.35856-0.13388-0.71552-0.27008-1.0708-0.40861z" fill="#8fcb4d"/></svg>
