<?xml version="1.0" encoding="UTF-8"?>
<svg width="16" height="16" version="1.1" viewBox="0 0 16 16" xml:space="preserve" xmlns="http://www.w3.org/2000/svg">
  <path d="m6.7206 13.171c-0.65794 0-0.78791 0.50739-0.53794 0.92414 0.72424 1.2064 2.9155 1.2064 3.6397 0 0.25-0.41678 0.11804-0.92414-0.53794-0.92414z"/>
  <path d="m8.0017 1.0011c-1.4533-0.029274-2.9825 0.51861-3.8425 1.7418-1.0308 1.3944-1.1644 3.1887-1.131 4.8636-0.019737 1.2007-0.5306 2.3761-1.3316 3.2619-0.32199 0.50537 0.16335 1.2079 0.74794 1.108 3.7645-0.0022 7.5293 0.0045 11.294-0.0034 0.60962-0.02615 0.89718-0.87008 0.45127-1.2798-0.84568-0.96782-1.2957-2.2626-1.2151-3.5465 0.026492-1.7605-0.29402-3.6931-1.625-4.9635-0.88559-0.8583-2.141-1.1911-3.3478-1.182zm0 1.2923c1.1918-0.059451 2.4095 0.52351 3.006 1.5756 0.73891 1.2564 0.62867 2.7544 0.66947 4.1572 0.05518 0.93177 0.35347 1.8382 0.78938 2.6591h-8.9282c0.60148-1.0838 0.86112-2.3294 0.80315-3.5635-9.659e-4 -1.4009 0.15123-2.9948 1.2579-3.9921 0.64424-0.60975 1.5307-0.85343 2.4026-0.83627z"/>
</svg>
