<?xml version="1.0" encoding="UTF-8"?>
<!-- Created with Inkscape (http://www.inkscape.org/) -->
<svg width="16" height="16" version="1.1" viewBox="0 0 16 16" xmlns="http://www.w3.org/2000/svg">
 <path d="m5.4512 0.8252c-0.3601 0-0.65039 0.29029-0.65039 0.65039v0.69922h-1.3008c-1.108 0-2 0.892-2 2v9c0 1.108 0.892 2 2 2h9c1.108 0 2-0.892 2-2v-9c0-1.108-0.892-2-2-2h-1.2988v-0.69922c0-0.3601-0.29029-0.65039-0.65039-0.65039s-0.64844 0.29029-0.64844 0.65039v0.69922h-3.8027v-0.69922c0-0.3601-0.28834-0.65039-0.64844-0.65039zm-1.6504 2.6504h1v0.69922c1e-6 0.3601 0.29029 0.65039 0.65039 0.65039s0.64844-0.29029 0.64844-0.65039v-0.69922h3.8027v0.69922c0 0.3601 0.28834 0.65039 0.64844 0.65039s0.65039-0.29029 0.65039-0.65039v-0.69922h1c0.554 0 1 0.446 1 1v1.5h-10.4v-1.5c0-0.554 0.446-1 1-1zm-1 3.8008h10.4v5.5996c0 0.554-0.446 1-1 1h-8.4004c-0.554 0-1-0.446-1-1z" />
</svg>
