<?xml version="1.0" encoding="UTF-8"?>
<!-- Created with Inkscape (http://www.inkscape.org/) -->
<svg width="16" height="16" version="1.1" viewBox="0 0 16 16" xml:space="preserve" xmlns="http://www.w3.org/2000/svg"><path d="m13 3c0.18212 0 0.36302 0.070121 0.50292 0.20996 0.27982 0.27969 0.27982 0.73097 0 1.0108l-3.7794 3.7794 3.7794 3.7819c0.27511 0.27496 0.28432 0.72402 0 1.0083-0.27984 0.27969-0.72852 0.27969-1.0083 0l-4.2872-4.2847c-0.28285-0.283-0.27246-0.7383 0-1.0108l4.2872-4.2847c0.13991-0.13985 0.32325-0.20996 0.50537-0.20996zm-5.7152 0c0.18212 0 0.36547 0.070121 0.50537 0.20996 0.27984 0.27969 0.27984 0.73097 0 1.0108l-3.7794 3.7794 3.7794 3.7819c0.27511 0.27496 0.28432 0.72402 0 1.0083-0.27984 0.27969-0.72852 0.27969-1.0083 0l-4.2872-4.2847c-0.28286-0.283-0.27246-0.7383 0-1.0108l4.2872-4.2847c0.13991-0.13985 0.32081-0.20996 0.50292-0.20996z" /></svg>
