<?xml version="1.0" encoding="UTF-8"?>
<svg width="16" height="16" version="1.1" viewBox="0 0 16 16" xml:space="preserve" xmlns="http://www.w3.org/2000/svg">
  <path d="M 8,0.75000006 A 7.25,7.25 0 0 0 0.75,8 7.25,7.25 0 0 0 8,15.25 7.25,7.25 0 0 0 15.25,8 7.25,7.25 0 0 0 8,0.75000006 Z M 8,2.0508 A 5.95,5.95 0 0 1 13.9492,8 5.95,5.95 0 0 1 8,13.9512 5.95,5.95 0 0 1 2.0508,8 5.95,5.95 0 0 1 8,2.0508 Z"/>
  <path d="m8.0273 4.6844c-1.0807 0-1.8911 0.80753-1.8911 1.8654 0 0.2914 0.26536 0.55114 0.5572 0.55114 0.29183 0 0.55265-0.26874 0.55265-0.55114 0-0.25055 0.077134-0.43674 0.20289-0.56477 0.12576-0.12802 0.30885-0.21046 0.57839-0.21046 0.47844 0 0.72678 0.28654 0.72678 0.6541 0 0.27054-0.069541 0.42451-0.19381 0.58748-0.12338 0.16181-0.31514 0.32247-0.52843 0.52843-0.38485 0.36029-0.59051 0.86593-0.59051 1.3218 0 0.29183 0.25827 0.56628 0.55871 0.56628 0.30044 0 0.55871-0.27445 0.55871-0.56628 0-0.18611 0.052582-0.44507 0.24226-0.61625l0.00151-0.0015h0.00151c0.25623-0.23652 0.51176-0.45141 0.71618-0.72981 0.20442-0.27839 0.3437-0.62946 0.3437-1.0629 0-1.0019-0.8073-1.7715-1.8366-1.7715z"/>
  <circle cx="8" cy="10.665" r=".6505"/>
</svg>
