<?xml version="1.0" encoding="UTF-8"?>
<svg width="16" height="16" version="1.1" viewBox="0 0 16 16" xml:space="preserve" xmlns="http://www.w3.org/2000/svg">
  <path d="m8 0.75a7.25 7.25 0 0 0-7.25 7.25 7.25 7.25 0 0 0 7.25 7.25 7.25 7.25 0 0 0 7.25-7.25 7.25 7.25 0 0 0-7.25-7.25zm0 1.3008a5.95 5.95 0 0 1 5.9492 5.9492 5.95 5.95 0 0 1-1.3965 3.832c-0.32045-0.54275-0.75894-0.96968-1.3125-1.2793-0.55697-0.31152-1.1549-0.4668-1.7969-0.4668h-2.8867c-0.64193 0-1.2399 0.15527-1.7969 0.4668-0.55356 0.30962-0.99205 0.73654-1.3125 1.2793a5.95 5.95 0 0 1-1.3965-3.832 5.95 5.95 0 0 1 5.9492-5.9492zm-1.4453 9.334h2.8906c0.45252 2.79e-4 0.86077 0.12397 1.2285 0.36914 0.23059 0.15372 0.52694 0.36032 0.82812 1.0566a5.95 5.95 0 0 1-3.502 1.1406 5.95 5.95 0 0 1-3.502-1.1406c0.30119-0.69632 0.59754-0.90292 0.82812-1.0566 0.36775-0.24517 0.776-0.36886 1.2285-0.36914z"/>
  <path d="m8 3.555a2.719 2.719 0 0 0-2.7188 2.7188 2.719 2.719 0 0 0 2.7188 2.7188 2.719 2.719 0 0 0 2.7188-2.7188 2.719 2.719 0 0 0-2.7188-2.7188zm0 1.3008a1.4182 1.4182 0 0 1 1.418 1.418 1.4182 1.4182 0 0 1-1.418 1.418 1.4182 1.4182 0 0 1-1.418-1.418 1.4182 1.4182 0 0 1 1.418-1.418z"/>
</svg>
