<?xml version="1.0" encoding="UTF-8"?>
<svg width="16" height="16" version="1.1" viewBox="0 0 16 16" xml:space="preserve" xmlns="http://www.w3.org/2000/svg">
  <path d="M 8,0.75000006 A 7.25,7.25 0 0 0 0.75,8 7.25,7.25 0 0 0 8,15.25 7.25,7.25 0 0 0 15.25,8 7.25,7.25 0 0 0 8,0.75000006 Z M 8,2.0508 A 5.95,5.95 0 0 1 13.9492,8 5.95,5.95 0 0 1 8,13.9512 5.95,5.95 0 0 1 2.0508,8 5.95,5.95 0 0 1 8,2.0508 Z"/>
  <path d="m10.524 5.757c-0.16628 1e-6 -0.3336 0.06407-0.46094 0.19141l-2.7207 2.7227-1.1309-1.1328c-0.25467-0.25467-0.66525-0.25467-0.91992 0-0.25467 0.25467-0.25658 0.6672-0.00195 0.92188l1.5918 1.5918c0.25467 0.25467 0.66525 0.25463 0.91992 0l3.1836-3.1836c0.25465-0.25467 0.25274-0.66525-2e-3 -0.91992-0.12734-0.12734-0.2927-0.19141-0.45898-0.19141z"/>
</svg>
