<?xml version="1.0" encoding="UTF-8"?>
<svg width="16" height="16" version="1.1" viewBox="0 0 16 16" xml:space="preserve" xmlns="http://www.w3.org/2000/svg">
  <path d="M 8,0.75000006 A 7.25,7.25 0 0 0 0.75,8 7.25,7.25 0 0 0 8,15.25 7.25,7.25 0 0 0 15.25,8 7.25,7.25 0 0 0 8,0.75000006 Z M 8,2.0508 A 5.95,5.95 0 0 1 13.9492,8 5.95,5.95 0 0 1 8,13.9512 5.95,5.95 0 0 1 2.0508,8 5.95,5.95 0 0 1 8,2.0508 Z"/>
  <path d="m8.0016 4.7327c-0.36016 0-0.6505 0.29034-0.6505 0.6505v2.8306c0 0.36016 0.29034 0.6505 0.6505 0.6505s0.6505-0.29034 0.6505-0.6505v-2.8306c0-0.36016-0.29034-0.6505-0.6505-0.6505z"/>
  <circle cx="7.9984" cy="10.617" r=".6505"/>
</svg>
