<?xml version="1.0" encoding="UTF-8"?>
<svg width="16" height="16" version="1.1" viewBox="0 0 16 16" xml:space="preserve" xmlns="http://www.w3.org/2000/svg">
  <path d="M 8,0.75000006 A 7.25,7.25 0 0 0 0.75,8 7.25,7.25 0 0 0 8,15.25 7.25,7.25 0 0 0 15.25,8 7.25,7.25 0 0 0 8,0.75000006 Z M 8,2.0508 A 5.95,5.95 0 0 1 13.9492,8 5.95,5.95 0 0 1 8,13.9512 5.95,5.95 0 0 1 2.0508,8 5.95,5.95 0 0 1 8,2.0508 Z"/>
  <path d="m6.0166 5.3645c-0.16628 0-0.3336 0.06407-0.46094 0.19141-0.25467 0.25467-0.25465 0.6672 0 0.92188l1.5234 1.5215-1.5234 1.5234c-0.25467 0.25467-0.25469 0.6672 0 0.92187 0.25467 0.25467 0.66525 0.25467 0.91992 0l1.5234-1.5234 1.5234 1.5234c0.25467 0.25467 0.6672 0.25469 0.92187 0 0.25467-0.25467 0.25467-0.66525 0-0.91992l-1.5234-1.5234 1.5234-1.5234c0.25467-0.25467 0.25467-0.66525 0-0.91992-0.25467-0.25467-0.6672-0.2566-0.92187-2e-3l-1.5234 1.5234-1.5234-1.5234c-0.12734-0.12734-0.2927-0.19141-0.45898-0.19141z"/>
</svg>
