<?xml version="1.0" encoding="UTF-8"?>
<!-- Created with Inkscape (http://www.inkscape.org/) -->
<svg width="16" height="16" version="1.1" viewBox="0 0 16 16" xmlns="http://www.w3.org/2000/svg">
 <path d="m8 0.75a7.25 7.25 0 0 0-7.25 7.25 7.25 7.25 0 0 0 7.25 7.25 7.25 7.25 0 0 0 7.25-7.25 7.25 7.25 0 0 0-7.25-7.25zm0 1.3008a5.95 5.95 0 0 1 5.9492 5.9492 5.95 5.95 0 0 1-5.9492 5.9512 5.95 5.95 0 0 1-5.9492-5.9512 5.95 5.95 0 0 1 5.9492-5.9492z" />
 <path d="m8 3.25c-0.3601 0-0.65039 0.29029-0.65039 0.65039v4.0996c-4.82e-5 0.2464 0.13303 0.40256 0.20508 0.47461l2.6035 2.6016c0.25463 0.25463 0.66334 0.25463 0.91797 0s0.25463-0.66334 0-0.91797l-2.4258-2.4277v-3.8301c0-0.3601-0.29029-0.65039-0.65039-0.65039z" />
</svg>
