<?xml version="1.0" encoding="UTF-8"?>
<svg width="16" height="16" version="1.1" viewBox="0 0 16 16" xml:space="preserve" xmlns="http://www.w3.org/2000/svg">
  <path d="m12.95 3.0503c-0.2938-0.2938-0.76686-0.2938-1.0607 0l-3.8891 3.8891-3.8891-3.8891c-0.2938-0.2938-0.76686-0.2938-1.0607 0-0.2938 0.2938-0.2938 0.76686 0 1.0607l3.8891 3.8891-3.8891 3.8891c-0.2938 0.2938-0.2938 0.76686 0 1.0607 0.2938 0.2938 0.76686 0.2938 1.0607 0l3.8891-3.8891 3.8891 3.8891c0.2938 0.2938 0.76686 0.2938 1.0607 0 0.2938-0.2938 0.2938-0.76686 0-1.0607l-3.8891-3.8891 3.8891-3.8891c0.2938-0.2938 0.2938-0.76686 0-1.0607z"/>
</svg>
