<?xml version="1.0" encoding="UTF-8"?>
<svg width="16" height="16" version="1.1" viewBox="0 0 16 16" xml:space="preserve" xmlns="http://www.w3.org/2000/svg">
  <path d="m13.713 1.5513c-0.73596-0.73596-1.9485-0.73464-2.6845 0.00137l-9.84 9.84c-0.11663 0.11665-0.1879 0.27904-0.18812 0.45726l-1e-7 2.5019c-6.96e-6 0.17354 0.070916 0.33848 0.1895 0.45863 0.12014 0.1186 0.2851 0.1895 0.45863 0.1895h2.5019c0.17854-1e-5 0.34044-0.07132 0.45726-0.18812l9.84-9.84c0.73601-0.73601 0.73733-1.9486 0.0014-2.6845zm-0.8953 0.8953 0.73601 0.73601c0.25239 0.25239 0.25102 0.64153-0.0014 0.89392l-0.75247 0.75249-1.6286-1.6286 0.75249-0.75249c0.25239-0.25239 0.64154-0.25376 0.89393-0.00137zm-2.5417 1.6492 1.6286 1.6286-7.9808 7.9808-1.6286-1.6286z"/>
</svg>
