<?xml version="1.0" encoding="UTF-8"?>
<svg width="16" height="16" version="1.1" viewBox="0 0 16 16" xml:space="preserve" xmlns="http://www.w3.org/2000/svg">
  
<path d="m1.2207 1.2188c-0.2938 0.2938-0.2938 0.76676 0 1.0605l2.2012 2.2012c-1.1715 0.89691-2.0256 2.1226-2.4219 3.5176 0.84385 2.9796 3.7163 5.0538 7 5.0547 1.1413-3.05e-4 2.2578-0.25346 3.2637-0.73047h2e-3l2.457 2.457c0.29384 0.29332 0.76491 0.29364 1.0586 0 0.29355-0.29355 0.29304-0.7667 0-1.0605l-12.533-12.531c-0.28817-0.25517-0.74153-0.25452-1.0273 0.03125zm5.8848 1.7832c-0.78368 0.096141-0.83136 1.3511 0.33789 1.2598 2.3197-0.18124 5.3956 0.93973 6.2656 3.7363-0.12464 0.40041-0.30575 0.78515-0.53906 1.1465-0.1807 0.27985-0.16733 0.67837 0.06836 0.91406 0.23569 0.23569 0.60452 0.2213 0.79688-0.05078 0.43484-0.6151 0.76152-1.2939 0.96484-2.0098-1.4003-4.9325-6.5668-5.159-7.8945-4.9961zm-2.8086 2.3535 1.4531 1.4531c-0.19078 0.3606-0.2951 0.76843-0.29492 1.1914-8.416e-4 1.4062 1.1387 2.5466 2.5449 2.5469 0.42344-1.9e-4 0.83068-0.10542 1.1914-0.29688l1.1113 1.1113c-0.72357 0.26268-1.506 0.40021-2.3027 0.40039-2.6782-7.08e-4 -5.021-1.5452-5.709-3.7637 0.32764-1.0527 1.0369-1.9748 2.0059-2.6426zm2.4336 2.4336 1.4688 1.4688c-0.065192 0.01029-0.13141 0.015647-0.19922 0.015625-0.70271-6.578e-4 -1.2719-0.57077-1.2715-1.2734 7.51e-5 -0.061464 4.808e-4 -0.13275 0.00195-0.21094z"/></svg>
