<?xml version="1.0" encoding="UTF-8"?>
<svg width="16" height="16" version="1.1" viewBox="0 0 16 16" xml:space="preserve" xmlns="http://www.w3.org/2000/svg">
  
<path d="m8 2.9473a7.2454 6.8029 0 0 0-7 5.0508 7.2454 6.8029 0 0 0 7 5.0547 7.2454 6.8029 0 0 0 7-5.0547 7.2454 6.8029 0 0 0-7-5.0508zm0 1.291a5.9091 5.0647 0 0 1 5.709 3.7598 5.9091 5.0647 0 0 1-5.709 3.7637 5.9091 5.0647 0 0 1-5.709-3.7637 5.9091 5.0647 0 0 1 5.709-3.7598zm0 1.2148a2.5454 2.5454 0 0 0-2.5449 2.5469 2.5454 2.5454 0 0 0 2.5449 2.5469 2.5454 2.5454 0 0 0 2.5449-2.5469 2.5454 2.5454 0 0 0-2.5449-2.5469zm0 1.2754a1.2727 1.2727 0 0 1 1.2734 1.2715 1.2727 1.2727 0 0 1-1.2734 1.2734 1.2727 1.2727 0 0 1-1.2715-1.2734 1.2727 1.2727 0 0 1 1.2715-1.2715z"/></svg>
