<?xml version="1.0" encoding="UTF-8"?>
<svg width="16" height="16" version="1.1" viewBox="0 0 16 16" xml:space="preserve" xmlns="http://www.w3.org/2000/svg"><path d="m4.9102 1c-1.0469 0-1.9102 0.8614-1.9102 1.9082v10.184c0 1.0468 0.86329 1.9082 1.9102 1.9082h6.1797c1.0469 0 1.9102-0.8614 1.9102-1.9082v-7.0938c0-0.52365-0.21553-1.0014-0.5625-1.3477l-3.0879-3.0898c-0.34664-0.34591-0.82447-0.56055-1.3477-0.56055zm0 1.2715h3.0898v1.8164c0 1.0468 0.86329 1.9082 1.9102 1.9082h1.8164v7.0957c0 0.35899-0.27773 0.63672-0.63672 0.63672h-6.1797c-0.35899 0-0.63672-0.27773-0.63672-0.63672v-10.184c0-0.35899 0.27773-0.63672 0.63672-0.63672z"/></svg>
