<?xml version="1.0" encoding="UTF-8"?>
<svg width="16" height="16" version="1.1" viewBox="0 0 16 16" xml:space="preserve" xmlns="http://www.w3.org/2000/svg">
  <path d="m1.6367 8.873a0.6355 0.6355 0 0 0-0.63672 0.63477v3.1816c0 1.0469 0.8614 1.9102 1.9082 1.9102h10.184c1.0468 0 1.9082-0.86329 1.9082-1.9102v-3.1816a0.6355 0.6355 0 0 0-0.63672-0.63477 0.6355 0.6355 0 0 0-0.63476 0.63477v3.1816c0 0.35899-0.27773 0.63672-0.63672 0.63672h-10.184c-0.35899 1e-6 -0.63672-0.27773-0.63672-0.63672v-3.1816a0.6355 0.6355 0 0 0-0.63477-0.63477z"/>
  <path d="m8 10.4c-0.36016 0-0.65232-0.29024-0.65234-0.65039v-6.123l-2.457 2.457c-0.25556 0.25556-0.66436 0.25556-0.91992 0-0.25467-0.25467-0.25658-0.6672-0.00195-0.92187l3.5703-3.5703c0.25408-0.25408 0.66556-0.2542 0.91992 0l3.5703 3.5703c0.25556 0.25556 0.25556 0.66436 0 0.91992-0.25467 0.25467-0.6672 0.25659-0.92188 0.00195l-2.457-2.459v6.125c0 0.36142-0.28897 0.65039-0.65039 0.65039z"/>
</svg>
