<?xml version="1.0" encoding="UTF-8"?>
<svg width="16" height="16" version="1.1" viewBox="0 0 16 16" xml:space="preserve" xmlns="http://www.w3.org/2000/svg">
  <path d="m4.5254 2.2725c-0.43922-7.05e-5 -0.84013 0.25002-1.0332 0.64453l-2.2773 4.6426a2.1083 2.1083 0 0 0-0.21484 0.92773v3.2402c0 1.108 0.892 2 2 2h10c1.108 0 2-0.892 2-2v-3.2402a2.1083 2.1083 0 0 0-0.21484-0.92773l-2.2773-4.6426c-0.19307-0.39451-0.59398-0.6446-1.0332-0.64453zm0.44531 1.3008h6.0586c0.21483-3.811e-4 0.41112 0.12164 0.50586 0.31445l2.0156 4.1113h-2.9609c-0.54797 0-0.97691 0.4915-1.291 0.92969-0.28988 0.40439-0.76336 0.66771-1.2988 0.66797-0.53544-2.614e-4 -1.0089-0.26361-1.2988-0.66797-0.31414-0.4382-0.74305-0.92969-1.291-0.92969h-2.9609l2.0156-4.1113c0.094736-0.19282 0.29103-0.31484 0.50586-0.31445zm-2.6699 5.7266h2.6133c0.27393 0 0.59323 0.20186 0.75586 0.42188 0.54059 0.73137 1.4014 1.1755 2.3301 1.1758 0.92864-2.55e-4 1.7895-0.44442 2.3301-1.1758 0.16263-0.22002 0.48193-0.42188 0.75586-0.42188h2.6133v2.127c0 0.554-0.446 1-1 1h-9.3984c-0.554 0-1-0.446-1-1z"/>
</svg>
