<?xml version="1.0" encoding="UTF-8"?>
<svg width="16" height="16" version="1.1" viewBox="0 0 16 16" xml:space="preserve" xmlns="http://www.w3.org/2000/svg"><path d="m7.2108 3.1323a0.6505 0.6505 0 0 0 3e-7 0.91979 0.6505 0.6505 0 0 0 0.91979-4e-7 0.6505 0.6505 0 0 0 0.01243-0.012429l0.69468-0.69468c1.0577-1.0577 2.761-1.0591 3.8187-0.00138 1.0577 1.0577 1.0563 2.761-0.0014 3.8187l-1.4142 1.4142c-1.0532 1.0532-2.7448 1.058-3.8035 0.01381a0.6505 0.6505 0 0 0-0.01381-0.01381 0.6505 0.6505 0 0 0-0.91979 0 0.6505 0.6505 0 0 0 0 0.91979c1.5669 1.5669 4.0899 1.5669 5.6569 0l1.4142-1.4142c1.5669-1.5669 1.5669-4.0899 0-5.6569-1.5669-1.5669-4.0899-1.5669-5.6569 2e-7z"/><path d="m8.7892 12.868a0.6505 0.6505 0 0 0-3e-7 -0.91979 0.6505 0.6505 0 0 0-0.91979 0 0.6505 0.6505 0 0 0-0.01243 0.01243l-0.69468 0.69468c-1.0577 1.0577-2.761 1.0591-3.8187 0.0014-1.0577-1.0577-1.0563-2.761 0.00138-3.8187l1.4142-1.4142c1.0532-1.0532 2.7448-1.058 3.8035-0.01381a0.6505 0.6505 0 0 0 0.01381 0.01381 0.6505 0.6505 0 0 0 0.91979 0 0.6505 0.6505 0 0 0 0-0.91979c-1.5669-1.5669-4.0899-1.5669-5.6569 0l-1.4142 1.4142c-1.5669 1.5669-1.5669 4.0899 2e-7 5.6569 1.5669 1.5669 4.0899 1.5669 5.6569 0z"/></svg>
