<?xml version="1.0" encoding="UTF-8"?>
<svg width="16" height="16" version="1.1" viewBox="0 0 16 16" xml:space="preserve" xmlns="http://www.w3.org/2000/svg">
  <path d="m3 2.2725c-1.108 0-2 0.892-2 2v7.4551c0 1.108 0.892 2 2 2h10c1.108 0 2-0.892 2-2v-7.4551c0-1.108-0.892-2-2-2zm0.30078 1.2988h9.3984c0.554 0 1 0.446 1 1l-4.2031 2.7207c-0.46835 0.30545-0.96668 0.57394-1.4961 0.57422-0.52942-2.795e-4 -1.0277-0.26876-1.4961-0.57422l-4.2031-2.7207c0-0.554 0.446-1 1-1zm-1 2.5195 4.2031 2.7227c0.46835 0.30546 0.96668 0.45687 1.4961 0.45703 0.52942-1.57e-4 1.0277-0.15158 1.4961-0.45703l4.2031-2.7227v5.3379c0 0.554-0.446 1-1 1h-9.3984c-0.554 0-1-0.446-1-1z"/>
</svg>
