<?xml version="1.0" encoding="UTF-8"?>
<svg width="16" height="16" version="1.1" viewBox="0 0 16 16" xml:space="preserve" xmlns="http://www.w3.org/2000/svg">
  <path d="m7.9707 0.75c-1.0016 0-1.9388 0.18895-2.8164 0.56641-0.87885 0.37799-1.6436 0.8916-2.2949 1.543-0.65124 0.65124-1.1649 1.4202-1.543 2.3086-0.37757 0.88727-0.56641 1.8304-0.56641 2.832s0.18888 1.9448 0.56641 2.832c0.37802 0.88836 0.89173 1.6574 1.543 2.3086 0.65124 0.65124 1.4202 1.1649 2.3086 1.543 0.88727 0.37757 1.8304 0.56641 2.832 0.56641 0.8314 0 1.6239-0.13224 2.3789-0.39648 0.75572-0.26451 1.4452-0.63563 2.0684-1.1172 0.62353-0.48181 1.1617-1.0492 1.6152-1.7012 0.45251-0.65049 0.77222-1.3715 0.96094-2.1641l2e-3 -2e-3 0.04297-0.13281c0.0065-0.0195 0.01172-0.04408 0.01172-0.07617 0-0.1934-0.06474-0.34794-0.19531-0.47852-0.13058-0.13057-0.28317-0.19336-0.47656-0.19336-0.13605 0-0.26917 0.04492-0.40234 0.14258-0.13208 0.09684-0.21022 0.20993-0.24414 0.3457-0.17355 0.65565-0.44381 1.2604-0.81055 1.8105-0.36657 0.54985-0.80651 1.018-1.3184 1.4043-0.51116 0.38578-1.0746 0.69046-1.6914 0.91211-0.61812 0.22216-1.2662 0.33208-1.9415 0.33208-0.8289 0-1.6015-0.15376-2.3164-0.46289-0.71353-0.30856-1.3406-0.73315-1.8809-1.2734-0.54029-0.5403-0.96684-1.1693-1.2754-1.8828-0.30913-0.71489-0.46289-1.4875-0.46289-2.3164-1e-7 -0.8289 0.15389-1.6058 0.46289-2.3301 0.30846-0.72294 0.72874-1.3518 1.2598-1.8828 0.53103-0.53103 1.1599-0.95131 1.8828-1.2598 0.72402-0.30891 1.4907-0.46289 2.3008-0.46289 1.0797 0 2.0859 0.26648 3.0117 0.79688 0.92594 0.53049 1.651 1.2595 2.1719 2.1855l0.06055 0.10742h-3.0117c-0.19448 1e-6 -0.35029 0.06014-0.48047 0.18164-0.12927 0.12065-0.19141 0.26754-0.19141 0.46094 0 0.19339 0.062788 0.34794 0.19336 0.47852 0.13057 0.13057 0.28512 0.19336 0.47852 0.19336h4.375c0.1934 0 0.34794-0.06279 0.47852-0.19336 0.13057-0.13057 0.19336-0.28512 0.19336-0.47852v-4.375c0-0.1934-0.06279-0.34794-0.19336-0.47852-0.13057-0.13057-0.28512-0.19336-0.47852-0.19336-0.19339 0-0.34029 0.06214-0.46094 0.19141-0.12151 0.13018-0.18164 0.28598-0.18164 0.48047v2.3613l-0.12891-0.17383c-0.67984-0.90645-1.533-1.6088-2.5625-2.1094-1.0298-0.50071-2.1207-0.75-3.2734-0.75z"/>
</svg>
