<?xml version="1.0" encoding="UTF-8"?>
<svg width="16" height="16" version="1.1" viewBox="0 0 16 16" xml:space="preserve" xmlns="http://www.w3.org/2000/svg">
  <path d="m7.1956 2.0915c-0.17362 0-0.33638 0.0536-0.4883 0.16212l-5.6331 4.3948c-0.21703 0.17363-0.32423 0.38999-0.32423 0.65042-1e-6 0.26044 0.1072 0.47874 0.32423 0.65238l5.6331 4.3948c0.15192 0.10852 0.31468 0.16212 0.4883 0.16212 0.23874 0 0.43882-0.08138 0.60159-0.24415 0.16278-0.16277 0.24415-0.36285 0.24415-0.60159v-1.3575h0.94536c2.2661 0 3.3516 1.6295 4.3674 3.3888 0.11666 0.20206 0.30215 0.21485 0.48245 0.21485 0.21839 0 0.47762-0.15346 0.65628-0.46291 0.33483-0.5924 0.55854-1.215 0.668-1.8653 0.10946-0.65035 0.1175-1.2995 0.02734-1.9435-0.09014-0.64391-0.28195-1.2659-0.57816-1.8712-0.29619-0.60528-0.69702-1.1599-1.1993-1.6622-0.60528-0.60528-1.2885-1.0607-2.0548-1.3634-0.76626-0.30264-1.5493-0.45315-2.3478-0.45315h-0.96684v-1.3497c0-0.23874-0.08138-0.43882-0.24415-0.60159-0.16277-0.16278-0.36285-0.24415-0.60159-0.24415zm-0.4551 1.9825v0.71488h2e-3c-1.91e-4 0.4412 0.35755 0.79894 0.79887 0.79887h1.4669c1.0795 0 2.5837 0.5738 3.4201 1.4102 0.61816 0.61816 1.0403 1.3452 1.2657 2.1759 0.22537 0.83065 0.21539 1.8427-0.0293 2.6798-0.97733-1.6928-2.5629-2.8498-4.678-2.8498h-1.4454c-0.44132-7.2e-5 -0.79906 0.35767-0.79887 0.79887h-2e-3v0.72074l-4.1701-3.2228z"/>
</svg>
