<?xml version="1.0" encoding="UTF-8"?>
<!-- Created with Inkscape (http://www.inkscape.org/) -->
<svg width="16" height="16" version="1.1" viewBox="0 0 16 16" xmlns="http://www.w3.org/2000/svg">
 <path d="m7.31 1.31a5.9999 5.9999 0 0 0-5.9999 5.9999 5.9999 5.9999 0 0 0 5.9999 5.9999 5.9999 5.9999 0 0 0 5.9999-5.9999 5.9999 5.9999 0 0 0-5.9999-5.9999zm0 1.1992a4.7999 4.7999 0 0 1 4.8007 4.8007 4.7999 4.7999 0 0 1-4.8007 4.8007 4.7999 4.7999 0 0 1-4.8007-4.8007 4.7999 4.7999 0 0 1 4.8007-4.8007z" />
 <path d="m10.705 10.705c0.23504-0.23504 0.6286-0.2199 0.88247 0.03394l2.9019 2.9019c0.25384 0.25384 0.26898 0.64742 0.03394 0.88247-0.23504 0.23504-0.6286 0.2199-0.88247-0.03394l-2.9019-2.9019c-0.25384-0.25384-0.26898-0.64742-0.03394-0.88247z" />
</svg>
