<?xml version="1.0" encoding="UTF-8"?>
<svg width="16" height="16" version="1.1" viewBox="0 0 16 16" xml:space="preserve" xmlns="http://www.w3.org/2000/svg">
  <path d="m6.5156 6.9909c-0.36016 0-0.65232 0.29024-0.65234 0.65039l2e-3 1.1074v1.4844l-2e-3 1.1074c2.1e-5 0.36015 0.29218 0.65039 0.65234 0.65039 0.18009 0 0.34336-0.07187 0.46094-0.18945 0.11758-0.11758 0.18945-0.28085 0.18945-0.46094v-3.6992c0-0.18009-0.07187-0.34336-0.18945-0.46094-0.11758-0.11758-0.28085-0.18945-0.46094-0.18945z"/>
  <path d="m6.4082 1c-1.0468 0-1.9082 0.86333-1.9082 1.9102v1.0703h-2.2285a0.63636 0.63636 0 0 0-0.63477 0.63672 0.63636 0.63636 0 0 0 0.63477 0.63672h0.63672v7.8379c0 1.0468 0.86333 1.9082 1.9102 1.9082h6.3633c1.0468 0 1.9082-0.86138 1.9082-1.9082v-7.8379h0.63672a0.63636 0.63636 0 0 0 0.63672-0.63672 0.63636 0.63636 0 0 0-0.63672-0.63672h-2.2266v-1.0703c-1e-6 -1.0468-0.86138-1.9102-1.9082-1.9102zm0 1.2734h3.1836c0.35899 0 0.63477 0.27773 0.63477 0.63672v1.0703h-4.4531v-1.0703c0-0.35899 0.27577-0.63672 0.63476-0.63672zm-2.2266 2.9805h7.6367v7.8379c0 0.35899-0.27773 0.63672-0.63672 0.63672h-6.3633c-0.35899 0-0.63672-0.27773-0.63672-0.63672z"/>
  <path d="m9.4853 6.9909c-0.36016 0-0.65232 0.29024-0.65234 0.65039l2e-3 1.1074v1.4844l-2e-3 1.1074c2.1e-5 0.36015 0.29218 0.65039 0.65234 0.65039 0.18009 0 0.34336-0.07187 0.46094-0.18945 0.11758-0.11758 0.18945-0.28085 0.18945-0.46094v-3.6992c0-0.18009-0.07187-0.34336-0.18945-0.46094-0.11758-0.11758-0.28085-0.18945-0.46094-0.18945z"/>
</svg>
