<?xml version="1.0" encoding="UTF-8"?>
<svg width="64" height="64" version="1.1" viewBox="0 0 64 64" xml:space="preserve" xmlns="http://www.w3.org/2000/svg"><path d="m32 0c-17.655 0-32 14.345-32 32s14.345 32 32 32 32-14.345 32-32-14.345-32-32-32zm0 3c16.034 0 29 12.966 29 29s-12.966 29-29 29-29-12.966-29-29 12.966-29 29-29z"/><path d="m32 11a4.5 4.5 0 0 0-4.5 4.5 4.5 4.5 0 0 0 4.5 4.5 4.5 4.5 0 0 0 4.5-4.5 4.5 4.5 0 0 0-4.5-4.5zm-14.924 9.4395c-1.066 0.04108-2.0232 0.76459-2.3145 1.8516-0.35846 1.3378 0.42977 2.704 1.7676 3.0625l10.471 2.8066c0.07601 7.7052-1.3413 14.414-3.5684 21.691-0.35846 1.3378 0.42977 2.704 1.7676 3.0625 1.3378 0.35847 2.704-0.42977 3.0625-1.7676l3.7383-13.811 3.7383 13.811c0.35846 1.3378 1.7247 2.126 3.0625 1.7676 1.3378-0.35846 2.126-1.7247 1.7676-3.0625-2.2271-7.2771-3.6444-13.986-3.5684-21.691l10.471-2.8066c1.3378-0.35846 2.126-1.7247 1.7676-3.0625-0.29126-1.087-1.2484-1.8105-2.3145-1.8516-0.24601-0.0095-0.49721 0.01677-0.74805 0.08399-11.756 3.4562-16.579 3.4612-28.352 0-0.25084-0.06721-0.50204-0.09349-0.74805-0.08399z"/></svg>
