<?xml version="1.0" encoding="UTF-8"?>
<svg width="64" height="64" version="1.1" viewBox="0 0 64 64" xmlns="http://www.w3.org/2000/svg">
 <g stroke-width=".99996">
  <path d="m35.007 1.2362c-1.6474-1.6474-4.3669-1.6487-6.0143-0.0014l-8.7584 8.7584c-1.6474 1.6474-1.646 4.3669 0.0014 6.0143l8.757 8.757c1.6474 1.6474 4.3655 1.6474 6.0129 1e-6l8.7584-8.7584c1.6474-1.6474 1.6474-4.3655-1e-6 -6.0129zm-2.1212 2.1212 8.757 8.757c0.5089 0.5089 0.5089 1.2616 1e-6 1.7705l-8.7584 8.7584c-0.5089 0.5089-1.2616 0.5089-1.7705 0l-8.757-8.757c-0.5089-0.5089-0.51028-1.2629-0.0014-1.7718l8.7584-8.7584c0.5089-0.5089 1.2629-0.50752 1.7718 0.0014z" stop-color="#000000"/>
  <path d="m35.007 39.236c-1.6474-1.6474-4.3669-1.6488-6.0143-0.0014l-8.7584 8.7584c-1.6474 1.6474-1.646 4.3669 0.0014 6.0143l8.757 8.757c1.6474 1.6474 4.3655 1.6474 6.0129 1e-6l8.7584-8.7584c1.6474-1.6474 1.6474-4.3655-1e-6 -6.0129zm-2.1212 2.1212 8.757 8.757c0.5089 0.5089 0.5089 1.2616 1e-6 1.7705l-8.7584 8.7584c-0.5089 0.5089-1.2616 0.5089-1.7705 0l-8.757-8.757c-0.5089-0.5089-0.51028-1.2629-0.0014-1.7718l8.7584-8.7584c0.5089-0.5089 1.2629-0.50752 1.7718 0.0014z" stop-color="#000000"/>
  <path d="m54.007 20.236c-1.6474-1.6474-4.3669-1.6488-6.0143-0.0014l-8.7584 8.7584c-1.6474 1.6474-1.646 4.3669 0.0014 6.0143l8.757 8.757c1.6474 1.6474 4.3655 1.6474 6.0129 1e-6l8.7584-8.7584c1.6474-1.6474 1.6474-4.3655-1e-6 -6.0129zm-2.1212 2.1212 8.757 8.757c0.5089 0.5089 0.5089 1.2616 1e-6 1.7705l-8.7584 8.7584c-0.5089 0.5089-1.2616 0.5089-1.7705 0l-8.757-8.757c-0.5089-0.5089-0.51028-1.2629-0.0014-1.7718l8.7584-8.7584c0.5089-0.5089 1.2629-0.50752 1.7718 0.0014z" stop-color="#000000"/>
  <path d="m16.007 20.236c-1.6474-1.6474-4.3669-1.6488-6.0143-0.0014l-8.7584 8.7584c-1.6474 1.6474-1.646 4.3669 0.0014 6.0143l8.757 8.757c1.6474 1.6474 4.3655 1.6474 6.0129 1e-6l8.7584-8.7584c1.6474-1.6474 1.6474-4.3655-1e-6 -6.0129zm-2.1212 2.1212 8.757 8.757c0.5089 0.5089 0.5089 1.2616 1e-6 1.7705l-8.7584 8.7584c-0.5089 0.5089-1.2616 0.5089-1.7705 0l-8.757-8.757c-0.5089-0.5089-0.51028-1.2629-0.0014-1.7718l8.7584-8.7584c0.5089-0.5089 1.2629-0.50752 1.7718 0.0014z" stop-color="#000000"/>
 </g>
</svg>
