<?xml version="1.0" encoding="UTF-8"?>
<svg width="64" height="64" version="1.1" viewBox="0 0 64 64" xml:space="preserve" xmlns="http://www.w3.org/2000/svg"><path d="m32.085 13c-2.3298 0-4.252 1.9222-4.252 4.252v43.748h3v-43.748c0-0.7197 0.53227-1.2539 1.252-1.2539h1.8281c0.71968 9e-6 1.252 0.53421 1.252 1.2539v43.748h3v-43.748c0-2.3298-1.9222-4.252-4.252-4.252z"/><path d="m14.002 25c-2.3298 0-4.252 1.9222-4.252 4.252v31.748h3v-31.748c0-0.7197 0.53227-1.2539 1.252-1.2539h1.8281c0.71968 9e-6 1.252 0.53421 1.252 1.2539v31.748h3v-31.748c0-2.3298-1.9222-4.252-4.252-4.252z"/><path d="m50.169 41c-2.3298 0-4.252 1.9222-4.252 4.252v15.748h3v-15.748c0-0.7197 0.53227-1.2539 1.252-1.2539h1.8281c0.71968 9e-6 1.252 0.53421 1.252 1.2539v15.748h3v-15.748c0-2.3298-1.9222-4.252-4.252-4.252z"/><path d="m1.5 0c-0.831 0-1.5 0.669-1.5 1.5v61c0 0.831 0.669 1.5 1.5 1.5h61c0.831 0 1.5-0.669 1.5-1.5s-0.669-1.5-1.5-1.5h-59.5v-59.5c0-0.831-0.669-1.5-1.5-1.5z"/></svg>
