<?xml version="1.0" encoding="UTF-8"?>
<svg width="64" height="64" version="1.1" viewBox="0 0 64 64" xml:space="preserve" xmlns="http://www.w3.org/2000/svg"><path d="m32 0c-17.655 0-32 14.345-32 32s14.345 32 32 32 32-14.345 32-32-14.345-32-32-32zm-1.5 3.0371v57.926c-15.335-0.77874-27.5-13.432-27.5-28.963s12.165-28.184 27.5-28.963zm5.5195 0.23828c6.37e-4 8.8e-5 0.001317-8.8e-5 0.001953 0 0.68615 0.094887 1.3634 0.21356 2.0332 0.35547l-4.5547 2.6289v-1.5293l2.5195-1.4551zm6.0352 1.5098c0.52707 0.19443 1.0465 0.40331 1.5586 0.62695l-10.113 5.8398v-1.5293l8.5547-4.9375zm4.7383 2.2559c0.54283 0.32207 1.0726 0.66183 1.5918 1.0176l-14.885 8.5938v-1.9375l13.293-7.6738zm4.1621 2.998c0.38435 0.33193 0.7587 0.67398 1.125 1.0254l-18.58 10.729v-1.6777l17.455-10.076zm3.2324 3.2715c0.33645 0.39922 0.66368 0.80931 0.97852 1.2266l-21.666 12.508v-1.7891l20.688-11.945zm2.6621 3.7168c0.26258 0.43535 0.51396 0.87819 0.75391 1.3281l-24.104 13.916v-1.7637l23.35-13.48zm2.0312 4.0547c0.1864 0.45933 0.36218 0.92573 0.52539 1.3965 2e-4 5.76e-4 -2e-4 0.001376 0 0.001953l-25.906 14.957v-1.7012l25.381-14.654zm1.3789 4.3691c0.10051 0.4366 0.19089 0.87638 0.27148 1.3203l-27.031 15.607v-1.4785l26.76-15.449zm0.67383 4.5527c0.04361 0.64376 0.065357 1.2945 0.066406 1.9492l-27.5 15.875v-1.9863l27.434-15.838zm-0.14648 5.5352c-0.07557 0.62304-0.17082 1.2395-0.28516 1.8496l-27.002 15.59v-1.6855l27.287-15.754zm-1.3672 5.9414c-0.26969 0.78181-0.57327 1.5471-0.90625 2.2969-2.37e-4 5.33e-4 2.37e-4 0.00142 0 0.001953l-25.014 14.441v-1.7773l25.92-14.963zm-3.8848 7.4824c-0.89406 1.2392-1.8846 2.4052-2.959 3.4863l-13.154 7.5957h-0.001953c-1.4518 0.38218-2.9485 0.65485-4.4805 0.80859l20.596-11.891z" stop-color="#000000"/></svg>
