<?xml version="1.0" encoding="UTF-8"?>
<!-- Generator: Adobe Illustrator 16.0.0, SVG Export Plug-In . SVG Version: 6.00 Build 0)  -->
<svg width="64" height="64" enable-background="new 0 0 512 512" version="1.1" viewBox="0 0 64 64" xml:space="preserve" xmlns="http://www.w3.org/2000/svg">

<path d="m59.414 13.156c-1.2677-0.0055-2.2232 0.50496-2.9566 1.5004-3.0898 5.1285-6.9695 9.6559-13.18 10.453-4.1266 0.52978-8.3026 0.44896-12.381 1.3108 0.51206-1.3311 0.17829-2.3228-1.1911-2.6897-3.2557-0.87238-12.737 4.3567-13.723 8.104-4.1531-1.6995-8.2659-4.234-12.079-7.9107-0.56045-0.54043-1.5556-1.9128-1.5556-1.9128l-2.3491 3.6378c5.2122 4.4792 10.308 7.5281 15.142 9.5234 0.76543 9.8742 12.531 15.672 17.537 15.672 1.53 0 2.2814-0.95687 2.3822-2.373 2.5709 1.3169 5.5316 1.1713 8.2771 0.5302 1.1165-0.29918 10.549-2.9404 16.309-11.145 2.9745-4.237 5.8107-13.09 3.5126-21.667-0.45534-1.6993-1.8954-3.0123-3.7464-3.034zm-0.04602 2.8517c0.46465-0.0218 0.91353 0.3581 1.0623 0.91313 2.0081 7.4944-0.75134 15.971-3.0965 19.312-5.0741 7.2276-13.907 9.819-14.728 10.039-4.6583 1.4609-7.3639-0.73686-10.315-3.7575-0.10963 1.8344 0.08034 3.6809 0.10494 5.5009-3.0519 0.14305-12.817-4.0228-14.417-11.779 17.322 5.8391 30.749-1.4899 33.143-3.4979 0.21474-0.18005 0.60693-0.43803 0.47498-0.74744-0.11718-0.27476-0.42779-0.32742-0.69589-0.23749-2.9068 0.97497-17.508 5.877-32.276 1.0512 1.6256-2.9078 5.6641-5.4341 9.1589-6.1397-0.66143 1.4901-1.2219 3.025-1.8152 4.5436 5.4543-3.0436 11.725-2.6554 17.721-3.3009 7.1463-0.76922 11.364-6.1053 15.061-11.6 0.19083-0.19688 0.40553-0.29017 0.61673-0.30008z" enable-background="accumulate" stop-color="#000000"/></svg>
