<?xml version="1.0" encoding="UTF-8"?>
<!-- Generator: Adobe Illustrator 16.0.0, SVG Export Plug-In . SVG Version: 6.00 Build 0)  -->
<svg width="64" height="64" enable-background="new 0 0 512 512" version="1.1" viewBox="0 0 64 64" xml:space="preserve" xmlns="http://www.w3.org/2000/svg"><g>

<path d="m23.209 15.037c-12.362-1.0564-17.231 5.1471-22.435 15.185-1.391 2.1444-0.82748 5.7379 1.9936 6.8239 2.479 0.95426 5.241-0.98693 10.915 0.90945 0.74173 6.8416 5.5849 11.644 12.38 12.381 1.8949 5.6717-0.0421 8.4362 0.91079 10.915 0.95289 2.4791 4.3369 3.6123 6.8205 1.9937 10.046-5.2083 16.242-10.081 15.186-22.435 9.256-7.6907 17.432-27.27 14.29-40.063-11.296-3.2109-31.815 4.3675-40.061 14.289zm37.475-11.702c1.4511 8.6258-3.6581 27.569-14.808 36.194 1.7872 11.048-4.842 16.344-13.72 21.202-0.75744 0.49423-2.162 0.017898-2.5138-0.81841 0.66134-6.4677-0.26094-9.6132-1.3654-12.401-7.4674-0.25285-11.515-4.2203-11.77-11.77-3.9051-2.0117-8.172-1.4961-12.401-1.3653-0.83635-0.35175-1.3146-1.7564-0.82037-2.5138 4.453-9.7891 10.469-14.539 21.204-13.72 8.0152-10.362 26.333-16.468 36.194-14.808z" enable-background="accumulate" stop-color="#000000"/><path d="m7.6127 44.271c-1.3467-0.09701-4.3013 2.82-7.0312 5.9074-0.87013 1.0545-0.68033 2.8257 0.5553 3.5153 0.60613 0.63116 2.0269 0.34136 2.3356 0.80488-1.8568 6.9902-0.8772 7.9511 6.2577 6.0099 0.00199 1.2994 0.44309 2.8549 1.7798 3.3596 1.1992 0.4411 2.4256-0.28848 3.1884-1.1883 1.5293-1.5525 3.1316-3.0429 4.5917-4.6578 1.1208-1.5501 0.12661-4.0119-1.7391-4.3907-2.2215-0.59461-5.741-1.902-7.0572-6.8288-0.20686-1.1361-1.1969-2.4892-2.881-2.5316zm-0.054705 3.0998c1.9813 7.5662 8.7326 8.8019 8.9803 9.2284-1.2743 1.2799-2.5485 2.5599-3.8334 3.8292-0.26037-1.262-0.1581-2.5552-0.19336-3.8342-2.2053 0.66528-4.3912 1.478-6.6877 1.7508-0.055002-2.2782 0.92996-4.6307 1.6151-6.8233-1.279-0.0353-2.5722 0.06691-3.8342-0.19334 1.3107-1.3261 2.6327-2.6412 3.9532-3.9574z" enable-background="accumulate" stop-color="#000000"/><path d="m49.114 14.903c-2.8681-2.8681-7.5639-2.8694-10.432-0.0014-2.868 2.868-2.8667 7.5637 0.0014 10.432 2.8681 2.8681 7.5638 2.8694 10.432 0.0014 2.868-2.868 2.8667-7.5637-0.0014-10.432zm-2.1214 2.1214c1.7218 1.7218 1.7228 4.4675 0.0014 6.1889-1.7214 1.7214-4.4672 1.7204-6.1889-0.0014-1.7218-1.7218-1.7228-4.4675-0.0014-6.1889 1.7214-1.7214 4.4672-1.7204 6.1889 0.0014z" enable-background="accumulate" stop-color="#000000"/></g></svg>
