<?xml version="1.0" encoding="UTF-8"?>
<svg width="64" height="64" version="1.1" viewBox="0 0 64 64" xml:space="preserve" xmlns="http://www.w3.org/2000/svg"><g transform="matrix(1.1852 0 0 1.1852 -4e-7 12.8)"><path d="m27 0c-7.2 0-11.7 3.6-13.5 10.8 2.7-3.6 5.85-4.95 9.45-4.05 2.054 0.513 3.522 2.004 5.147 3.653 2.647 2.687 5.711 5.797 12.403 5.797 7.2 0 11.7-3.6 13.5-10.8-2.7 3.6-5.85 4.95-9.45 4.05-2.054-0.513-3.522-2.004-5.147-3.653-2.647-2.687-5.711-5.797-12.403-5.797zm-13.5 16.2c-7.2 0-11.7 3.6-13.5 10.8 2.7-3.6 5.85-4.95 9.45-4.05 2.054 0.514 3.522 2.004 5.147 3.653 2.647 2.687 5.711 5.797 12.403 5.797 7.2 0 11.7-3.6 13.5-10.8-2.7 3.6-5.85 4.95-9.45 4.05-2.054-0.513-3.522-2.004-5.147-3.653-2.647-2.687-5.711-5.797-12.403-5.797z" clip-rule="evenodd" fill-rule="evenodd"/></g></svg>
