<?xml version="1.0" encoding="UTF-8"?>
<svg width="64" height="64" version="1.1" viewBox="0 0 64 64" xml:space="preserve" xmlns="http://www.w3.org/2000/svg"><path d="m27.133 46.32-0.78516 1.3594a1 1 0 0 0 0.35742-0.12305 1 1 0 0 0 0.42773-1.2363zm0.41797 1.7031a1 1 0 0 0-0.5 0.13476 1 1 0 0 0-0.36523 1.3652 1 1 0 0 0 1.3652 0.36523 1 1 0 0 0 0.36524-1.3652 1 1 0 0 0-0.86524-0.5z"/><path d="m3.4062 0c-1.8611 0-3.4062 1.5451-3.4062 3.4062v57.188c0 1.8611 1.5451 3.4062 3.4062 3.4062h13.344c1.8611 0 3.4062-1.5451 3.4062-3.4062v-57.188c0-1.8611-1.5451-3.4062-3.4062-3.4062zm0 3h13.344c0.25101 0 0.40625 0.15524 0.40625 0.40625v57.188c0 0.25101-0.15524 0.40625-0.40625 0.40625h-13.344c-0.25101 0-0.40625-0.15524-0.40625-0.40625v-57.188c0-0.25101 0.15524-0.40625 0.40625-0.40625z" stop-color="#000000"/><rect x="47.459" width="0" height="0" ry="0" opacity=".48434"/><path d="m32.09 1.0059c-1.2097-0.027103-2.4071 0.58721-3.0469 1.6953l-8.8867 15.393v5.998l11.484-19.891c0.12551-0.21738 0.3373-0.27394 0.55469-0.14844l11.557 6.6719c0.21738 0.12551 0.27394 0.3373 0.14844 0.55469l-23.744 41.125v6l26.342-45.625c0.93056-1.6118 0.36568-3.7237-1.2461-4.6543l-11.557-6.6719c-0.50368-0.2908-1.0556-0.43495-1.6055-0.44727z" stop-color="#000000"/><path d="m25.642 17.974a1 1 0 0 0-1.366 0.36602 1 1 0 0 0 0.36602 1.366 1 1 0 0 0 1.366-0.36603 1 1 0 0 0-0.36602-1.366z"/><circle transform="rotate(30)" cx="33.887" cy="3.7447" r="1"/><circle transform="rotate(30)" cx="36.58" cy="3.7447" r="1"/><circle transform="rotate(30)" cx="39.273" cy="3.7447" r="1"/><circle transform="rotate(30)" cx="41.965" cy="3.7447" r="1"/><path d="m20.156 38.285v1.7129a1 1 0 0 0 0.34961-0.35547 1 1 0 0 0-0.34961-1.3574zm1.8145 1.2031a1 1 0 0 0-0.86523 0.5 1 1 0 0 0 0.36523 1.3652 1 1 0 0 0 1.3672-0.36524 1 1 0 0 0-0.36719-1.3672 1 1 0 0 0-0.5-0.13281zm2.334 1.3457a1 1 0 0 0-0.86719 0.5 1 1 0 0 0 0.36719 1.3672 1 1 0 0 0 1.3652-0.36719 1 1 0 0 0-0.36523-1.3652 1 1 0 0 0-0.5-0.13477z"/><path d="m52.828 17.055c-0.54988 0.012319-1.1037 0.15646-1.6074 0.44726l-11.174 6.4512-3 5.1953 15.674-9.0488c0.21738-0.12551 0.42918-0.06895 0.55469 0.14844l6.6719 11.557c0.12551 0.21738 0.068949 0.42918-0.14844 0.55469l-36.91 21.311-2.7324 4.7344v0.30664l41.143-23.754c1.6118-0.93056 2.1786-3.0406 1.248-4.6523l-6.6719-11.557c-0.63976-1.1081-1.8371-1.7205-3.0469-1.6934z" stop-color="#000000"/><path d="m40.639 29.029a1 1 0 0 0-1.366-0.36602 1 1 0 0 0-0.36602 1.366 1 1 0 0 0 1.366 0.36603 1 1 0 0 0 0.36602-1.366z"/><circle transform="rotate(60)" cx="48.153" cy="-19.681" r="1"/><circle transform="rotate(60)" cx="50.846" cy="-19.681" r="1"/><circle transform="rotate(60)" cx="53.538" cy="-19.681" r="1"/><circle transform="rotate(60)" cx="56.231" cy="-19.681" r="1"/><path d="m45.906 43.844-5.1953 3h19.883c0.25101 0 0.40625 0.15524 0.40625 0.40625v13.344c0 0.25101-0.15524 0.40625-0.40625 0.40625h-40.463c-0.20496 1.6744-1.657 3-3.3809 3h43.844c1.8611 0 3.4062-1.5451 3.4062-3.4062v-13.344c0-1.8611-1.5451-3.4062-3.4062-3.4062h-14.688z" stop-color="#000000"/><path d="m45.666 48.536a1 1 0 0 0-1-1 1 1 0 0 0-1 1 1 1 0 0 0 1 1 1 1 0 0 0 1-1z"/><circle transform="rotate(90)" cx="51.229" cy="-44.667" r="1"/><circle transform="rotate(90)" cx="53.922" cy="-44.667" r="1"/><circle transform="rotate(90)" cx="56.615" cy="-44.667" r="1"/><circle transform="rotate(90)" cx="59.307" cy="-44.667" r="1"/><path d="m25.031 55.896-1.666 0.96094a1 1 0 0 0 0 0.001953 1 1 0 0 0 0.96875 0.75391 1 1 0 0 0 1-1 1 1 0 0 0-0.30273-0.7168zm-0.69727 2.4102a1 1 0 0 0-1 1 1 1 0 0 0 1 1 1 1 0 0 0 1-1 1 1 0 0 0-1-1z"/><circle cx="10.078" cy="53.922" r="2.5"/></svg>
