<?xml version="1.0" encoding="UTF-8"?>
<!-- Created with Inkscape (http://www.inkscape.org/) -->
<svg width="512" height="320" version="1.1" viewBox="0 0 135.47 84.667" xmlns="http://www.w3.org/2000/svg">
 <g fill-rule="evenodd">
  <path d="m12.904 7.6738c-2.8779 0-5.2305 2.3065-5.2305 5.1582v8.7324c0 2.8517 2.3525 5.1582 5.2305 5.1582h109.66c2.8779 0 5.2324-2.3065 5.2324-5.1582v-8.7324c0-2.8517-2.3545-5.1582-5.2324-5.1582zm0 1.5859h109.66c2.0399 0 3.6465 1.5868 3.6465 3.5723v8.7324c0 1.9854-1.6066 3.5703-3.6465 3.5703h-109.66c-2.0399 0-3.6445-1.5849-3.6445-3.5703v-8.7324c0-1.9854 1.6046-3.5723 3.6445-3.5723z" stop-color="#000000"/>
  <path d="m119.57 12.653a0.96384 0.96384 0 0 0-1.3631 0 0.96384 0.96384 0 0 1-5.3e-4 5.4e-4l-6.1381 6.1381c-0.677 0.677-1.7669 0.677-2.444 0l-6.1381-6.1381a0.96384 0.96384 0 0 1-5.3e-4 -5.4e-4 0.96384 0.96384 0 0 0-1.3631 0 0.96384 0.96384 0 0 0 0 1.3631 0.96384 0.96384 0 0 1 5.4e-4 5.3e-4l7.5012 7.5012c0.67701 0.677 1.767 0.677 2.444 0l7.5001-7.5001a0.96384 0.96384 0 0 0 2e-3 -2e-3 0.96384 0.96384 0 0 0 0-1.3631z"/>
  <path d="m12.904 56.624c-2.8779 0-5.2305 2.3065-5.2305 5.1582v8.7324c0 2.8517 2.3525 5.1582 5.2305 5.1582h109.66c2.8779 0 5.2324-2.3065 5.2324-5.1582v-8.7324c0-2.8517-2.3545-5.1582-5.2324-5.1582zm0 1.5859h109.66c2.0399 0 3.6465 1.5868 3.6465 3.5723v8.7324c0 1.9854-1.6066 3.5703-3.6465 3.5703h-109.66c-2.0399 0-3.6445-1.5849-3.6445-3.5703v-8.7324c0-1.9854 1.6046-3.5723 3.6445-3.5723z" stop-color="#000000"/>
  <path d="m119.57 61.603a0.96384 0.96384 0 0 0-1.3631 0 0.96384 0.96384 0 0 1-5.3e-4 5.4e-4l-6.1381 6.1381c-0.677 0.677-1.7669 0.677-2.444 0l-6.1381-6.1381a0.96384 0.96384 0 0 1-5.3e-4 -5.4e-4 0.96384 0.96384 0 0 0-1.3631 0 0.96384 0.96384 0 0 0 0 1.3631 0.96384 0.96384 0 0 1 5.4e-4 5.3e-4l7.5012 7.5012c0.67701 0.677 1.767 0.677 2.444 0l7.5001-7.5001a0.96384 0.96384 0 0 0 2e-3 -2e-3 0.96384 0.96384 0 0 0 0-1.3631z"/>
  <path d="m12.904 32.149c-2.8779 0-5.2305 2.3065-5.2305 5.1582v8.7324c0 2.8517 2.3525 5.1582 5.2305 5.1582h109.66c2.8779 0 5.2324-2.3065 5.2324-5.1582v-8.7324c0-2.8517-2.3545-5.1582-5.2324-5.1582zm0 1.5859h109.66c2.0399 0 3.6465 1.5868 3.6465 3.5723v8.7324c0 1.9854-1.6066 3.5703-3.6465 3.5703h-109.66c-2.0399 0-3.6445-1.5849-3.6445-3.5703v-8.7324c0-1.9854 1.6046-3.5723 3.6445-3.5723z" stop-color="#000000"/>
  <path d="m119.57 37.128a0.96384 0.96384 0 0 0-1.3631 0 0.96384 0.96384 0 0 1-5.3e-4 5.4e-4l-6.1381 6.1381c-0.677 0.677-1.7669 0.677-2.444 0l-6.1381-6.1381a0.96384 0.96384 0 0 1-5.3e-4 -5.4e-4 0.96384 0.96384 0 0 0-1.3631 0 0.96384 0.96384 0 0 0 0 1.3631 0.96384 0.96384 0 0 1 5.4e-4 5.3e-4l7.5012 7.5012c0.67701 0.677 1.767 0.677 2.444 0l7.5001-7.5001a0.96384 0.96384 0 0 0 2e-3 -2e-3 0.96384 0.96384 0 0 0 0-1.3631z"/>
 </g>
</svg>
