<?xml version="1.0" encoding="UTF-8"?>
<!-- Created with Inkscape (http://www.inkscape.org/) -->
<svg width="512" height="320" version="1.1" viewBox="0 0 135.47 84.667" xml:space="preserve" xmlns="http://www.w3.org/2000/svg"><path d="m12.904 22.357c-2.8779 0-5.2302 2.3067-5.2302 5.1583v29.636c0 2.8517 2.3522 5.1583 5.2302 5.1583h109.66c2.8779 0 5.2322-2.3067 5.2322-5.1583v-29.636c0-2.8517-2.3543-5.1583-5.2322-5.1583zm0 1.588h109.66c2.0399 0 3.6463 1.5849 3.6463 3.5703v29.636c0 1.9854-1.6064 3.5724-3.6463 3.5724h-109.66c-2.0399 0-3.6442-1.587-3.6442-3.5724v-29.636c0-1.9854 1.6043-3.5703 3.6442-3.5703z" fill-rule="evenodd" stop-color="#000000"/><g transform="matrix(.79297 0 0 .79297 12.18 26.468)" stroke-linecap="round" stroke-linejoin="round" stroke-width="2"><path d="m12 1c-6.0633 0-11 4.9367-11 11 0 6.0633 4.9367 11 11 11 6.0633 0 11-4.9367 11-11 0-6.0633-4.9367-11-11-11zm0 2c4.9824 0 9 4.0176 9 9 0 4.9824-4.0176 9-9 9-4.9824 0-9-4.0176-9-9 0-4.9824 4.0176-9 9-9z" stop-color="#000000"/><path d="m12 6.6615a1.001 1.1122 0 0 0-1.001 1.1122v4.4488a1.001 1.1122 0 0 0 1.001 1.1122 1.001 1.1122 0 0 0 1.001-1.1122v-4.4488a1.001 1.1122 0 0 0-1.001-1.1122z" stop-color="#000000"/><path d="m11.995 15.337a0.9961 1.001 0 0 0-0.9961 1.001 0.9961 1.001 0 0 0 0.9961 1.001h0.0098a0.9961 1.001 0 0 0 0.9961-1.001 0.9961 1.001 0 0 0-0.9961-1.001z" stop-color="#000000"/></g><path d="m36.804 35.189h83.079c0.43988 0 0.79401 0.35413 0.79401 0.79401s-0.35413 0.79401-0.79401 0.79401h-83.079c-0.43988 0-0.79401-0.35413-0.79401-0.79401s0.35413-0.79401 0.79401-0.79401z" fill-rule="evenodd" stroke-width="3.7176"/><path d="m15.584 51.921h104.3c0.43988 0 0.79401 0.35413 0.79401 0.79401s-0.35413 0.79401-0.79401 0.79401h-104.3c-0.43988 0-0.79401-0.35413-0.79401-0.79401s0.35413-0.79401 0.79401-0.79401z" fill-rule="evenodd" stroke-width="4.1574"/></svg>
