<?xml version="1.0" encoding="UTF-8"?>
<!-- Created with Inkscape (http://www.inkscape.org/) -->
<svg width="512" height="320" version="1.1" viewBox="0 0 135.47 84.667" xml:space="preserve" xmlns="http://www.w3.org/2000/svg"><path d="m67.733 7.9375c-18.996 0-34.396 15.4-34.396 34.396s15.4 34.396 34.396 34.396c18.996 0 34.396-15.4 34.396-34.396s-15.4-34.396-34.396-34.396zm-0.0045 1.9726-2.63e-4 5.078e-4h0.0094c0.69406 0.022852 1.3872 0.068027 2.0784 0.13541 8.6585 1.0313 15.376 8.3874 15.376 17.323 0 2.6577 1.1006 4.9122 2.6691 6.7825-12.113-0.9906-20.067-8.8145-20.128-16.686 0 7.9618-8.0832 15.717-20.131 16.689 1.57-1.8709 2.6725-4.1267 2.6725-6.7859 0-8.9361 6.7169-16.293 15.376-17.323 0.69116-0.067382 1.3843-0.11254 2.0784-0.13541zm8.12e-4 14.688 2.63e-4 2.59e-4c2.3892 4.1642 6.7134 7.4264 12.003 9.312-0.14063 8.7532-5.4716 15.751-12 15.751-6.5286-1.12e-4 -11.86-6.9989-12-15.754 5.287-1.8859 9.6081-5.1472 11.996-9.3096zm-13.953 9.9328c0.25877 6.7165 3.1809 12.732 7.6571 15.764-1.0123 3.0978-3.9256 5.3356-7.3614 5.3358-4.8923 0-8.6289 3.1963-10.848 7.9269-2.3073-2.6645-4.165-5.6871-5.4995-8.9493 0.03341-3.1652-0.30071-6.4865-0.09395-8.9139 0-2.8448 1.5618-5.46 4.0651-6.8114 1.4446-0.83402 3.0213-1.8925 4.4247-3.1842 2.6608-0.0868 5.2404-0.48942 7.6563-1.168zm27.914 0.0015c2.4163 0.67812 4.9959 1.0805 7.6569 1.1667 1.4031 1.2916 2.9796 2.35 4.4241 3.1839 2.5034 1.3514 4.0641 3.9668 4.0649 6.8116 0.20678 2.4275-0.12743 5.7489-0.09395 8.9144-1.3344 3.262-3.1918 6.2844-5.499 8.9488-2.2195-4.7306-5.9564-7.9269-10.849-7.9269-3.4358-6.6e-5 -6.3489-2.238-7.3611-5.3358 4.4758-3.0315 7.3978-9.0465 7.6569-15.763zm-21.619 1.283c-0.40845 0-0.73948 0.33104-0.7395 0.7395 0 0.40845 0.33106 0.73976 0.7395 0.73976 1.025 0 1.0951 0.57995 2.7027 0.57995 1.0843 0 1.9367-0.42004 2.2586-0.60435l0.0018-0.0015v-2.59e-4h2.63e-4c0.35373-0.20423 0.47478-0.65658 0.27055-1.0103-0.20422-0.35374-0.65658-0.47505-1.0103-0.27082-0.46241 0.26695-0.98672 0.40754-1.5207 0.40754-1.2215 0-1.2252-0.57968-2.7027-0.57968zm15.322 0c-1.4775 0-1.4812 0.57968-2.7027 0.57968-0.53394 0-1.0585-0.14059-1.521-0.40754-0.35374-0.20422-0.80609-0.08293-1.0103 0.27082-0.20423 0.35372-0.08292 0.80583 0.27082 1.0101v5.23e-4l2.63e-4 2.64e-4 2.62e-4 2.64e-4 2.63e-4 2.59e-4c4.1e-4 3.2e-4 7.62e-4 5.08e-4 7.62e-4 5.08e-4 0.32188 0.18431 1.1742 0.60435 2.2586 0.60435 1.6075 0 1.6776-0.57995 2.7027-0.57995 0.40845 0 0.7395-0.33105 0.7395-0.7395-1.6e-5 -0.40845-0.33105-0.7395-0.7395-0.7395zm-11.619 6.7799a0.73138 0.73138 0 0 0-0.51723 0.21413 0.73138 0.73138 0 0 0 0 1.0342 0.73138 0.73138 0 0 0 0.0026 0.0025c1.1867 1.1853 2.7951 1.8512 4.4724 1.8516 1.6773-5.07e-4 3.2858-0.66634 4.4724-1.8516a0.73138 0.73138 0 0 0 0.0026-0.0025 0.73138 0.73138 0 0 0 0-1.0342 0.73138 0.73138 0 0 0-0.51749-0.21413 0.73138 0.73138 0 0 0-0.5167 0.21413c-0.91258 0.91254-2.1501 1.4252-3.4406 1.4257-1.2905-5.08e-4 -2.5279-0.5132-3.4406-1.4257a0.73138 0.73138 0 0 0-0.5167-0.21413zm8.2835 8.7926h2.63e-4c0.56427 1.8443 1.7305 3.3488 3.3178 4.4155-0.15571 0.9623-0.4917 1.8863-0.99037 2.7239l0.09027-1.4509-1.58 1.7642c-0.21406 0.23904-0.41329 0.49031-0.61642 0.73819l0.22489-0.83922-1.7191 0.99247c-0.62778 0.36246-1.203 0.84602-1.7335 1.3743-0.13655-1.0877-0.59044-1.9227-0.59044-1.9227l-0.72821-1.3937-0.72874 1.3934s-0.45372 0.83492-0.59044 1.9225c-0.53053-0.52808-1.1059-1.0113-1.7335-1.3738l-1.7188-0.99247 0.22489 0.83922c-0.20315-0.24789-0.40236-0.49915-0.61642-0.73819l-1.5803-1.7642 0.09027 1.4512c-0.49873-0.83748-0.83507-1.7612-0.9909-2.7234 1.5876-1.0667 2.7542-2.5715 3.3186-4.416 1.3967 0.60959 2.8565 0.92008 4.3252 0.92004 1.4689-3e-5 2.9285-0.31057 4.3252-0.92031zm5.2363 5.4116c0.04753 0.01854 0.09532 0.03697 0.14328 0.05484 0.8026 2.085 0.70304 2.9069-0.09814 4.8534l1.6884-1.3234c-0.33814-0.9995-0.57379-1.9933-0.48364-3.1818 0.48319 0.12531 0.98442 0.22226 1.5013 0.28945 0.09455 0.8036-0.03809 1.6186-0.51592 2.4463l1.6105-1.7377c-0.12233-0.21187-0.23055-0.42207-0.32566-0.63138 0.32566 0.02316 0.65684 0.03489 0.99273 0.03489 1.0887 2.6e-5 2.1493 0.27127 3.1538 0.77519-0.95717 0.41334-2.0396 0.49945-3.5382 0.09788l-1.6853 1.7737c0.86272-0.52053 2.6549-1.5403 5.6179-0.53534-1.7498 1.3446-4.1981 2.2402-6.2325 1.0442l-1.8036 1.3769c0.92251-0.3211 3.1869-0.5602 5.7121 0.28866-2.4401 1.0465-4.1518 1.8165-6.3256 0.06246l-2.1141 1.0791s2.8579-0.55738 5.6832 1.262c-2.5521 0.64318-4.5143 1.095-6.434-0.98879-1.8475 0.52748-2.1209 0.6159-2.1209 0.6159 1.0855 0.14954 3.6778 0.88767 5.183 2.2802-2.7734 0.13032-4.5559 0.3393-6.212-2.107 0 0-1.6965 0.24175-2.1728 0.27659 1.8876 0.83867 3.17 1.3637 4.5648 3.1018-2.8592 0-3.9416-0.74592-5.188-2.8231 0.02771 0.5167 0.10739 0.9826 0.25665 1.2811 1.0103 1.8447-0.4204 4.3593-0.4204 4.3593s-1.431-2.5146-0.42066-4.3593c0.14922-0.29843 0.22865-0.76387 0.25638-1.2803-1.2463 2.0768-2.3289 2.8223-5.1878 2.8223 1.3946-1.7381 2.677-2.2632 4.5648-3.1018-0.4763-0.03484-2.1726-0.27633-2.1726-0.27633-1.6562 2.4462-3.4391 2.2369-6.2125 2.1067 1.5054-1.3925 4.098-2.1304 5.1836-2.2799 0 0-0.27357-0.08867-2.1211-0.61616-1.9197 2.0838-3.8819 1.632-6.434 0.98879 2.8253-1.8194 5.6832-1.262 5.6832-1.262l-2.1141-1.0793c-2.1738 1.754-3.8855 0.98431-6.3256-0.06219 2.5253-0.84886 4.7896-0.60978 5.7121-0.28866l-1.8036-1.3772c-2.0343 1.196-4.4827 0.30076-6.2325-1.0439 2.9629-1.005 4.7551 0.01483 5.6179 0.53534l-1.6853-1.7737c-1.4986 0.40156-2.5808 0.31543-3.5379-0.09789 1.0045-0.50387 2.0648-0.77515 3.1535-0.77519 0.33582 0 0.66686-0.01204 0.99247-0.03514-0.09511 0.2093-0.20312 0.41958-0.3254 0.63138l1.6102 1.738c-0.47783-0.82765-0.61046-1.6429-0.51592-2.4465 0.5169-0.06715 1.0182-0.1639 1.5013-0.28919 0.09016 1.1885-0.14525 2.1821-0.48338 3.1816l1.6884 1.3236c-0.80114-1.9466-0.90092-2.7686-0.09841-4.8534 0.04823-0.01798 0.09657-0.03621 0.14433-0.05485 1.1896 2.7209 1.0644 3.1004 0.81822 5.3694l1.9705 1.0247c-1.2222-1.3357-1.7361-3.0913-0.99746-4.8366 1.4969 2.5928 1.5889 2.4059 1.7359 5.1251l2.309 0.68045c-1.4396-1.091-1.8521-1.6086-2.049-4.7742 1.298 1.4495 2.3625 2.9723 2.8381 4.8818 0 0 1.5037 0.17953 2.2552 0.22594-1.9575-0.88449-2.354-2.458-2.7814-4.0528 1.375 0.79392 2.6514 2.2527 3.2884 3.6316-0.04015-0.59734-0.13037-1.157-0.24536-1.5142-0.43692-1.357 0.42066-2.9971 0.42066-2.9971s0.85734 1.6401 0.4204 2.9971c-0.11505 0.35729-0.20526 0.91727-0.24536 1.5149 0.63686-1.3792 1.9133-2.8384 3.2886-3.6324-0.4274 1.5948-0.82404 3.1685-2.7816 4.0531 0.7516-0.04641 2.2552-0.2262 2.2552-0.2262 0.4755-1.9095 1.5403-3.4322 2.8383-4.8818-0.19684 3.1658-0.60958 3.6835-2.0492 4.7745l2.309-0.68045c0.14699-2.7192 0.23928-2.5323 1.7362-5.125 0.7386 1.7453 0.22475 3.5007-0.99746 4.8364l1.9705-1.0247c-0.2462-2.2689-0.37142-2.6487 0.81822-5.3696zm-28.65 2.8289 0.96282 0.73976c0.61993 0.47638 1.3208 0.90268 2.076 1.2192v0.22306l-1.5535 0.52248 1.5535 0.66681v7.5055c-2.5396-1.4469-4.8718-3.2305-6.9334-5.3024 0.99712-2.3259 2.34-4.2462 3.8946-5.5743zm38.177 0c1.5547 1.3282 2.898 3.2483 3.8951 5.5743-2.0617 2.0721-4.3944 3.8558-6.9342 5.3027v-7.5057l1.554-0.66681-1.554-0.52248v-0.22303c0.75506-0.31651 1.4565-0.74288 2.0763-1.2192zm-33.164 4.1956c0.35113 0.132 0.69992 0.24771 1.0523 0.33695l-1.0523 0.67783zm28.152 0v1.0148l-1.0526-0.67783c0.35248-0.08926 0.70131-0.2049 1.0526-0.33695zm-28.152 1.4672 1.3318 0.33563c1.0238 0.25801 1.9954 0.49639 2.9719 0.54531l-1.3987 1.2937 1.9605 0.09237c1.1525 0.05411 2.1808 0.12349 3.1784-0.016l-1.0337 1.2882h1.7139c1.5009 0 2.6497-0.19677 3.6054-0.74055 0.04329-0.02463 0.0788-0.05809 0.12098-0.08397-0.02049 1.7406 0.91112 3.2262 0.91112 3.2262l0.71457 1.2554 0.7143-1.2559s0.93156-1.4854 0.91086-3.2262c0.04229 0.02595 0.07808 0.05979 0.1215 0.0845 0.95568 0.54391 2.1041 0.74055 3.6051 0.74055h1.7139l-1.0334-1.2884c0.99763 0.13935 2.026 0.06998 3.1784 0.016l1.9605-0.09237-1.3987-1.2937c0.97656-0.0489 1.9483-0.2873 2.9722-0.54531l1.3315-0.33563v6.25c-4.3908 2.116-9.202 3.2149-14.077 3.2149-4.874 1.5e-5 -9.6853-1.0988-14.077-3.2149z" fill-rule="evenodd" stroke-width=".13436"/></svg>
