<?xml version="1.0" encoding="UTF-8"?>
<!-- Created with Inkscape (http://www.inkscape.org/) -->
<svg width="512" height="320" version="1.1" viewBox="0 0 135.47 84.667" xml:space="preserve" xmlns="http://www.w3.org/2000/svg">
    <path d="m44.963 37.079a0.9638 0.9638 0 0 1 0.68159 0.28214 0.9638 0.9638 0 0 0 5.1e-4 5.2e-4l3.7501 3.7501c0.33847 0.33847 0.50796 0.78041 0.50796 1.2221-1e-5 0.44171-0.16949 0.88364-0.50796 1.2221l-3.7501 3.7501a0.9638 0.9638 0 0 1-5.1e-4 5.2e-4 0.9638 0.9638 0 0 1-0.68159 0.28214 0.9638 0.9638 0 0 1-0.68108-0.28214 0.9638 0.9638 0 0 1 0-1.3632l0.68159 0.68109-0.68108-0.6816 2.3868-2.3868c0.33847-0.33848 0.50796-0.78041 0.50797-1.2221-1e-5 -0.44171-0.1695-0.88364-0.50797-1.2221l-2.3868-2.3868 0.68108-0.68159-0.68159 0.68108a0.9638 0.9638 0 0 1 0-1.3632 0.9638 0.9638 0 0 1 0.68108-0.28214z" />
    <path d="m14.834 41.541c-0.43901 0-0.79222 0.35321-0.79222 0.79222s0.35321 0.79274 0.79222 0.79274h22.668c0.43901 0 0.79222-0.35372 0.79222-0.79274s-0.35321-0.79222-0.79222-0.79222z"/>
    <path d="m86.53 37.079a0.9638 0.9638 0 0 1 0.68159 0.28214 0.9638 0.9638 0 0 0 5.1e-4 5.2e-4l3.7501 3.7501c0.33847 0.33847 0.50796 0.78041 0.50796 1.2221-1e-5 0.44171-0.16949 0.88364-0.50796 1.2221l-3.7501 3.7501a0.9638 0.9638 0 0 1-5.1e-4 5.2e-4 0.9638 0.9638 0 0 1-0.68159 0.28214 0.9638 0.9638 0 0 1-0.68108-0.28214 0.9638 0.9638 0 0 1 0-1.3632l0.68159 0.68109-0.68108-0.6816 2.3868-2.3868c0.33847-0.33848 0.50796-0.78041 0.50797-1.2221-1e-5 -0.44171-0.1695-0.88364-0.50797-1.2221l-2.3868-2.3868 0.68108-0.68159-0.68159 0.68108a0.9638 0.9638 0 0 1 0-1.3632 0.9638 0.9638 0 0 1 0.68108-0.28214z" />
    <path d="m56.401 41.541c-0.43901 0-0.79222 0.35321-0.79222 0.79222s0.35321 0.79274 0.79222 0.79274h22.668c0.43901 0 0.79222-0.35372 0.79222-0.79274s-0.35321-0.79222-0.79222-0.79222z"/>
    <path d="m98.761 40.749c-0.87516-3.4e-5 -1.5847 0.70928-1.585 1.5844-3.4e-5 0.87536 0.70959 1.585 1.585 1.585v5.17e-4h21.082v-5.17e-4c0.87536 3.1e-5 1.585-0.7096 1.585-1.585-2.5e-4 -0.87516-0.70979-1.5844-1.585-1.5844z"/>
    <path d="m12.156 29.766c-2.8777 0-5.2324 2.3064-5.2324 5.158l5.168e-4 14.819c0 2.8515 2.3546 5.158 5.2324 5.158h111.16c2.8777 0 5.2318-2.3064 5.2318-5.158l5.2e-4 -14.819c0-2.8515-2.3542-5.158-5.2318-5.158zm-5.17e-4 1.5881h111.16c2.0398 0 3.6464 1.5847 3.6464 3.5699l-1e-3 14.819c0 1.9854-1.6066 3.5699-3.6464 3.5699h-111.16c-2.0398 0-3.6464-1.5847-3.6464-3.5699l-0.00103-14.819c0-1.9854 1.6066-3.5699 3.6464-3.5699z"/>
</svg>
