<?xml version="1.0" encoding="UTF-8"?>
<!-- Created with Inkscape (http://www.inkscape.org/) -->
<svg width="512" height="320" version="1.1" viewBox="0 0 135.47 84.667" xml:space="preserve" xmlns="http://www.w3.org/2000/svg"><g fill-rule="evenodd"><path d="m24.811 29.765c-2.8778 0-5.2322 2.3067-5.2322 5.1583l5.17e-4 14.82c0 2.8516 2.3544 5.1583 5.2322 5.1583h85.843c2.8778 0 5.2322-2.3067 5.2322-5.1583l5.2e-4 -14.82c0-2.8516-2.3544-5.1583-5.2322-5.1583zm-5.17e-4 1.5885h25.284v21.959h-25.283c-2.0398 0-3.6463-1.5845-3.6463-3.5698l-1e-3 -14.82c0-1.9854 1.6064-3.5698 3.6463-3.5698zm26.87 0h32.104v21.959h-32.104zm33.69 0h25.284c2.0398 0 3.6463 1.5845 3.6463 3.5698l-1e-3 14.82c0 1.9854-1.6064 3.5698-3.6463 3.5698h-25.283z" stroke-width=".99998"/><path d="m31.049 36.165h3.7941q2.6401 0 3.8116 0.74257 1.1802 0.74257 1.1802 2.3458 0 1.0801-0.57699 1.7974-0.57698 0.71726-1.6611 0.9029v0.0844q1.3463 0.24472 1.9758 0.97041 0.63818 0.71726 0.63818 1.9492 0 1.6624-1.2065 2.6074-1.1977 0.93666-3.3395 0.93666h-4.6159zm2.0894 5.0968h2.0108q1.3114 0 1.9146-0.3966 0.60321-0.40504 0.60321-1.367 0-0.86915-0.65567-1.2573-0.64693-0.38816-2.0632-0.38816h-1.8097zm0 1.6371v3.9069h2.2206q1.3114 0 1.9758-0.48099 0.67315-0.48943 0.67315-1.5358 0-0.96197-0.68189-1.4261-0.68189-0.46411-2.072-0.46411z"/><path d="m95.256 36.165h3.7941q2.6401 0 3.8116 0.74257 1.1802 0.74257 1.1802 2.3458 0 1.0801-0.57699 1.7974-0.57698 0.71726-1.6611 0.9029v0.0844q1.3463 0.24472 1.9758 0.97041 0.63818 0.71726 0.63818 1.9492 0 1.6624-1.2065 2.6074-1.1977 0.93666-3.3395 0.93666h-4.6159zm2.0894 5.0968h2.0108q1.3114 0 1.9146-0.3966 0.60321-0.40504 0.60321-1.367 0-0.86915-0.65567-1.2573-0.64693-0.38816-2.0632-0.38816h-1.8097zm0 1.6371v3.9069h2.2206q1.3114 0 1.9758-0.48099 0.67315-0.48943 0.67315-1.5358 0-0.96197-0.68189-1.4261-0.68189-0.46411-2.072-0.46411z"/><path d="m63.152 36.165h3.7941q2.6401 0 3.8116 0.74257 1.1802 0.74257 1.1802 2.3458 0 1.0801-0.57699 1.7974-0.57698 0.71726-1.6611 0.9029v0.0844q1.3463 0.24472 1.9758 0.97041 0.63818 0.71726 0.63818 1.9492 0 1.6624-1.2065 2.6074-1.1977 0.93666-3.3395 0.93666h-4.6159zm2.0894 5.0968h2.0108q1.3114 0 1.9146-0.3966 0.60321-0.40504 0.60321-1.367 0-0.86915-0.65567-1.2573-0.64693-0.38816-2.0632-0.38816h-1.8097zm0 1.6371v3.9069h2.2206q1.3114 0 1.9758-0.48099 0.67315-0.48943 0.67315-1.5358 0-0.96197-0.68189-1.4261-0.68189-0.46411-2.072-0.46411z"/></g></svg>
