<?xml version="1.0" encoding="UTF-8"?>
<!-- Created with Inkscape (http://www.inkscape.org/) -->
<svg width="512" height="320" version="1.1" viewBox="0 0 135.47 84.667" xml:space="preserve" xmlns="http://www.w3.org/2000/svg"><g fill-rule="evenodd"><path d="m24.811 29.765c-2.8778 0-5.2322 2.3067-5.2322 5.1583l5.17e-4 14.819c0 2.8516 2.3544 5.1583 5.2322 5.1583h85.843c2.8778 0 5.2322-2.3067 5.2322-5.1583l5.2e-4 -14.819c0-2.8516-2.3544-5.1583-5.2322-5.1583zm-5.16e-4 1.588h85.845c2.0398 0 3.6463 1.585 3.6463 3.5703l-1e-3 14.819c0 1.9854-1.6064 3.5703-3.6463 3.5703h-85.843c-2.0398 0-3.6463-1.585-3.6463-3.5703l-1e-3 -14.819c0-1.9854 1.6064-3.5703 3.6463-3.5703z" stroke-width=".99998"/><path d="m32.676 36.177h3.7942q2.6402 0 3.8117 0.74259 1.1802 0.74259 1.1802 2.3459 0 1.0801-0.577 1.7974-0.577 0.71728-1.6611 0.90292v0.08438q1.3463 0.24472 1.9758 0.97043 0.6382 0.71728 0.6382 1.9493 0 1.6624-1.2065 2.6075-1.1977 0.93668-3.3396 0.93668h-4.616zm2.0895 5.0969h2.0108q1.3114 0 1.9146-0.39661 0.60323-0.40505 0.60323-1.367 0-0.86917-0.65569-1.2573-0.64694-0.38817-2.0632-0.38817h-1.8097zm0 1.6371v3.907h2.2206q1.3114 0 1.9758-0.481 0.67317-0.48944 0.67317-1.5358 0-0.96199-0.68191-1.4261-0.68191-0.46412-2.072-0.46412zm19.749-6.734v7.9829q0 1.367-0.61197 2.3965-0.60323 1.0211-1.7572 1.578-1.1453 0.54851-2.7451 0.54851-2.378 0-3.6981-1.2151-1.3201-1.2151-1.3201-3.3417v-7.9491h2.0982v7.8056q0 1.5274 0.73437 2.2531 0.73437 0.72571 2.2556 0.72571 2.955 0 2.955-2.9957v-7.7888zm7.6846 12.337h-2.0895v-10.607h-3.7593v-1.7299h9.608v1.7299h-3.7593zm10.491 0h-2.0895v-10.607h-3.7593v-1.7299h9.608v1.7299h-3.7593zm16.707-6.1854q0 3.0126-1.5649 4.6834-1.5562 1.6708-4.415 1.6708-2.8938 0-4.4499-1.654-1.5474-1.6624-1.5474-4.7171 0-3.0547 1.5562-4.6918 1.5649-1.6371 4.4587-1.6371 2.85 0 4.4062 1.6624 1.5562 1.6624 1.5562 4.6834zm-9.7566 0q0 2.2784 0.95293 3.4598 0.95293 1.173 2.8238 1.173 1.8621 0 2.8063-1.1645 0.95293-1.1645 0.95293-3.4682 0-2.27-0.94419-3.4429-0.93544-1.173-2.7976-1.173-1.8796 0-2.8413 1.173-0.95293 1.173-0.95293 3.4429zm23.15 6.1854h-2.5615l-6.2858-9.8309h-0.06994l0.04372 0.5485q0.12239 1.5696 0.12239 2.8691v6.4133h-1.8971v-12.337h2.5353l6.2684 9.7803h0.0525q-0.0175-0.19409-0.0699-1.4092-0.0525-1.2236-0.0525-1.9071v-6.4639h1.9146z" stroke-width=".34627" aria-label="BUTTON"/></g></svg>
