<?xml version="1.0" encoding="UTF-8"?>
<!-- Created with Inkscape (http://www.inkscape.org/) -->
<svg width="512" height="320" version="1.1" viewBox="0 0 135.47 84.667" xml:space="preserve" xmlns="http://www.w3.org/2000/svg"><g fill-rule="evenodd"><path d="m42.687 36.311a2.6457 2.6457 0 0 0-2.6458 2.6458 2.6457 2.6457 0 0 0 2.6458 2.6453 2.6457 2.6457 0 0 0 2.6458-2.6453 2.6457 2.6457 0 0 0-2.6458-2.6458zm12.523 0a2.6457 2.6457 0 0 0-2.6458 2.6458 2.6457 2.6457 0 0 0 2.6458 2.6453 2.6457 2.6457 0 0 0 2.6458-2.6453 2.6457 2.6457 0 0 0-2.6458-2.6458zm12.523 0a2.6457 2.6457 0 0 0-2.6458 2.6458 2.6457 2.6457 0 0 0 2.6458 2.6453 2.6457 2.6457 0 0 0 2.6458-2.6453 2.6457 2.6457 0 0 0-2.6458-2.6458zm12.524 0a2.6457 2.6457 0 0 0-2.6458 2.6458 2.6457 2.6457 0 0 0 2.6458 2.6453 2.6457 2.6457 0 0 0 2.6458-2.6453 2.6457 2.6457 0 0 0-2.6458-2.6458zm12.523 0a2.6457 2.6457 0 0 0-2.6458 2.6458 2.6457 2.6457 0 0 0 2.6458 2.6453 2.6457 2.6457 0 0 0 2.6458-2.6453 2.6457 2.6457 0 0 0-2.6458-2.6458zm-50.092 12.105a2.6457 2.6457 0 0 0-2.6458 2.6458 2.6457 2.6457 0 0 0 2.6458 2.6453 2.6457 2.6457 0 0 0 2.6458-2.6453 2.6457 2.6457 0 0 0-2.6458-2.6458zm12.523 0a2.6457 2.6457 0 0 0-2.6458 2.6458 2.6457 2.6457 0 0 0 2.6458 2.6453 2.6457 2.6457 0 0 0 2.6458-2.6453 2.6457 2.6457 0 0 0-2.6458-2.6458zm12.523 0a2.6457 2.6457 0 0 0-2.6458 2.6458 2.6457 2.6457 0 0 0 2.6458 2.6453 2.6457 2.6457 0 0 0 2.6458-2.6453 2.6457 2.6457 0 0 0-2.6458-2.6458zm12.524 0a2.6457 2.6457 0 0 0-2.6458 2.6458 2.6457 2.6457 0 0 0 2.6458 2.6453 2.6457 2.6457 0 0 0 2.6458-2.6453 2.6457 2.6457 0 0 0-2.6458-2.6458zm12.523 0a2.6457 2.6457 0 0 0-2.6458 2.6458 2.6457 2.6457 0 0 0 2.6458 2.6453 2.6457 2.6457 0 0 0 2.6458-2.6453 2.6457 2.6457 0 0 0-2.6458-2.6458zm-50.092 12.105a2.6457 2.6457 0 0 0-2.6458 2.6458 2.6457 2.6457 0 0 0 2.6458 2.6453 2.6457 2.6457 0 0 0 2.6458-2.6453 2.6457 2.6457 0 0 0-2.6458-2.6458zm12.523 0a2.6457 2.6457 0 0 0-2.6458 2.6458 2.6457 2.6457 0 0 0 2.6458 2.6453 2.6457 2.6457 0 0 0 2.6458-2.6453 2.6457 2.6457 0 0 0-2.6458-2.6458zm12.523 0a2.6457 2.6457 0 0 0-2.6458 2.6458 2.6457 2.6457 0 0 0 2.6458 2.6453 2.6457 2.6457 0 0 0 2.6458-2.6453 2.6457 2.6457 0 0 0-2.6458-2.6458zm12.524 0a2.6457 2.6457 0 0 0-2.6458 2.6458 2.6457 2.6457 0 0 0 2.6458 2.6453 2.6457 2.6457 0 0 0 2.6458-2.6453 2.6457 2.6457 0 0 0-2.6458-2.6458zm12.523 0a2.6457 2.6457 0 0 0-2.6458 2.6458 2.6457 2.6457 0 0 0 2.6458 2.6453 2.6457 2.6457 0 0 0 2.6458-2.6453 2.6457 2.6457 0 0 0-2.6458-2.6458z" stroke-width=".99998"/><path d="m53.221 8.3333v0.0015503h-19.943c-2.8777 0-5.2317 2.3059-5.2317 5.1573v13.888 29.904 13.888c0 2.8514 2.354 5.1573 5.2317 5.1573h19.943v0.001033h29.026v-0.001033h19.943c2.8777 0 5.2317-2.3059 5.2317-5.1573v-13.888-29.904-13.888c0-2.8514-2.354-5.1573-5.2317-5.1573h-19.943v-0.0015503h-29.026zm-19.943 1.5865h19.943v0.0010335h29.026v-0.0010335h19.943c2.0398 0 3.6458 1.587 3.6458 3.5724v12.303h-23.589-29.026-23.589v-12.303c0-1.9854 1.6059-3.5724 3.6458-3.5724zm-3.6458 17.46h23.589v0.002584h29.026v-0.002584h23.589v29.904 13.888c0 1.9854-1.6059 3.5724-3.6458 3.5724h-19.943v-0.001551h-29.026v0.001551h-19.943c-2.0398 0-3.6458-1.587-3.6458-3.5724v-13.888-29.904z" stroke-width=".99996"/><path d="m43.353 12.603a0.96382 0.96382 0 0 0-0.68161 0.28215 0.96382 0.96382 0 0 1-5.16e-4 5.16e-4l-3.7502 3.7502c-0.33848 0.33848-0.50797 0.78043-0.50798 1.2221 1.2e-5 0.44172 0.1695 0.88367 0.50798 1.2221l3.7502 3.7502a0.96382 0.96382 0 0 0 5.16e-4 5.16e-4 0.96382 0.96382 0 0 0 0.68161 0.28215 0.96382 0.96382 0 0 0 0.6811-0.28215 0.96382 0.96382 0 0 0 0-1.3632l-0.68161 0.6811 0.6811-0.68161-2.3869-2.3869c-0.33848-0.33849-0.50797-0.78043-0.50798-1.2221 7e-6 -0.44172 0.1695-0.88366 0.50798-1.2221l2.3869-2.3869-0.6811-0.68161 0.68161 0.6811a0.96382 0.96382 0 0 0 0-1.3632 0.96382 0.96382 0 0 0-0.6811-0.28215z" stroke-width=".99998"/><path d="m92.114 12.603a0.96382 0.96382 0 0 1 0.68161 0.28215 0.96382 0.96382 0 0 0 5.16e-4 5.16e-4l3.7502 3.7502c0.33848 0.33848 0.50797 0.78043 0.50798 1.2221-1e-5 0.44172-0.1695 0.88367-0.50798 1.2221l-3.7502 3.7502a0.96382 0.96382 0 0 1-5.16e-4 5.16e-4 0.96382 0.96382 0 0 1-0.68161 0.28215 0.96382 0.96382 0 0 1-0.6811-0.28215 0.96382 0.96382 0 0 1 0-1.3632l0.68161 0.6811-0.6811-0.68161 2.3869-2.3869c0.33848-0.33849 0.50797-0.78043 0.50798-1.2221-7e-6 -0.44172-0.1695-0.88366-0.50798-1.2221l-2.3869-2.3869 0.6811-0.68161-0.68161 0.6811a0.96382 0.96382 0 0 1 0-1.3632 0.96382 0.96382 0 0 1 0.6811-0.28215z" stroke-width=".99998"/><rect x="52.564" y="17.065" width="30.338" height="1.5849" rx=".79246" ry=".79246"/></g></svg>
