<?xml version="1.0" encoding="UTF-8"?>
<!-- Created with Inkscape (http://www.inkscape.org/) -->
<svg width="512" height="320" version="1.1" viewBox="0 0 135.47 84.667" xml:space="preserve" xmlns="http://www.w3.org/2000/svg"><g fill-rule="evenodd"><path d="m12.904 8.3359c-2.8778 0-5.2302 2.3062-5.2302 5.1578v7.7385 46.415 3.5254c0 2.8516 2.3522 5.1578 5.2302 5.1578h109.66c2.8778 0 5.2322-2.3062 5.2322-5.1578v-3.5254-46.415-7.7385c0-2.8516-2.3544-5.1578-5.2322-5.1578h-109.66zm0 1.5859h109.66c2.0398 0 3.6463 1.5864 3.6463 3.5719v7.7385 46.415 3.5254c0 1.9854-1.6064 3.5703-3.6463 3.5703h-109.66c-2.0398 0-3.6442-1.585-3.6442-3.5703v-3.5254-46.415-7.7385c0-1.9854 1.6044-3.5719 3.6442-3.5719z" stroke-width=".99998"/><circle cx="27.251" cy="27.914" r="10.054"/><path d="m45.928 27.12h71.657c0.37941 0 0.68485 0.35412 0.68485 0.79399s-0.30544 0.79399-0.68485 0.79399h-71.657c-0.3794 0-0.68485-0.35412-0.68485-0.79399s0.30545-0.79399 0.68485-0.79399z" stroke-width="3.4526"/><path d="m18.145 49.168h99.177c0.52513 0 0.94787 0.35412 0.94787 0.79399s-0.42274 0.79399-0.94787 0.79399h-99.177c-0.52512 0-0.94787-0.35412-0.94787-0.79399s0.42275-0.79399 0.94787-0.79399z" stroke-width="4.0618"/><path d="m18.145 61.955h99.177c0.52513 0 0.94787 0.35412 0.94787 0.79399s-0.42274 0.79399-0.94787 0.79399h-99.177c-0.52512 0-0.94787-0.35412-0.94787-0.79399s0.42275-0.79399 0.94787-0.79399z" stroke-width="4.0618"/></g></svg>
