<?xml version="1.0" encoding="UTF-8"?>
<!-- Created with Inkscape (http://www.inkscape.org/) -->
<svg width="512" height="320" version="1.1" viewBox="0 0 135.47 84.667" xml:space="preserve" xmlns="http://www.w3.org/2000/svg"><path d="m12.904 8.3369c-2.8777 0-5.2301 2.3061-5.2301 5.1577v57.677c0 2.8515 2.3521 5.1577 5.2301 5.1577h109.66c2.8777 0 5.2321-2.3061 5.2321-5.1577v-57.677c0-2.8515-2.3543-5.1577-5.2321-5.1577zm0 1.5859h109.66c2.0398 0 3.6462 1.5864 3.6462 3.5718v57.677c0 1.9854-1.6064 3.5702-3.6462 3.5702h-109.66c-2.0398 0-3.6441-1.585-3.6441-3.5702v-57.677c0-1.9854 1.6044-3.5718 3.6441-3.5718z" fill-rule="evenodd" stroke-width=".99996"/><path d="m20.919 46.573a0.77752 0.77752 0 0 1-0.54985-0.22762 0.77752 0.77752 0 0 0-4.2e-4 -4.2e-4l-3.0253-3.0253c-0.27305-0.27305-0.40979-0.62958-0.40979-0.9859 0-0.35635 0.13673-0.71285 0.40979-0.9859l3.0253-3.0253a0.77752 0.77752 0 0 1 4.2e-4 -4.2e-4 0.77752 0.77752 0 0 1 0.54985-0.22761 0.77752 0.77752 0 0 1 0.54945 0.22761 0.77752 0.77752 0 0 1 0 1.0997l-0.54986-0.54945 0.54944 0.54986-1.9255 1.9255c-0.27305 0.27306-0.40978 0.62958-0.40979 0.9859 0 0.35635 0.13674 0.71285 0.40979 0.9859l1.9255 1.9255-0.54944 0.54985 0.54986-0.54945a0.77752 0.77752 0 0 1 0 1.0997 0.77752 0.77752 0 0 1-0.54945 0.22761z"/><path d="m114.55 38.094a0.77752 0.77752 0 0 1 0.54985 0.22762 0.77752 0.77752 0 0 0 4.2e-4 4.2e-4l3.0253 3.0253c0.27305 0.27305 0.40979 0.62958 0.40979 0.9859 0 0.35635-0.13673 0.71285-0.40979 0.9859l-3.0253 3.0253a0.77752 0.77752 0 0 1-4.2e-4 4.2e-4 0.77752 0.77752 0 0 1-0.54985 0.22761 0.77752 0.77752 0 0 1-0.54945-0.22761 0.77752 0.77752 0 0 1 0-1.0997l0.54986 0.54945-0.54944-0.54986 1.9255-1.9255c0.27305-0.27306 0.40978-0.62958 0.40979-0.9859 0-0.35635-0.13674-0.71285-0.40979-0.9859l-1.9255-1.9255 0.54944-0.54985-0.54986 0.54945a0.77752 0.77752 0 0 1 0-1.0997 0.77752 0.77752 0 0 1 0.54945-0.22761z"/><circle cx="58.135" cy="64.668" r="2.4"/><circle cx="77.335" cy="64.668" r="2.4"/><circle cx="67.735" cy="64.668" r="2.4"/></svg>
