<?xml version="1.0" encoding="UTF-8"?>
<!-- Created with Inkscape (http://www.inkscape.org/) -->
<svg width="512" height="320" version="1.1" viewBox="0 0 135.47 84.667" xml:space="preserve" xmlns="http://www.w3.org/2000/svg"><g fill-rule="evenodd"><path d="m22.427 32.279c-2.8778 0-5.2302 2.3062-5.2302 5.1578v9.7203c0 2.8778 2.3062 5.2302 5.1578 5.2302h9.7203c2.8778 0 5.2302-2.3062 5.2302-5.1578v-9.7203c0-2.8778-2.3062-5.2302-5.1578-5.2302zm0 1.586h9.7203c1.9854 0 3.5719 1.6044 3.5719 3.6442v9.7203c0 1.9854-1.6044 3.5719-3.6442 3.5719h-9.7203c-1.9854 0-3.5719-1.6044-3.5719-3.6442v-9.7203c0-1.9854 1.6044-3.5719 3.6442-3.5719z" stroke-width=".99998"/><path d="m45.928 41.539h71.657c0.37941 0 0.68485 0.35412 0.68485 0.79399s-0.30544 0.79399-0.68485 0.79399h-71.657c-0.3794 0-0.68485-0.35412-0.68485-0.79399s0.30545-0.79399 0.68485-0.79399z" stroke-width="3.4526"/><path d="m33.621 37.539a0.96382 0.96382 0 0 0-0.93079 0.24921 0.96382 0.96382 0 0 1-7.58e-4 8.32e-4l-6.138 6.1379c-0.67698 0.67698-1.7668 0.67699-2.4439 5e-6l-1.7059-1.7058a0.96382 0.96382 0 0 1 1.34e-4 -5e-4 0.96382 0.96382 0 0 0-0.43291-0.24921 0.96382 0.96382 0 0 0-0.93079 0.24921 0.96382 0.96382 0 0 0 1.33e-4 1.3632 0.96382 0.96382 0 0 1 8.32e-4 7.58e-4l1.34e-4 -4.99e-4 3.0688 3.0687c0.67699 0.67698 1.7669 0.67698 2.4439-4e-6l7.4997-7.5a0.96382 0.96382 0 0 0 0.0021-0.0016 0.96382 0.96382 0 0 0-1.33e-4 -1.3632l-1.33e-4 4.99e-4a0.96382 0.96382 0 0 0-0.43231-0.24952z" stroke-width=".99998"/></g></svg>
