<?xml version="1.0" encoding="UTF-8"?>
<!-- Created with Inkscape (http://www.inkscape.org/) -->
<svg width="512" height="320" version="1.1" viewBox="0 0 135.47 84.667" xml:space="preserve" xmlns="http://www.w3.org/2000/svg"><g transform="matrix(.79297 0 0 .79297 27.111 32.82)" stroke-linecap="round" stroke-linejoin="round" stroke-width="2"><path d="m12 1c-6.0633 0-11 4.9367-11 11s4.9367 11 11 11 11-4.9367 11-11-4.9367-11-11-11zm0 2c4.9824 0 9 4.0176 9 9s-4.0176 9-9 9-9-4.0176-9-9 4.0176-9 9-9z" stop-color="#000000"/><path d="m12 6.6615a1.001 1.1122 0 0 0-1.001 1.1122v4.4488a1.001 1.1122 0 0 0 1.001 1.1122 1.001 1.1122 0 0 0 1.001-1.1122v-4.4488a1.001 1.1122 0 0 0-1.001-1.1122z" stop-color="#000000"/><path d="m11.995 15.337a0.9961 1.001 0 0 0-0.9961 1.001 0.9961 1.001 0 0 0 0.9961 1.001h0.0098a0.9961 1.001 0 0 0 0.9961-1.001 0.9961 1.001 0 0 0-0.9961-1.001z" stop-color="#000000"/></g><path d="m51.735 41.542c-0.43988 0-0.79377 0.35441-0.79377 0.79429s0.35389 0.79377 0.79377 0.79377h19.429v-1.5881z"/><path d="m36.228 28.71c-7.5337 0-13.623 6.0892-13.623 13.623 0 7.5337 6.0892 13.623 13.623 13.623h63.013c7.5336 0 13.623-6.0896 13.623-13.623 0-7.5336-6.089-13.623-13.623-13.623zm0 1.5881h52.304v24.07h-52.304c-6.6816 0-12.035-5.3537-12.035-12.035s5.3532-12.035 12.035-12.035zm53.892 0h9.1216c6.6815 0 12.035 5.3532 12.035 12.035s-5.3531 12.035-12.035 12.035h-9.1216z"/><path d="m63.284 41.542v1.5881h18.862c0.43988 0 0.79429-0.3544 0.79429-0.79428s-0.35441-0.79377-0.79429-0.79377z"/><path d="m103.77 38.836a0.75951 0.75951 0 0 0-1.074 3.7e-4 0.75951 0.75951 0 0 0-7.3e-4 7.3e-4l-2.4337 2.4337-2.3748-2.3748a0.75951 0.75951 0 0 0-1.0743 0 0.75951 0.75951 0 0 0 3.63e-4 1.074 0.75951 0.75951 0 0 0 0.12424 0.10085l2.2623 2.2623-2.4223 2.4223a0.75951 0.75951 0 0 0-3.71e-4 1.074 0.75951 0.75951 0 0 0 1.0743-1e-5 0.75951 0.75951 0 0 0 0.0091-9e-3l2.4132-2.4132 2.3807 2.3807a0.75951 0.75951 0 0 0 1.0743 0 0.75951 0.75951 0 0 0 1e-5 -1.0743 0.75951 0.75951 0 0 0-0.12461-0.10049l-2.2681-2.2681 2.4253-2.4253a0.75951 0.75951 0 0 0 9e-3 -9e-3 0.75951 0.75951 0 0 0 0-1.0743z" fill-rule="evenodd"/></svg>
