<?xml version="1.0" encoding="UTF-8"?>
<!-- Created with Inkscape (http://www.inkscape.org/) -->
<svg width="512" height="320" version="1.1" viewBox="0 0 135.47 84.667" xml:space="preserve" xmlns="http://www.w3.org/2000/svg"><g fill-rule="evenodd"><g stroke-width=".99998"><path d="m12.904 8.3358c-2.8778 0-5.2304 2.3064-5.2304 5.1581v8.7322c0 2.8516 2.3524 5.1581 5.2304 5.1581h109.66c2.8778 0 5.2323-2.3064 5.2323-5.1581v-8.7322c0-2.8516-2.3544-5.1581-5.2323-5.1581zm0 1.5859h109.66c2.0398 0 3.6464 1.5868 3.6464 3.5722v8.7322c0 1.9854-1.6066 3.5702-3.6464 3.5702h-109.66c-2.0398 0-3.6444-1.5849-3.6444-3.5702v-8.7322c0-1.9854 1.6046-3.5722 3.6444-3.5722z" stop-color="#000000"/><path d="m119.57 13.315a0.96382 0.96382 0 0 0-1.3631 0 0.96382 0.96382 0 0 1-5.3e-4 5.4e-4l-6.138 6.1379c-0.67698 0.67698-1.7669 0.67698-2.4439 0l-6.138-6.1379a0.96382 0.96382 0 0 1-5.3e-4 -5.4e-4 0.96382 0.96382 0 0 0-1.3631 0 0.96382 0.96382 0 0 0 0 1.3631 0.96382 0.96382 0 0 1 5.4e-4 5.3e-4l7.501 7.501c0.67699 0.67698 1.767 0.67698 2.4439 0l7.4999-7.4999a0.96382 0.96382 0 0 0 2e-3 -2e-3 0.96382 0.96382 0 0 0 0-1.3631z"/><path d="m72.703 76.33c-2.8778 0-5.2322-2.3063-5.2322-5.1578v-35.521c0-2.8515 2.3544-5.1578 5.2322-5.1578h49.858c2.8778 0 5.2322 2.3063 5.2322 5.1578v35.521c0 2.8515-2.3544 5.1578-5.2322 5.1578zm5.17e-4 -1.586h49.857c2.0398 0 3.6463-1.587 3.6463-3.5724v-6.4818h-57.15v6.4818c0 1.9853 1.6064 3.5724 3.6463 3.5724zm-3.6463-11.642h57.15v-27.451c0-1.9854-1.6064-3.5724-3.6463-3.5724h-49.857c-2.0398 0-3.6463 1.587-3.6463 3.5724v27.451z"/></g><path d="m78.847 56.289a2.6458 2.6458 0 0 1-2.6458-2.6458 2.6458 2.6458 0 0 1 2.6458-2.6458 2.6458 2.6458 0 0 1 2.6458 2.6458 2.6458 2.6458 0 0 1-2.6458 2.6458zm12.523 0a2.6458 2.6458 0 0 1-2.6458-2.6458 2.6458 2.6458 0 0 1 2.6458-2.6458 2.6458 2.6458 0 0 1 2.6458 2.6458 2.6458 2.6458 0 0 1-2.6458 2.6458zm12.523 0a2.6458 2.6458 0 0 1-2.6458-2.6458 2.6458 2.6458 0 0 1 2.6458-2.6458 2.6458 2.6458 0 0 1 2.6458 2.6458 2.6458 2.6458 0 0 1-2.6458 2.6458zm12.524 0a2.6458 2.6458 0 0 1-2.6458-2.6458 2.6458 2.6458 0 0 1 2.6458-2.6458 2.6458 2.6458 0 0 1 2.6458 2.6458 2.6458 2.6458 0 0 1-2.6458 2.6458zm-37.57-12.105a2.6458 2.6458 0 0 1-2.6458-2.6458 2.6458 2.6458 0 0 1 2.6458-2.6458 2.6458 2.6458 0 0 1 2.6458 2.6458 2.6458 2.6458 0 0 1-2.6458 2.6458zm12.523 0a2.6458 2.6458 0 0 1-2.6458-2.6458 2.6458 2.6458 0 0 1 2.6458-2.6458 2.6458 2.6458 0 0 1 2.6458 2.6458 2.6458 2.6458 0 0 1-2.6458 2.6458zm12.523 0a2.6458 2.6458 0 0 1-2.6458-2.6458 2.6458 2.6458 0 0 1 2.6458-2.6458 2.6458 2.6458 0 0 1 2.6458 2.6458 2.6458 2.6458 0 0 1-2.6458 2.6458zm12.524 0a2.6458 2.6458 0 0 1-2.6458-2.6458 2.6458 2.6458 0 0 1 2.6458-2.6458 2.6458 2.6458 0 0 1 2.6458 2.6458 2.6458 2.6458 0 0 1-2.6458 2.6458z"/><g transform="matrix(.44822 0 0 .44822 64.067 50.848)" stroke-width="1.0178"><path d="m95.226 48.468-3.7067-10.303h-0.06994q0.14862 2.2953 0.14862 4.3036v5.9998h-1.8971v-12.337h2.9461l3.5494 9.814h0.05245l3.6543-9.814h2.9549v12.337h-2.0107v-6.1011q0-0.9198 0.0437-2.3965 0.0524-1.4767 0.0874-1.789h-0.0699l-3.8379 10.287z"/><path d="m85.793 48.468-1.2764-3.426h-4.8869l-1.2501 3.426h-2.2031l4.782-12.388h2.273l4.782 12.388zm-1.8271-5.1644-1.1977-3.3585q-0.13113-0.33754-0.36718-1.0633-0.2273-0.72571-0.31472-1.0633-0.23604 1.0379-0.69064 2.27l-1.154 3.2151z"/><path d="m68.125 48.468h-2.0544v-7.966q0-1.4261 0.06994-2.2615-0.20107 0.20252-0.49831 0.44724-0.2885 0.24472-1.9583 1.5527l-1.0316-1.2573 3.7592-2.8522h1.7135z"/><path d="m60.056 38.966q0 1.173-0.70813 1.9577-0.70812 0.77634-1.9932 1.0464v0.06751q1.5386 0.18565 2.308 0.92824 0.76932 0.73415 0.76932 1.9577 0 1.7805-1.3026 2.751-1.3026 0.96199-3.7067 0.96199-2.1244 0-3.5843-0.66664v-1.7637q0.81303 0.38817 1.7222 0.59914 0.9092 0.21096 1.7485 0.21096 1.4862 0 2.2205-0.53163 0.73435-0.53163 0.73435-1.6455 0-0.98731-0.81303-1.4514-0.81303-0.46412-2.5527-0.46412h-1.1103v-1.6118h1.1278q3.0598 0 3.0598-2.0421 0-0.79322-0.53328-1.2236-0.53328-0.43036-1.5736-0.43036-0.72561 0-1.3988 0.20252-0.67316 0.19409-1.5911 0.76791l-1.0054-1.3839q1.7572-1.2489 4.0826-1.2489 1.932 0 3.0161 0.80166 1.084 0.80166 1.084 2.2109z"/><path d="m47.327 40.207q0-1.2742 1.2939-1.2742 0.65567 0 0.97914 0.33754t0.32346 0.93668q0 0.59914-0.34095 0.95355-0.33221 0.34598-0.96165 0.34598t-0.96165-0.34598-0.33221-0.95355z"/><path d="m47.327 47.413q0-0.61601 0.33221-0.94511t0.96165-0.3291q0.63819 0 0.97039 0.34598 0.33221 0.33754 0.33221 0.92824 0 0.59914-0.34095 0.95355-0.33221 0.34598-0.96165 0.34598t-0.96165-0.34598-0.33221-0.95355z"/><path d="m42.764 48.468h-2.0544v-7.966q0-1.4261 0.06994-2.2615-0.20107 0.20252-0.49831 0.44724-0.2885 0.24472-1.9583 1.5527l-1.0316-1.2573 3.7592-2.8522h1.7135z"/><path d="m32.544 48.468h-2.0544v-7.966q0-1.4261 0.06994-2.2615-0.20107 0.20252-0.49831 0.44724-0.2885 0.24472-1.9583 1.5527l-1.0316-1.2573 3.7592-2.8522h1.7135z"/></g></g></svg>
