<?xml version="1.0" encoding="UTF-8"?>
<!-- Created with Inkscape (http://www.inkscape.org/) -->
<svg width="512" height="320" version="1.1" viewBox="0 0 135.47 84.667" xml:space="preserve" xmlns="http://www.w3.org/2000/svg"><g fill-rule="evenodd"><g stroke-width=".99998"><path d="m12.904 8.3358c-2.8778 0-5.2304 2.3064-5.2304 5.1581v8.7322c0 2.8516 2.3524 5.1581 5.2304 5.1581h109.66c2.8778 0 5.2323-2.3064 5.2323-5.1581v-8.7322c0-2.8516-2.3544-5.1581-5.2323-5.1581zm0 1.5859h109.66c2.0398 0 3.6464 1.5868 3.6464 3.5722v8.7322c0 1.9854-1.6066 3.5702-3.6464 3.5702h-109.66c-2.0398 0-3.6444-1.5849-3.6444-3.5702v-8.7322c0-1.9854 1.6046-3.5722 3.6444-3.5722z" stop-color="#000000"/><path d="m119.57 13.315a0.96382 0.96382 0 0 0-1.3631 0 0.96382 0.96382 0 0 1-5.3e-4 5.4e-4l-6.138 6.1379c-0.67698 0.67698-1.7669 0.67698-2.4439 0l-6.138-6.1379a0.96382 0.96382 0 0 1-5.3e-4 -5.4e-4 0.96382 0.96382 0 0 0-1.3631 0 0.96382 0.96382 0 0 0 0 1.3631 0.96382 0.96382 0 0 1 5.4e-4 5.3e-4l7.501 7.501c0.67699 0.67698 1.767 0.67698 2.4439 0l7.4999-7.4999a0.96382 0.96382 0 0 0 2e-3 -2e-3 0.96382 0.96382 0 0 0 0-1.3631z"/><path d="m72.703 30.493c-2.8778 0-5.2322 2.3063-5.2322 5.1578v15.743 4.0354 15.743c0 2.8515 2.3544 5.1578 5.2322 5.1578h49.858c2.8778 0 5.2322-2.3063 5.2322-5.1578v-15.743-4.0354-15.743c0-2.8515-2.3544-5.1578-5.2322-5.1578h-49.858zm5.17e-4 1.586h49.857c2.0398 0 3.6463 1.587 3.6463 3.5724v6.4818h-57.15v-6.4818c0-1.9853 1.6064-3.5724 3.6463-3.5724zm-3.6463 11.642h57.15v7.6729 4.0354 15.743c0 1.9854-1.6064 3.5724-3.6463 3.5724h-49.857c-2.0398 0-3.6463-1.587-3.6463-3.5724v-15.743-4.0354-7.6729z"/></g><path d="m78.847 50.534a2.6458 2.6458 0 0 0-2.6458 2.6458 2.6458 2.6458 0 0 0 2.6458 2.6458 2.6458 2.6458 0 0 0 2.6458-2.6458 2.6458 2.6458 0 0 0-2.6458-2.6458zm12.523 0a2.6458 2.6458 0 0 0-2.6458 2.6458 2.6458 2.6458 0 0 0 2.6458 2.6458 2.6458 2.6458 0 0 0 2.6458-2.6458 2.6458 2.6458 0 0 0-2.6458-2.6458zm12.523 0a2.6458 2.6458 0 0 0-2.6458 2.6458 2.6458 2.6458 0 0 0 2.6458 2.6458 2.6458 2.6458 0 0 0 2.6458-2.6458 2.6458 2.6458 0 0 0-2.6458-2.6458zm12.524 0a2.6458 2.6458 0 0 0-2.6458 2.6458 2.6458 2.6458 0 0 0 2.6458 2.6458 2.6458 2.6458 0 0 0 2.6458-2.6458 2.6458 2.6458 0 0 0-2.6458-2.6458zm-37.57 12.105a2.6458 2.6458 0 0 0-2.6458 2.6458 2.6458 2.6458 0 0 0 2.6458 2.6458 2.6458 2.6458 0 0 0 2.6458-2.6458 2.6458 2.6458 0 0 0-2.6458-2.6458zm12.523 0a2.6458 2.6458 0 0 0-2.6458 2.6458 2.6458 2.6458 0 0 0 2.6458 2.6458 2.6458 2.6458 0 0 0 2.6458-2.6458 2.6458 2.6458 0 0 0-2.6458-2.6458zm12.523 0a2.6458 2.6458 0 0 0-2.6458 2.6458 2.6458 2.6458 0 0 0 2.6458 2.6458 2.6458 2.6458 0 0 0 2.6458-2.6458 2.6458 2.6458 0 0 0-2.6458-2.6458zm12.524 0a2.6458 2.6458 0 0 0-2.6458 2.6458 2.6458 2.6458 0 0 0 2.6458 2.6458 2.6458 2.6458 0 0 0 2.6458-2.6458 2.6458 2.6458 0 0 0-2.6458-2.6458z"/></g></svg>
