<?xml version="1.0" encoding="UTF-8"?>
<!-- Created with Inkscape (http://www.inkscape.org/) -->
<svg width="512" height="320" version="1.1" viewBox="0 0 135.47 84.667" xml:space="preserve" xmlns="http://www.w3.org/2000/svg"><g fill-rule="evenodd"><path d="m53.221 8.3333v0.0015503h-19.943c-2.8777 0-5.2317 2.3059-5.2317 5.1573v13.888 29.904 13.888c0 2.8514 2.354 5.1573 5.2317 5.1573h19.943v0.001033h29.026v-0.001033h19.943c2.8777 0 5.2317-2.3059 5.2317-5.1573v-13.888-29.904-13.888c0-2.8514-2.354-5.1573-5.2317-5.1573h-19.943v-0.0015503h-29.026zm-19.943 1.5865h19.943v0.0010335h29.026v-0.0010335h19.943c2.0398 0 3.6458 1.587 3.6458 3.5724v12.303h-23.589-29.026-23.589v-12.303c0-1.9854 1.6059-3.5724 3.6458-3.5724zm-3.6458 17.46h23.589v0.002584h29.026v-0.002584h23.589v29.904 13.888c0 1.9854-1.6059 3.5724-3.6458 3.5724h-19.943v-0.001551h-29.026v0.001551h-19.943c-2.0398 0-3.6458-1.587-3.6458-3.5724v-13.888-29.904z" stroke-width=".99996"/><rect x="35.982" y="17.065" width="46.921" height="1.5849" rx=".79246" ry=".79246"/><path d="m92.113 12.604c-0.24687 2.04e-4 -0.49338 0.094-0.68058 0.28112-0.37652 0.37641-0.37652 0.98681 0 1.3632l3.6096 3.6096-3.6096 3.6096c-0.37651 0.37641-0.37651 0.98681 0 1.3632 0.37553 0.37537 0.98717 0.37539 1.3627 0l3.6101-3.6101 3.6096 3.6096 5.2e-4 5.17e-4c0.37554 0.37539 0.98717 0.37537 1.3627 0 0.37651-0.37641 0.37651-0.98681 0-1.3632l-5.2e-4 -5.17e-4 -3.6091-3.6091 3.6091-3.6091 5.2e-4 -5.17e-4c0.37651-0.37641 0.37651-0.98681 0-1.3632-0.3744-0.37425-0.98659-0.37595-1.3627 0l-5.2e-4 5.17e-4 -3.6096 3.6096-3.6101-3.6101c-0.18805-0.18798-0.43526-0.28132-0.68213-0.28112z" stroke-width=".99998"/><path d="m86.194 60.062c-2.8777 0-5.2317 2.3059-5.2317 5.1573v0.19379c0 2.8514 2.354 5.1573 5.2317 5.1573h10.222c2.8777 0 5.2317-2.3059 5.2317-5.1573v-0.19379c0-2.8514-2.354-5.1573-5.2317-5.1573zm0 1.5849h10.222c2.0398 0 3.6458 1.587 3.6458 3.5724v0.19379c0 1.9854-1.6059 3.5724-3.6458 3.5724h-10.222c-2.0398 0-3.6458-1.587-3.6458-3.5724v-0.19379c0-1.9854 1.6059-3.5724 3.6458-3.5724z" stroke-width=".99996"/><path d="m61.322 60.062c-2.8777 0-5.2317 2.3059-5.2317 5.1573v0.19379c0 2.8514 2.354 5.1573 5.2317 5.1573h10.222c2.8777 0 5.2317-2.3059 5.2317-5.1573v-0.19379c0-2.8514-2.354-5.1573-5.2317-5.1573h-10.222z" stroke-width=".99996"/><rect x="35.982" y="37.219" width="63.503" height="1.5849" rx=".79246" ry=".79246"/><rect x="35.982" y="48.641" width="63.503" height="1.5849" rx=".79246" ry=".79246"/></g></svg>
