<?xml version="1.0" encoding="UTF-8"?>
<svg width="512" height="320" version="1.1" viewBox="0 0 135.47 84.667" xml:space="preserve" xmlns="http://www.w3.org/2000/svg"><path d="m67.735 7.9373a34.396 34.396 0 0 0-16.506 4.2195l6.6173 11.462a21.167 21.167 0 0 1 9.8885-2.4516 21.167 21.167 0 0 1 21.152 20.373h13.235a34.396 34.396 0 0 0-34.387-33.602zm-17.881 5.0133a34.396 34.396 0 0 0-16.515 29.383 34.396 34.396 0 0 0 16.515 29.383l6.6173-11.462a21.167 21.167 0 0 1-9.903-17.921 21.167 21.167 0 0 1 9.903-17.921l-6.6173-11.462zm39.033 30.177a21.167 21.167 0 0 1-21.152 20.373 21.167 21.167 0 0 1-9.8885-2.4516l-6.6173 11.462a34.396 34.396 0 0 0 16.506 4.2195 34.396 34.396 0 0 0 34.387-33.602h-13.235z" stroke-width=".79092"/></svg>
