<?xml version="1.0" encoding="UTF-8"?>
<!-- Created with Inkscape (http://www.inkscape.org/) -->
<svg width="512" height="320" version="1.1" viewBox="0 0 135.47 84.667" xml:space="preserve" xmlns="http://www.w3.org/2000/svg"><g fill-rule="evenodd"><rect x="7.6734" y="13.099" width="63.503" height="1.5849" rx=".79246" ry=".79246"/><path d="m12.904 20.11c-2.8778 0-5.2304 2.3064-5.2304 5.1581v8.7322c0 2.8516 2.3524 5.1581 5.2304 5.1581h109.66c2.8778 0 5.2323-2.3064 5.2323-5.1581v-8.7322c0-2.8516-2.3544-5.1581-5.2323-5.1581zm0 1.5859h109.66c2.0398 0 3.6464 1.5868 3.6464 3.5722v8.7322c0 1.9854-1.6066 3.5702-3.6464 3.5702h-109.66c-2.0398 0-3.6444-1.5849-3.6444-3.5702v-8.7322c0-1.9854 1.6046-3.5722 3.6444-3.5722z" stop-color="#000000" stroke-width=".99998"/><rect x="7.6734" y="45.508" width="46.921" height="1.5849" rx=".79246" ry=".79246"/><path d="m12.904 52.519c-2.8778 0-5.2304 2.3064-5.2304 5.1581v8.7322c0 2.8516 2.3524 5.1581 5.2304 5.1581h109.66c2.8778 0 5.2323-2.3064 5.2323-5.1581v-8.7322c0-2.8516-2.3544-5.1581-5.2323-5.1581zm0 1.5859h109.66c2.0398 0 3.6464 1.5868 3.6464 3.5722v8.7322c0 1.9854-1.6066 3.5702-3.6464 3.5702h-109.66c-2.0398 0-3.6444-1.5849-3.6444-3.5702v-8.7322c0-1.9854 1.6046-3.5722 3.6444-3.5722z" stop-color="#000000" stroke-width=".99998"/></g></svg>
