<?xml version="1.0" encoding="UTF-8"?>
<!-- Created with Inkscape (http://www.inkscape.org/) -->
<svg width="512" height="320" version="1.1" viewBox="0 0 135.47 84.667" xml:space="preserve" xmlns="http://www.w3.org/2000/svg"><path d="m12.906 29.766c-2.8777 0-5.2321 2.3066-5.2321 5.1582l5.17e-4 14.819c0 2.8515 2.3543 5.1582 5.2321 5.1582h85.841c2.8777 0 5.2321-2.3066 5.2321-5.1582l5.2e-4 -14.819c0-2.8515-2.3544-5.1582-5.2321-5.1582zm-5.16e-4 1.588h85.843c2.0398 0 3.6462 1.585 3.6462 3.5702l-1e-3 14.819c0 1.9854-1.6064 3.5702-3.6462 3.5702h-85.841c-2.0398 0-3.6462-1.585-3.6462-3.5702l-1e-3 -14.819c0-1.9854 1.6064-3.5702 3.6462-3.5702z" fill-rule="evenodd" stroke-width=".99996"/><g transform="translate(-17.211 28.852)"><path d="m33.156 3.9576c-2.8778 0-5.2303 2.3063-5.2303 5.158v8.7325c0 2.8516 2.3523 5.158 5.2303 5.158h27.217c2.878 0 5.2303-2.3064 5.2303-5.158v-8.7325c0-2.8517-2.3525-5.158-5.2303-5.158zm0 1.586h27.217c2.0398 0 3.6443 1.5866 3.6443 3.572v8.7325c0 1.9853-1.6045 3.5699-3.6443 3.5699h-27.217c-2.0398 0-3.6443-1.5846-3.6443-3.5699v-8.7325c0-1.9854 1.6045-3.572 3.6443-3.572z" fill-rule="evenodd"/><path d="m33.156 8.2277h6.0389v1.1965h-4.6171v3.0969h4.1667v1.1965h-4.1667v5.0183h-1.4217zm8.2911 0h1.4217v10.508h-1.4217zm4.2511 0h1.4217v9.3117h5.1168v1.1965h-6.5386zm8.0307 0h6.6442v1.1965h-5.2224v3.1109h5.0042v1.1965h-5.0042v3.8077h5.3491v1.1965h-6.7708z" stroke-width=".1098" aria-label="FILE"/></g><path d="m112.51 29.766c-2.8777 0-5.2318 2.3064-5.2318 5.158l5.1e-4 14.819c0 2.8513 2.3538 5.1577 5.2313 5.158h10.05c2.8776-2.77e-4 5.2313-2.3066 5.2313-5.158l5.2e-4 -14.819c0-2.8516-2.3542-5.158-5.2318-5.158z" fill-rule="evenodd"/></svg>
