<?xml version="1.0" encoding="UTF-8"?>
<!-- Created with Inkscape (http://www.inkscape.org/) -->
<svg width="512" height="320" version="1.1" viewBox="0 0 135.47 84.667" xml:space="preserve" xmlns="http://www.w3.org/2000/svg"><g fill-rule="evenodd"><g transform="translate(27.733 22.316)" stroke-width="1.0172"><path d="m51.058 19.498h4.6974v6.1939q-1.1525 0.36286-2.2177 0.51475-1.0565 0.15189-2.2876 0.15189-2.8987 0-4.4704-1.654-1.5716-1.6624-1.5716-4.6834 0-2.9788 1.7724-4.6581 1.7724-1.6877 4.8807-1.6877 1.9994 0 3.7893 0.74259l-0.73342 1.6793q-1.5541-0.69196-3.1083-0.69196-2.0431 0-3.2305 1.2405-1.1874 1.2405-1.1874 3.3923 0 2.2615 1.0652 3.4429 1.0739 1.173 3.0821 1.173 1.0128 0 2.1653-0.24472v-3.1813h-2.6455z"/><path d="m42.161 13.853h2.1653l-4.4704 12.337h-2.2003l-4.4529-12.337h2.1479l2.663 7.6706q0.20955 0.5485 0.44529 1.4177 0.23574 0.86073 0.30559 1.2827 0.1135-0.64133 0.34925-1.4852 0.23574-0.84385 0.38417-1.2489z"/><path d="m32.417 22.84q0 1.6455-1.2311 2.5822-1.2311 0.93668-3.3964 0.93668-2.1653 0-3.5449-0.64977v-1.9071q0.87312 0.39661 1.851 0.62445 0.98662 0.22784 1.8335 0.22784 1.2398 0 1.8248-0.45568 0.59372-0.45568 0.59372-1.2236 0-0.69196-0.54133-1.173t-2.2352-1.1392q-1.7462-0.68352-2.4622-1.5611-0.71596-0.87761-0.71596-2.1096 0-1.5443 1.1351-2.4303 1.1351-0.88604 3.0472-0.88604 1.8335 0 3.6496 0.77634l-0.66357 1.6455q-1.7026-0.69196-3.0384-0.69196-1.0128 0-1.5367 0.43036-0.52387 0.42193-0.52387 1.1223 0 0.481 0.20955 0.82698 0.20955 0.33754 0.68976 0.64133 0.48021 0.30379 1.7288 0.80166 1.4057 0.56538 2.0606 1.0548 0.65484 0.48943 0.96043 1.1054 0.30559 0.61601 0.30559 1.4514z"/></g><path d="m50.8 20.168c-0.0247 0-0.04927 1.78e-4 -0.0739 5.17e-4h-5.17e-4c-2.8148 3.35e-4 -5.1578 2.3336-5.1578 5.1578v0.06976c-2e-6 0.0017 0 3e-3 0 0.0047v33.865c0 0.02473 1.77e-4 0.04976 5.16e-4 0.07441 0 2.8206 2.3376 5.1576 5.1578 5.1578 0.02472 3.41e-4 0.04961 5.16e-4 0.07441 5.16e-4h33.865c2.8777 0 5.2322-2.3068 5.2322-5.1583l5.2e-4 -34.014c0-2.8515-2.3545-5.1583-5.2322-5.1583zm-5.16e-4 1.588h33.867c2.0398 0 3.6463 1.5851 3.6463 3.5703l-5.2e-4 34.014c0 1.9854-1.6064 3.5703-3.6463 3.5703h-33.865c-2.0561 0-3.6447-1.592-3.6447-3.6447v-33.865c0-2.0534 1.5906-3.6447 3.6437-3.6447z"/></g></svg>
