<?xml version="1.0" encoding="UTF-8"?>
<!-- Created with Inkscape (http://www.inkscape.org/) -->
<svg width="512" height="320" version="1.1" viewBox="0 0 135.47 84.667" xml:space="preserve" xmlns="http://www.w3.org/2000/svg"><path d="m60.709 8.3356c-2.8777 0-5.2322 2.3068-5.2322 5.1583l5.17e-4 14.819c0 2.8515 2.3545 5.1583 5.2322 5.1583h14.67c2.8777 0 5.2322-2.3068 5.2322-5.1583l5.17e-4 -14.819c0-2.8515-2.3545-5.1583-5.2322-5.1583h-7.5241zm-5.17e-4 1.588h14.672c2.0396 2.7e-4 3.6458 1.5851 3.6458 3.5703l-5.17e-4 14.819c0 1.9853-1.6065 3.5703-3.6463 3.5703h-14.67c-2.0398 0-3.6463-1.5851-3.6463-3.5703l-5.16e-4 -14.819c0-1.9852 1.6062-3.5701 3.6458-3.5703z" fill-rule="evenodd"/><rect x="67.25" y="14.818" width="1.5875" height="8.4667" rx=".79374" ry=".79374" fill-rule="evenodd"/><path d="m68.04 25.401a0.78986 0.79374 0 0 0-0.78986 0.79374 0.78986 0.79374 0 0 0 0.78986 0.79374h0.0078a0.78986 0.79374 0 0 0 0.78986-0.79374 0.78986 0.79374 0 0 0-0.78986-0.79374z" stop-color="#000000" stroke-width=".79295"/><g fill-rule="evenodd"><g stroke-width=".99998"><rect x="44.273" y="74.745" width="46.92" height="1.5849" rx=".79244" ry=".79244"/><rect x="35.982" y="40.66" width="63.501" height="1.5849" rx=".79244" ry=".79244"/><rect x="35.982" y="49.434" width="63.501" height="1.5849" rx=".79244" ry=".79244"/></g><g stroke-width=".99994"><path d="m91.967 58.208c-2.8776 0-5.2316 2.3058-5.2316 5.1572v0.19379c0 2.8513 2.3539 5.1572 5.2316 5.1572h10.222c2.8776 0 5.2316-2.3058 5.2316-5.1572v-0.19379c0-2.8513-2.354-5.1572-5.2316-5.1572zm0 1.5849h10.222c2.0398 0 3.6457 1.587 3.6457 3.5723v0.19379c0 1.9854-1.6059 3.5723-3.6457 3.5723h-10.222c-2.0398 0-3.6457-1.587-3.6457-3.5723v-0.19379c0-1.9854 1.6059-3.5723 3.6457-3.5723z"/><path d="m62.622 58.208c-2.8776 0-5.2316 2.3058-5.2316 5.1572v0.19379c0 2.8513 2.3539 5.1572 5.2316 5.1572h10.222c2.8776 0 5.2316-2.3058 5.2316-5.1572v-0.19379c0-2.8513-2.3539-5.1572-5.2316-5.1572zm0 1.5849h10.222c2.0398 0 3.6457 1.587 3.6457 3.5723v0.19379c0 1.9854-1.6059 3.5723-3.6457 3.5723h-10.222c-2.0398 0-3.6457-1.587-3.6457-3.5723v-0.19379c0-1.9854 1.6059-3.5723 3.6457-3.5723z"/><path d="m33.278 58.208c-2.8776 0-5.2316 2.3058-5.2316 5.1572v0.19379c0 2.8513 2.3539 5.1572 5.2316 5.1572h10.222c2.8776 0 5.2316-2.3058 5.2316-5.1572v-0.19379c0-2.8513-2.3539-5.1572-5.2316-5.1572zm0 1.5849h10.222c2.0398 0 3.6457 1.587 3.6457 3.5723v0.19379c0 1.9854-1.6059 3.5723-3.6457 3.5723h-10.222c-2.0398 0-3.6457-1.587-3.6457-3.5723v-0.19379c0-1.9854 1.6059-3.5723 3.6457-3.5723z"/></g></g></svg>
