<?xml version="1.0" encoding="UTF-8"?>
<!-- Created with Inkscape (http://www.inkscape.org/) -->
<svg width="512" height="320" version="1.1" viewBox="0 0 135.47 84.667" xml:space="preserve" xmlns="http://www.w3.org/2000/svg"><g fill-rule="evenodd"><path d="m24.812 29.766c-2.8777 0-5.2321 2.3066-5.2321 5.1582l5.17e-4 14.819c0 2.8515 2.3543 5.1582 5.2321 5.1582h85.841c2.8777 0 5.2321-2.3066 5.2321-5.1582l5.2e-4 -14.819c0-2.8515-2.3544-5.1582-5.2321-5.1582zm-5.16e-4 1.588h85.843c2.0398 0 3.6462 1.585 3.6462 3.5702l-1e-3 14.819c0 1.9854-1.6064 3.5702-3.6462 3.5702h-85.841c-2.0398 0-3.6462-1.585-3.6462-3.5702l-1e-3 -14.819c0-1.9854 1.6064-3.5702 3.6462-3.5702z" stroke-width=".99996"/><path d="m28.574 35.3v1.7301h1.8795v10.607h-1.8795v1.7301h5.8487v-1.7301h-1.88v-10.607h1.88v-1.7301z"/></g></svg>
