<?xml version="1.0" encoding="UTF-8"?>
<!-- Created with Inkscape (http://www.inkscape.org/) -->
<svg width="512" height="320" version="1.1" viewBox="0 0 135.47 84.667" xml:space="preserve" xmlns="http://www.w3.org/2000/svg"><g fill-rule="evenodd"><path d="m24.812 29.766c-2.8777 0-5.2324 2.3064-5.2324 5.158l5.17e-4 14.819c0 2.8515 2.3546 5.1585 5.2324 5.1585h85.841c2.8777 0 5.2324-2.3069 5.2324-5.1585l5.2e-4 -14.819c0-2.8515-2.3547-5.158-5.2324-5.158h-85.842zm-5.17e-4 1.5881h45.57v21.959h1.5881v-21.959h20.371v21.959h1.5881v-21.959h16.726c2.0398 0 3.6464 1.5847 3.6464 3.5699l-0.00104 14.819c0 1.9854-1.6066 3.5704-3.6464 3.5704h-85.841c-2.0398 0-3.6464-1.5852-3.6464-3.5704l-0.001034-14.819c0-1.9854 1.6066-3.5699 3.6464-3.5699z"/><rect transform="rotate(90)" x="41.54" y="-87.711" width="1.5875" height="11.113" stroke-width=".7113"/><path transform="rotate(90)" d="m36.777-103.32h4.7626v4.7626h1.5875v-4.7626h4.7626v-1.5875h-4.7626v-4.7626h-1.5875v4.7626h-4.7626v1.5875z" stroke-width=".7113"/><path d="m35.283 39.005q0 1.173-0.68352 1.9577-0.68352 0.77634-1.924 1.0464v0.0675q1.4852 0.18565 2.2278 0.92824 0.74259 0.73415 0.74259 1.9577 0 1.7805-1.2573 2.751-1.2573 0.96199-3.5779 0.96199-2.0506 0-3.4598-0.66665v-1.7636q0.78478 0.38817 1.6624 0.59914 0.87761 0.21096 1.6877 0.21096 1.4346 0 2.1434-0.53163 0.70884-0.53162 0.70884-1.6455 0-0.98731-0.78478-1.4514-0.78478-0.46412-2.464-0.46412h-1.0717v-1.6118h1.0886q2.9535 0 2.9535-2.0421 0-0.79322-0.51475-1.2236-0.51475-0.43037-1.5189-0.43037-0.7004 0-1.3502 0.20253-0.64977 0.19408-1.5358 0.7679l-0.97043-1.3839q1.6961-1.2489 3.9408-1.2489 1.8649 0 2.9113 0.80166t1.0464 2.2109z"/></g></svg>
