<?xml version="1.0" encoding="UTF-8"?>
<!-- Created with Inkscape (http://www.inkscape.org/) -->
<svg width="512" height="320" version="1.1" viewBox="0 0 135.47 84.667" xml:space="preserve" xmlns="http://www.w3.org/2000/svg"><g fill-rule="evenodd"><path d="m24.812 29.766c-2.8777 0-5.2322 2.3068-5.2322 5.1583l5.16e-4 14.819c0 2.8515 2.3545 5.1583 5.2322 5.1583h85.841c2.8777 0 5.2322-2.3068 5.2322-5.1583l5.1e-4 -14.819c0-2.8515-2.3545-5.1583-5.2322-5.1583h-85.842zm-5.17e-4 1.588h16.726v21.959h-16.725c-2.0398 0-3.6463-1.5851-3.6463-3.5703l-0.001033-14.819c0-1.9854 1.6064-3.5703 3.6463-3.5703zm18.313 0h49.216v21.959h-49.216v-21.959zm50.804 0h16.726c2.0398 0 3.6463 1.5851 3.6463 3.5703l-0.00103 14.819c0 1.9854-1.6064 3.5703-3.6463 3.5703h-16.725v-21.959z"/><path d="m50.533 35.3v1.7301h1.8795v10.607h-1.8795v1.7301h5.8487v-1.7301h-1.88v-10.607h1.88v-1.7301z"/></g></svg>
