<?xml version="1.0" encoding="UTF-8"?>
<!-- Created with Inkscape (http://www.inkscape.org/) -->
<svg width="512" height="320" version="1.1" viewBox="0 0 135.47 84.667" xml:space="preserve" xmlns="http://www.w3.org/2000/svg"><path d="m19.58 53.955v-23.148h3.9569v19.902h10.248v3.2457zm33.393 0-2.4172-6.4281h-9.2548l-2.3675 6.4281h-4.1721l9.0561-23.243h4.3046l9.0561 23.243zm-3.4602-9.6897-2.2682-6.3014q-0.24834-0.63331-0.69535-1.9949-0.43046-1.3616-0.59602-1.9949-0.44701 1.9474-1.3079 4.259l-2.1854 6.0323zm10.861-13.458h7.1853q4.9999 0 7.2184 1.3933 2.2351 1.3933 2.2351 4.4015 0 2.0266-1.0927 3.3724-1.0927 1.3458-3.1456 1.6941v0.15834q2.5496 0.45915 3.7417 1.8208 1.2086 1.3458 1.2086 3.6574 0 3.1191-2.2847 4.8923-2.2682 1.7574-6.3244 1.7574h-8.7416zm3.9569 9.563h3.8079q2.4834 0 3.6258-0.74414 1.1424-0.75997 1.1424-2.5649 0-1.6308-1.2417-2.3591-1.2251-0.72831-3.9072-0.72831h-3.4271zm0 3.0716v7.3306h4.2052q2.4834 0 3.7417-0.90247 1.2748-0.9183 1.2748-2.8816 0-1.8049-1.2914-2.6757-1.2914-0.8708-3.9238-0.8708zm32.119 10.513h-13.692v-23.148h13.692v3.1982h-9.7349v6.3014h9.1224v3.1666h-9.1224v7.2672h9.7349zm5.2317 0v-23.148h3.9569v19.902h10.248v3.2457z" fill-rule="evenodd" stroke-width="1.9186" aria-label="LABEL"/></svg>
