<?xml version="1.0" encoding="UTF-8"?>
<svg width="512" height="320" version="1.1" viewBox="0 0 135.47 84.667" xml:space="preserve" xmlns="http://www.w3.org/2000/svg"><path d="m7.6736 8.3363v66.408 1.586h1.586 118.54v-1.586h-118.54v-66.408h-1.586z"/><path d="m96.697 16.732a2.3957 2.3957 0 0 0-2.3953 2.3958 2.3957 2.3957 0 0 0 0.19276 0.94157l-9.9335 9.918a2.4 2.4 0 0 0-0.93123-0.18811 2.4 2.4 0 0 0-2.3999 2.3999 2.4 2.4 0 0 0 0.37363 1.2868l-7.9382 9.565a2.3957 2.3957 0 0 0-0.9209-0.18397 2.3957 2.3957 0 0 0-1.6511 0.65992l-9.0431-4.4686a2.3957 2.3957 0 0 0 0.022738-0.3297 2.3957 2.3957 0 0 0-2.3958-2.3958 2.3957 2.3957 0 0 0-2.3958 2.3958 2.3957 2.3957 0 0 0 0.48267 1.4423l-10.526 15.847a2.3957 2.3957 0 0 1-5.17e-4 0 2.3957 2.3957 0 0 0-0.6284-0.084235 2.3957 2.3957 0 0 0-1.6749 0.68318l-9.024-4.4593a2.3957 2.3957 0 0 0 0.02739-0.36174 2.3957 2.3957 0 0 0-2.3958-2.3958 2.3957 2.3957 0 0 0-2.3958 2.3958 2.3957 2.3957 0 0 0 0.21343 0.9886l-9.8963 9.8963a2.4 2.4 0 0 1-5.17e-4 0 2.4 2.4 0 0 0-0.98808-0.21343 2.4 2.4 0 0 0-2.4004 2.4004 2.4 2.4 0 0 0 2.4004 2.3999 2.4 2.4 0 0 0 2.3999-2.3999 2.4 2.4 0 0 0-0.26304-1.0925l9.8441-9.8441a2.3957 2.3957 0 0 0 1.0863 0.26046 2.3957 2.3957 0 0 0 1.6227-0.63357l9.0669 4.4799a2.3957 2.3957 0 0 1 0 5.17e-4 2.3957 2.3957 0 0 0-0.01757 0.29094 2.3957 2.3957 0 0 0 2.3953 2.3958 2.3957 2.3957 0 0 0 2.3958-2.3958 2.3957 2.3957 0 0 0-0.46045-1.4124l10.539-15.868a2.3957 2.3957 0 0 0 0.59326 0.074416 2.3957 2.3957 0 0 0 1.647-0.65579l9.0467 4.4701a2.3957 2.3957 0 0 0-0.021705 0.32402 2.3957 2.3957 0 0 0 2.3953 2.3953 2.3957 2.3957 0 0 0 2.3958-2.3953 2.3957 2.3957 0 0 0-0.29456-1.1514l8.0033-9.6425a2.4 2.4 0 0 0 0.78085 0.13074 2.4 2.4 0 0 0 2.3999-2.4004 2.4 2.4 0 0 0-0.29146-1.1457l9.8286-9.8136a2.3957 2.3957 0 0 0 1.1302 0.28371 2.3957 2.3957 0 0 0 1.587-0.60101l9.0973 4.4949a2.3957 2.3957 0 0 0-0.01241 0.24392 2.3957 2.3957 0 0 0 2.3958 2.3958 2.3957 2.3957 0 0 0 2.3958-2.3958 2.3957 2.3957 0 0 0-2.3958-2.3958 2.3957 2.3957 0 0 0-1.7085 0.71625l-8.9981-4.4464a2.3957 2.3957 0 0 0 0.034624-0.40774 2.3957 2.3957 0 0 0-2.3958-2.3958z"/></svg>
