<?xml version="1.0" encoding="UTF-8"?>
<!-- Created with Inkscape (http://www.inkscape.org/) -->
<svg width="512" height="320" version="1.1" viewBox="0 0 135.47 84.667" xml:space="preserve" xmlns="http://www.w3.org/2000/svg"><g fill-rule="evenodd"><g stroke-width=".99998"><rect x="15.609" y="63.678" width="63.501" height="1.5849" rx=".79244" ry=".79244"/><rect x="15.609" y="41.541" width="46.92" height="1.5849" rx=".79244" ry=".79244"/><rect x="15.609" y="19.404" width="63.501" height="1.5849" rx=".79244" ry=".79244"/></g><path d="m12.904 8.3359c-2.8777 0-5.2301 2.3061-5.2301 5.1577v57.68c0 2.8515 2.3521 5.1577 5.2301 5.1577h109.66c2.8777 0 5.2321-2.3061 5.2321-5.1577v-57.68c0-2.8515-2.3543-5.1577-5.2321-5.1577zm0 1.5854h109.66c2.0398 0 3.6462 1.5869 3.6462 3.5723v16.979h-116.95v-16.979c0-1.9854 1.6044-3.5723 3.6441-3.5723zm-3.6441 22.136h116.95v20.551h-116.95zm0 22.136h116.95v16.979c0 1.9854-1.6064 3.5702-3.6462 3.5702h-109.66c-2.0398 0-3.6441-1.585-3.6441-3.5702z" stroke-width=".99996"/></g></svg>
