<?xml version="1.0" encoding="UTF-8"?>
<!-- Created with Inkscape (http://www.inkscape.org/) -->
<svg width="512" height="320" version="1.1" viewBox="0 0 135.47 84.667" xml:space="preserve" xmlns="http://www.w3.org/2000/svg"><rect x="35.982" y="41.541" width="63.501" height="1.5849" rx=".79244" ry=".79244" fill-rule="evenodd" stroke-width=".99998"/><rect x="35.982" y="63.678" width="63.501" height="1.5849" rx=".79244" ry=".79244" fill-rule="evenodd" stroke-width=".99998"/><path d="m33.276 8.3359c-2.8777 0-5.2302 2.3063-5.2302 5.1578v57.679c0 2.8515 2.3522 5.1578 5.2302 5.1578h68.915c2.8779 0 5.2302-2.3063 5.2302-5.1578v-57.679c0-2.8515-2.3524-5.1578-5.2302-5.1578zm0 1.5854h68.915c2.0395 2.71e-4 3.6437 1.5872 3.6437 3.5724v16.978h-76.202v-16.978c0-1.9852 1.6042-3.5721 3.6437-3.5724zm-3.6442 22.136h76.203v20.552h-76.203zm0 22.137h76.203l5.2e-4 16.979c0 1.9852-1.6045 3.5698-3.6442 3.5698h-68.916c-2.0398 0-3.6442-1.5846-3.6442-3.5698z"/><path d="m92.38 14.942a0.9638 0.9638 0 0 1 0.68159 0.28214 0.9638 0.9638 0 0 0 5.16e-4 5.2e-4l3.7501 3.7501c0.33847 0.33847 0.50796 0.78041 0.50796 1.2221-1e-5 0.44171-0.16949 0.88364-0.50796 1.2221l-3.7501 3.7501a0.9638 0.9638 0 0 1-5.16e-4 5.2e-4 0.9638 0.9638 0 0 1-0.68159 0.28214 0.9638 0.9638 0 0 1-0.68108-0.28214 0.9638 0.9638 0 0 1 0-1.3632l0.68159 0.68109-0.68108-0.6816 2.3868-2.3868c0.33847-0.33848 0.50796-0.78041 0.50797-1.2221-7e-6 -0.44171-0.1695-0.88364-0.50797-1.2221l-2.3868-2.3868 0.68108-0.68159-0.68159 0.68108a0.9638 0.9638 0 0 1 0-1.3632 0.9638 0.9638 0 0 1 0.68108-0.28214z" fill-rule="evenodd" stroke-width=".99996"/><rect x="35.982" y="19.404" width="46.92" height="1.5849" rx=".79244" ry=".79244" fill-rule="evenodd" stroke-width=".99998"/></svg>
