<?xml version="1.0" encoding="UTF-8"?>
<!-- Created with Inkscape (http://www.inkscape.org/) -->
<svg width="512" height="320" version="1.1" viewBox="0 0 135.47 84.667" xml:space="preserve" xmlns="http://www.w3.org/2000/svg"><g fill-rule="evenodd"><g stroke-width=".99998"><path d="m12.904 8.3358c-2.8778 0-5.2304 2.3064-5.2304 5.1581v8.7322c0 2.8516 2.3524 5.1581 5.2304 5.1581h109.66c2.8778 0 5.2323-2.3064 5.2323-5.1581v-8.7322c0-2.8516-2.3544-5.1581-5.2323-5.1581zm0 1.5859h109.66c2.0398 0 3.6464 1.5868 3.6464 3.5722v8.7322c0 1.9854-1.6066 3.5702-3.6464 3.5702h-109.66c-2.0398 0-3.6444-1.5849-3.6444-3.5702v-8.7322c0-1.9854 1.6046-3.5722 3.6444-3.5722z" stop-color="#000000"/><path d="m119.57 13.315a0.96382 0.96382 0 0 0-1.3631 0 0.96382 0.96382 0 0 1-5.3e-4 5.4e-4l-6.138 6.1379c-0.67698 0.67698-1.7669 0.67698-2.4439 0l-6.138-6.1379a0.96382 0.96382 0 0 1-5.3e-4 -5.4e-4 0.96382 0.96382 0 0 0-1.3631 0 0.96382 0.96382 0 0 0 0 1.3631 0.96382 0.96382 0 0 1 5.4e-4 5.3e-4l7.501 7.501c0.67699 0.67698 1.767 0.67698 2.4439 0l7.4999-7.4999a0.96382 0.96382 0 0 0 2e-3 -2e-3 0.96382 0.96382 0 0 0 0-1.3631z"/><path d="m72.703 30.493c-2.8778 0-5.2319 2.3065-5.2319 5.158v35.521c0 2.8515 2.3541 5.158 5.2319 5.158h49.858c2.8778 0 5.2324-2.3065 5.2324-5.158v-35.521c0-2.8515-2.3546-5.158-5.2324-5.158zm5.16e-4 1.586h49.857c2.0398 0 3.6464 1.5871 3.6464 3.5725l5.2e-4 35.521c0 1.9854-1.6065 3.5725-3.6464 3.5725h-49.857c-2.0398 0-3.6464-1.5871-3.6464-3.5725l-5.16e-4 -35.521c0-1.9853 1.6065-3.5725 3.6464-3.5725z"/></g><path d="m78.847 38.429c-1.4612 0-2.6459 1.1841-2.6459 2.6454s1.1847 2.6459 2.6459 2.6459 2.6454-1.1847 2.6454-2.6459-1.1841-2.6454-2.6454-2.6454zm12.523 0c-1.4612 0-2.6454 1.1841-2.6454 2.6454s1.1841 2.6459 2.6454 2.6459 2.6459-1.1847 2.6459-2.6459-1.1847-2.6454-2.6459-2.6454zm12.523 0c-1.4612 0-2.6459 1.1841-2.6459 2.6454s1.1847 2.6459 2.6459 2.6459 2.6459-1.1847 2.6459-2.6459-1.1847-2.6454-2.6459-2.6454zm12.524 0c-1.4612 0-2.6459 1.1841-2.6459 2.6454s1.1847 2.6459 2.6459 2.6459 2.6459-1.1847 2.6459-2.6459-1.1847-2.6454-2.6459-2.6454zm-37.57 12.105a2.6458 2.6458 0 0 0-2.6459 2.6454 2.6458 2.6458 0 0 0 2.6459 2.6459 2.6458 2.6458 0 0 0 2.6454-2.6459 2.6458 2.6458 0 0 0-2.6454-2.6454zm12.523 0a2.6458 2.6458 0 0 0-2.6454 2.6454 2.6458 2.6458 0 0 0 2.6454 2.6459 2.6458 2.6458 0 0 0 2.6459-2.6459 2.6458 2.6458 0 0 0-2.6459-2.6454zm12.523 0a2.6458 2.6458 0 0 0-2.6459 2.6454 2.6458 2.6458 0 0 0 2.6459 2.6459 2.6458 2.6458 0 0 0 2.6459-2.6459 2.6458 2.6458 0 0 0-2.6459-2.6454zm12.524 0a2.6458 2.6458 0 0 0-2.6459 2.6454 2.6458 2.6458 0 0 0 2.6459 2.6459 2.6458 2.6458 0 0 0 2.6459-2.6459 2.6458 2.6458 0 0 0-2.6459-2.6454zm-37.57 12.105a2.6458 2.6458 0 0 0-2.6459 2.6454 2.6458 2.6458 0 0 0 2.6459 2.6459 2.6458 2.6458 0 0 0 2.6454-2.6459 2.6458 2.6458 0 0 0-2.6454-2.6454zm12.523 0a2.6458 2.6458 0 0 0-2.6454 2.6454 2.6458 2.6458 0 0 0 2.6454 2.6459 2.6458 2.6458 0 0 0 2.6459-2.6459 2.6458 2.6458 0 0 0-2.6459-2.6454zm12.523 0a2.6458 2.6458 0 0 0-2.6459 2.6454 2.6458 2.6458 0 0 0 2.6459 2.6459 2.6458 2.6458 0 0 0 2.6459-2.6459 2.6458 2.6458 0 0 0-2.6459-2.6454zm12.524 0a2.6458 2.6458 0 0 0-2.6459 2.6454 2.6458 2.6458 0 0 0 2.6459 2.6459 2.6458 2.6458 0 0 0 2.6459-2.6459 2.6458 2.6458 0 0 0-2.6459-2.6454z"/></g></svg>
