<?xml version="1.0" encoding="UTF-8"?>
<!-- Created with Inkscape (http://www.inkscape.org/) -->
<svg width="512" height="320" version="1.1" viewBox="0 0 135.47 84.667" xml:space="preserve" xmlns="http://www.w3.org/2000/svg">
  <path d="m95.059 8.3358c-2.8778 0-5.2303 2.3063-5.2303 5.158v8.7325c0 2.8516 2.3523 5.158 5.2303 5.158h27.505c2.8778 0 5.2324-2.3063 5.2324-5.158v-8.7325c0-2.8516-2.3545-5.158-5.2324-5.158h-27.505zm0 1.586h27.505c2.0398 0 3.6464 1.5866 3.6464 3.572v8.7325c0 1.9854-1.6066 3.5699-3.6464 3.5699h-27.505c-2.0398 0-3.6443-1.5846-3.6443-3.5699v-8.7325c0-1.9854 1.6045-3.572 3.6443-3.572z"/>
  <path d="m72.703 30.493c-2.8778 0-5.2319 2.3065-5.2319 5.158v15.743 4.0355 15.743c0 2.8515 2.3541 5.158 5.2319 5.158h49.858c2.8778 0 5.2324-2.3065 5.2324-5.158v-15.743-4.0355-15.743c0-2.8515-2.3546-5.158-5.2324-5.158h-49.858zm5.16e-4 1.586h49.857c2.0398 0 3.6464 1.5871 3.6464 3.5725v3.2407h5.2e-4v4.8288 7.6731 4.035 15.743c0 1.9854-1.6065 3.5725-3.6464 3.5725h-49.857c-2.0398 0-3.6464-1.5871-3.6464-3.5725h-5.16e-4v-29.039-3.2407-3.2407c0-1.9853 1.6065-3.5725 3.6464-3.5725z"/>
  <path d="m122.56 19.464a0.77752 0.77752 0 0 0-0.22762-0.54985 0.77752 0.77752 0 0 1-4.2e-4 -4.2e-4l-3.0253-3.0253c-0.27305-0.27305-0.62958-0.40979-0.9859-0.40979-0.35635 8e-6 -0.71285 0.13673-0.9859 0.40979l-3.0253 3.0253a0.77752 0.77752 0 0 0-4.2e-4 4.2e-4 0.77752 0.77752 0 0 0-0.22761 0.54985 0.77752 0.77752 0 0 0 0.22761 0.54945 0.77752 0.77752 0 0 0 1.0997 0l-0.54945-0.54986 0.54986 0.54944 1.9255-1.9255c0.27306-0.27305 0.62958-0.40978 0.9859-0.40979 0.35635 0 0.71285 0.13674 0.9859 0.40979l1.9255 1.9255 0.54985-0.54944-0.54945 0.54986a0.77752 0.77752 0 0 0 1.0997 0 0.77752 0.77752 0 0 0 0.22761-0.54945z"/>
  <path d="m95.851 17.068c-0.43901 0-0.79222 0.35321-0.79222 0.79222 0 0.43901 0.35321 0.79274 0.79222 0.79274h13.796c0.43901 0 0.79222-0.35372 0.79222-0.79274 0-0.43901-0.35321-0.79222-0.79222-0.79222z"/>
  <rect x="74.795" y="41.556" width="46.92" height="1.5849" rx=".79244" ry=".79244"/>
  <rect x="74.915" y="52.619" width="46.92" height="1.5849" rx=".79244" ry=".79244"/>
  <rect x="75.156" y="63.682" width="46.92" height="1.5849" rx=".79244" ry=".79244"/>
  <path d="m12.904 8.3358c-2.8778 0-5.2303 2.3063-5.2303 5.158v8.7325c0 2.8516 2.3523 5.158 5.2303 5.158h27.505c2.8778 0 5.2324-2.3063 5.2324-5.158v-8.7325c0-2.8516-2.3545-5.158-5.2324-5.158zm0 1.586h27.505c2.0398 0 3.6464 1.5866 3.6464 3.572v8.7325c0 1.9854-1.6066 3.5699-3.6464 3.5699h-27.505c-2.0398 0-3.6443-1.5846-3.6443-3.5699v-8.7325c0-1.9854 1.6045-3.572 3.6443-3.572z"/>
  <path d="m40.409 16.256a0.77752 0.77752 0 0 1-0.22762 0.54985 0.77752 0.77752 0 0 0-4.2e-4 4.2e-4l-3.0253 3.0253c-0.27305 0.27305-0.62958 0.40979-0.9859 0.40979-0.35635-8e-6 -0.71285-0.13673-0.9859-0.40979l-3.0253-3.0253a0.77752 0.77752 0 0 1-4.2e-4 -4.2e-4 0.77752 0.77752 0 0 1-0.22761-0.54985 0.77752 0.77752 0 0 1 0.22761-0.54945 0.77752 0.77752 0 0 1 1.0997 0l-0.54945 0.54986 0.54986-0.54944 1.9255 1.9255c0.27306 0.27305 0.62958 0.40978 0.9859 0.40979 0.35635 0 0.71285-0.13674 0.9859-0.40979l1.9255-1.9255 0.54985 0.54944-0.54945-0.54986a0.77752 0.77752 0 0 1 1.0997 0 0.77752 0.77752 0 0 1 0.22761 0.54945z"/>
  <path d="m13.696 17.068c-0.43901 0-0.79222 0.35321-0.79222 0.79222 0 0.43901 0.35321 0.79274 0.79222 0.79274h13.796c0.43901 0 0.79222-0.35372 0.79222-0.79274 0-0.43901-0.35321-0.79222-0.79222-0.79222z"/>
  <path d="m53.981 8.3358c-2.8778 0-5.2303 2.3063-5.2303 5.158v8.7325c0 2.8516 2.3523 5.158 5.2303 5.158h27.505c2.8778 0 5.2324-2.3063 5.2324-5.158v-8.7325c0-2.8516-2.3545-5.158-5.2324-5.158zm0 1.586h27.505c2.0398 0 3.6464 1.5866 3.6464 3.572v8.7325c0 1.9854-1.6066 3.5699-3.6464 3.5699h-27.505c-2.0398 0-3.6443-1.5846-3.6443-3.5699v-8.7325c0-1.9854 1.6045-3.572 3.6443-3.572z"/>
  <path d="m81.487 16.256a0.77752 0.77752 0 0 1-0.22762 0.54985 0.77752 0.77752 0 0 0-4.2e-4 4.2e-4l-3.0253 3.0253c-0.27305 0.27305-0.62958 0.40979-0.9859 0.40979-0.35635-8e-6 -0.71285-0.13673-0.9859-0.40979l-3.0253-3.0253a0.77752 0.77752 0 0 1-4.2e-4 -4.2e-4 0.77752 0.77752 0 0 1-0.22761-0.54985 0.77752 0.77752 0 0 1 0.22761-0.54945 0.77752 0.77752 0 0 1 1.0997 0l-0.54945 0.54986 0.54986-0.54944 1.9255 1.9255c0.27306 0.27305 0.62958 0.40978 0.9859 0.40979 0.35635 0 0.71285-0.13674 0.9859-0.40979l1.9255-1.9255 0.54985 0.54944-0.54945-0.54986a0.77752 0.77752 0 0 1 1.0997 0 0.77752 0.77752 0 0 1 0.22761 0.54945z"/>
  <path d="m54.773 17.068c-0.43901 0-0.79222 0.35321-0.79222 0.79222 0 0.43901 0.35321 0.79274 0.79222 0.79274h13.796c0.43901 0 0.79222-0.35372 0.79222-0.79274 0-0.43901-0.35321-0.79222-0.79222-0.79222z"/>
</svg>
