<?xml version="1.0" encoding="UTF-8"?>
<!-- Created with Inkscape (http://www.inkscape.org/) -->
<svg width="512" height="320" version="1.1" viewBox="0 0 135.47 84.667" xml:space="preserve" xmlns="http://www.w3.org/2000/svg"><path d="m12.904 27.188c-2.8779 0-5.2303 2.3069-5.2303 5.1585v19.974c0 2.8517 2.3523 5.1585 5.2303 5.1585h109.66c2.8779 0 5.2324-2.3069 5.2324-5.1585v-19.974c0-2.8517-2.3545-5.1585-5.2324-5.1585zm0 1.5881h109.66c2.0399 0 3.6464 1.585 3.6464 3.5704v19.974c0 1.9854-1.6065 3.5725-3.6464 3.5725h-109.66c-2.0399 0-3.6443-1.5871-3.6443-3.5725v-19.974c0-1.9854 1.6044-3.5704 3.6443-3.5704z"/><g transform="matrix(.79297 0 0 .79297 12.18 32.819)" stroke-linecap="round" stroke-linejoin="round" stroke-width="2"><path d="m12 1c-6.0633 0-11 4.9367-11 11s4.9367 11 11 11 11-4.9367 11-11-4.9367-11-11-11zm0 2c4.9824 0 9 4.0176 9 9s-4.0176 9-9 9-9-4.0176-9-9 4.0176-9 9-9z" stop-color="#000000"/><path d="m12 6.6615a1.001 1.1122 0 0 0-1.001 1.1122v4.4488a1.001 1.1122 0 0 0 1.001 1.1122 1.001 1.1122 0 0 0 1.001-1.1122v-4.4488a1.001 1.1122 0 0 0-1.001-1.1122z" stop-color="#000000"/><path d="m11.995 15.337a0.9961 1.001 0 0 0-0.9961 1.001 0.9961 1.001 0 0 0 0.9961 1.001h0.0098a0.9961 1.001 0 0 0 0.9961-1.001 0.9961 1.001 0 0 0-0.9961-1.001z" stop-color="#000000"/></g><path d="m36.804 41.54c-0.43988 0-0.79377 0.35389-0.79377 0.79377s0.35389 0.79429 0.79377 0.79429h71.357c0.43988 0 0.79429-0.35441 0.79429-0.79429s-0.35441-0.79377-0.79429-0.79377z"/><path d="m115.34 32.489c-0.20288 0-0.40622 0.07754-0.56174 0.23307-0.31104 0.31104-0.31104 0.81191 0 1.123l2.619 2.619-2.619 2.6195c-0.31104 0.31104-0.31104 0.8114 0 1.1224s0.81192 0.31156 1.123 5.17e-4l2.619-2.619 2.619 2.619c0.31104 0.31104 0.81191 0.31052 1.123-5.17e-4 0.31104-0.31104 0.31104-0.8114 0-1.1224l-2.619-2.6195 2.619-2.619c0.31104-0.31104 0.31104-0.81191 0-1.123-0.31105-0.31104-0.81192-0.31104-1.123 0l-2.619 2.619-2.619-2.619c-0.15552-0.15552-0.35834-0.23307-0.56122-0.23307z"/></svg>
