<?xml version="1.0" encoding="UTF-8"?>
<!-- Created with Inkscape (http://www.inkscape.org/) -->
<svg width="512" height="320" version="1.1" viewBox="0 0 135.47 84.667" xml:space="preserve" xmlns="http://www.w3.org/2000/svg"><g fill-rule="evenodd"><path d="m12.905 29.766c-2.8777 0-5.2317 2.3068-5.2317 5.1583l5.168e-4 14.819c0 2.8515 2.354 5.1583 5.2317 5.1583h109.66c2.8777 0 5.2317-2.3068 5.2317-5.1583l5.2e-4 -14.819c0-2.8515-2.354-5.1583-5.2317-5.1583zm-5.16e-4 1.588h18.314v21.959h-18.313c-2.0398 0-3.6463-1.5851-3.6463-3.5703l-0.00103-14.819c0-1.9854 1.6064-3.5703 3.6463-3.5703zm19.902 0h22.226v21.959h-22.226zm47.628 0h22.226v21.959h-22.226zm23.814 0h18.314c2.0398 0 3.6463 1.585 3.6463 3.5703l-1e-3 14.819c0 1.9852-1.6065 3.5703-3.6463 3.5703h-18.313zm-36.562 4.7227c1.1476 0 2.0676 0.30083 2.7595 0.90278 0.69196 0.59632 1.0377 1.4007 1.0377 2.4133 0 0.55695-0.10082 1.0858-0.30334 1.5865-0.1969 0.50069-0.50354 1.0184-0.91984 1.5529-0.41068 0.52881-1.0973 1.2461-2.0593 2.1518l-2.143 2.0758v0.0842h5.856v1.7467h-8.3623v-1.5017l3.1812-3.1982c0.93949-0.96199 1.5612-1.6428 1.865-2.0422 0.30941-0.40506 0.53425-0.78453 0.67489-1.139 0.14064-0.35441 0.21084-0.73441 0.21084-1.1395 0-0.55694-0.16837-0.99553-0.50591-1.3162-0.33192-0.32066-0.7932-0.4811-1.3839-0.4811-0.47256 0-0.9312 0.0871-1.3756 0.26148-0.4388 0.1744-0.94811 0.48948-1.5276 0.94516l-1.0718-1.3079c0.68633-0.57945 1.3529-0.99006 1.9999-1.232 0.64695-0.24191 1.3362-0.36277 2.0676-0.36277z"/><path d="m113.24 37.079a0.9638 0.9638 0 0 1 0.68159 0.28214 0.9638 0.9638 0 0 0 5.2e-4 5.2e-4l3.7501 3.7501c0.33848 0.33847 0.50796 0.78041 0.50797 1.2221-1e-5 0.44171-0.16949 0.88364-0.50797 1.2221l-3.7501 3.7501a0.9638 0.9638 0 0 1-5.2e-4 5.2e-4 0.9638 0.9638 0 0 1-0.68159 0.28214 0.9638 0.9638 0 0 1-0.68109-0.28214 0.9638 0.9638 0 0 1 0-1.3632l0.6816 0.68109-0.68109-0.6816 2.3868-2.3868c0.33848-0.33848 0.50796-0.78041 0.50797-1.2221 0-0.44171-0.16949-0.88364-0.50797-1.2221l-2.3868-2.3868 0.68109-0.68159-0.6816 0.68108a0.9638 0.9638 0 0 1 0-1.3632 0.9638 0.9638 0 0 1 0.68109-0.28214z" stroke-width=".99996"/><path d="m22.227 37.079a0.9638 0.9638 0 0 0-0.68159 0.28214 0.9638 0.9638 0 0 1-5.2e-4 5.2e-4l-3.7501 3.7501c-0.33848 0.33847-0.50796 0.78041-0.50797 1.2221 1e-5 0.44171 0.16949 0.88364 0.50797 1.2221l3.7501 3.7501a0.9638 0.9638 0 0 0 5.2e-4 5.2e-4 0.9638 0.9638 0 0 0 0.68159 0.28214 0.9638 0.9638 0 0 0 0.68109-0.28214 0.9638 0.9638 0 0 0 0-1.3632l-0.6816 0.68109 0.68109-0.6816-2.3868-2.3868c-0.33848-0.33848-0.50796-0.78041-0.50797-1.2221 0-0.44171 0.16949-0.88364 0.50797-1.2221l2.3868-2.3868-0.68109-0.68159 0.6816 0.68108a0.9638 0.9638 0 0 0 0-1.3632 0.9638 0.9638 0 0 0-0.68109-0.28214z" stroke-width=".99996"/><path d="m95.332 39.004q0 1.173-0.68352 1.9577-0.68352 0.77634-1.924 1.0464v0.0675q1.4852 0.18565 2.2278 0.92824 0.74259 0.73415 0.74259 1.9577 0 1.7805-1.2573 2.751-1.2573 0.96199-3.5779 0.96199-2.0506 0-3.4598-0.66665v-1.7636q0.78478 0.38817 1.6624 0.59914 0.87761 0.21096 1.6877 0.21096 1.4346 0 2.1434-0.53163 0.70884-0.53162 0.70884-1.6455 0-0.98731-0.78478-1.4514-0.78478-0.46412-2.464-0.46412h-1.0717v-1.6118h1.0886q2.9535 0 2.9535-2.0421 0-0.79322-0.51475-1.2236-0.51475-0.43037-1.5189-0.43037-0.7004 0-1.3502 0.20253-0.64977 0.19408-1.5358 0.7679l-0.97043-1.3839q1.6961-1.2489 3.9408-1.2489 1.8649 0 2.9113 0.80166t1.0464 2.2109z"/><path d="m44.911 48.502h-1.9831v-7.966q0-1.4261 0.06751-2.2615-0.19409 0.20253-0.481 0.44725-0.27847 0.24471-1.8902 1.5527l-0.99575-1.2573 3.6286-2.8522h1.654z"/></g></svg>
