<?xml version="1.0" encoding="UTF-8"?>
<svg width="512" height="320" version="1.1" viewBox="0 0 135.47 84.667" xml:space="preserve" xmlns="http://www.w3.org/2000/svg"><path d="m67.735 7.9373a34.396 34.396 0 0 0-16.506 4.2195l16.506 28.589 0.45838 0.79429h33.928a34.396 34.396 0 0 0-34.387-33.602zm-17.881 5.0133a34.396 34.396 0 0 0-16.515 29.383 34.396 34.396 0 0 0 16.515 29.383l16.964-29.383-16.964-29.383zm18.339 30.177-0.23565 0.40877-0.22273 0.38552-16.506 28.589a34.396 34.396 0 0 0 16.506 4.2195 34.396 34.396 0 0 0 34.387-33.602h-33.928z" stroke-width=".79092"/></svg>
