<?xml version="1.0" encoding="UTF-8"?>
<svg width="512" height="320" version="1.1" viewBox="0 0 135.47 84.667" xml:space="preserve" xmlns="http://www.w3.org/2000/svg"><path d="m67.735 43.457-17.204 17.203a25.136 25.136 0 0 0 17.204 6.8096 25.136 25.136 0 0 0 17.203-6.8096z"/><path d="m87.024 32.114-17.996 10.39 14.693 14.693a21.829 21.829 0 0 0 5.8432-14.864 21.829 21.829 0 0 0-2.54-10.22z"/><path d="m37.557 25.828a34.397 34.397 0 0 0-4.219 16.506 34.397 34.397 0 0 0 9.5196 23.754l23.584-23.584z"/><path d="m68.529 15.892v25.066l21.711-12.534a26.459 26.459 0 0 0-21.711-12.532z"/><path d="m66.941 25.158a17.198 17.198 0 0 0-13.685 7.8984l13.685 7.901z"/></svg>
