<?xml version="1.0" encoding="UTF-8"?>
<!-- Created with Inkscape (http://www.inkscape.org/) -->
<svg width="512" height="320" version="1.1" viewBox="0 0 135.47 84.667" xml:space="preserve" xmlns="http://www.w3.org/2000/svg"><g fill-rule="evenodd" stroke-width=".99996"><path d="m12.904 8.3371c-2.8777 0-5.2303 2.3063-5.2303 5.158v8.732c0 2.8515 2.3523 5.158 5.2303 5.158h109.66c2.8777 0 5.2322-2.3063 5.2322-5.158v-8.732c0-2.8515-2.3543-5.158-5.2322-5.158zm0 1.5859h109.66c2.0398 0 3.6463 1.5868 3.6463 3.5721v8.732c0 1.9854-1.6066 3.5701-3.6463 3.5701h-109.66c-2.0398 0-3.6443-1.5849-3.6443-3.5701v-8.732c0-1.9854 1.6046-3.5721 3.6443-3.5721z" stop-color="#000000"/><path d="m119.57 13.316a0.9638 0.9638 0 0 0-1.3631 0 0.9638 0.9638 0 0 1-5.3e-4 5.4e-4l-6.1378 6.1377c-0.67696 0.67696-1.7669 0.67696-2.4438 0l-6.1378-6.1377a0.9638 0.9638 0 0 1-5.3e-4 -5.4e-4 0.9638 0.9638 0 0 0-1.3631 0 0.9638 0.9638 0 0 0 0 1.3631 0.9638 0.9638 0 0 1 5.4e-4 5.3e-4l7.5008 7.5008c0.67697 0.67696 1.767 0.67696 2.4438 0l7.4997-7.4997a0.9638 0.9638 0 0 0 2e-3 -2e-3 0.9638 0.9638 0 0 0 0-1.3631z"/><path d="m12.904 30.494c-2.8778 0-5.2301 2.3061-5.2301 5.1577v35.521c0 2.8515 2.3521 5.1577 5.2301 5.1577h109.66c2.8777 0 5.2321-2.3062 5.2321-5.1577v-35.521c0-2.8514-2.3543-5.1577-5.2321-5.1577zm-5.17e-4 1.586h109.66c2.0398 0 3.6462 1.587 3.6462 3.5723v35.521c0 1.9854-1.6064 3.5723-3.6462 3.5723h-109.66c-2.0398 0-3.6441-1.587-3.6441-3.5723l5.167e-4 -15.743v-4.0353l-5.167e-4 -15.743c0-1.9853 1.6044-3.5723 3.6441-3.5723z"/></g></svg>
