<?xml version="1.0" encoding="UTF-8"?>
<!-- Created with Inkscape (http://www.inkscape.org/) -->
<svg width="512" height="320" version="1.1" viewBox="0 0 135.47 84.667" xml:space="preserve" xmlns="http://www.w3.org/2000/svg"><path d="m12.905 29.766c-2.8777 0-5.2317 2.3068-5.2317 5.1583l5.168e-4 14.819c0 2.8515 2.354 5.1583 5.2317 5.1583h109.66c2.8777 0 5.2317-2.3068 5.2317-5.1583l5.2e-4 -14.819c0-2.8515-2.354-5.1583-5.2317-5.1583h-109.66zm67.529 1.588h22.226 1.588 16.122 2.1916c2.0398 0 3.6463 1.585 3.6463 3.5703l-0.00103 14.819c0 1.9852-1.6065 3.5703-3.6463 3.5703h-2.1906-16.122-1.588-22.226v-21.959zm-71.175 3.5088v7.4709l-5.168e-4 -7.4094c0-0.020549 1.739e-4 -0.041032 5.168e-4 -0.061494z" fill-rule="evenodd"/></svg>
