<?xml version="1.0" encoding="UTF-8"?>
<svg width="512" height="320" version="1.1" viewBox="0 0 135.47 84.667" xml:space="preserve" xmlns="http://www.w3.org/2000/svg"><path d="m67.734 9.62-34.396 24.991 13.138 40.436h42.517l13.138-40.436zm-0.79274 2.1622v5.6659c-1.2698 0.4486-1.8003 1.7729-1.5059 2.8645l-18.859 14.988c-1.0263-0.48452-2.3214-0.18231-2.9978 0.83356l-7.7692-1.7328zm1.586 0 31.133 22.619-13.425 2.9937c-0.62807-0.96098-1.7838-1.2699-2.7306-0.96121l-13.666-15.625c0.65685-1.2386 0.10222-2.8622-1.3111-3.3611zm-2.1901 9.8394c0.18509 0.13422 0.38855 0.24108 0.60411 0.3173v19.405l-19.026-4.2427c-0.03504-0.23381-0.10471-0.4611-0.20671-0.67439zm2.3332 0.26149 13.574 15.519c-0.18886 0.29118-0.3118 0.62012-0.36019 0.96379l-13.357 2.9787v-19.405c0.0483-0.01706 0.09604-0.03567 0.14315-0.05581zm-33.363 14.032 7.8814 1.7576c0.14232 1.5475 1.6087 2.3722 2.8557 2.1136l9.7128 16.59c-0.59647 0.85415-0.5691 2.0066 0.07855 2.8325l-8.6369 13.305zm64.854 5.17e-4 -11.892 36.598-5.2344-8.0643c0.8451-1.1265 0.53487-2.7789-0.72504-3.4975l2.5183-19.946c0.96989-0.24667 1.6821-1.0734 1.7824-2.0692zm-52.548 2.7441 18.834 4.1998-8.1589 12.57h-5.16e-4c-0.3951-0.09894-0.82256-0.09742-1.2356 0.02119l-9.6518-16.486c0.07881-0.09593 0.15-0.19787 0.21291-0.3049zm34.585 1.2615c0.24692 0.41269 0.61301 0.74095 1.0501 0.94157l-2.5012 19.808c-0.04903 0.0079-0.09781 0.01743-0.14625 0.02842h-5.17e-4l-11.579-17.839zm-14.464 3.8696 11.526 17.756c-0.08464 0.10754-0.15985 0.22217-0.2248 0.34262l-18.945-4.1203c2.35e-4 -0.01 4.08e-4 -0.01998 5.17e-4 -0.02997-7.2e-5 -0.51731-0.1686-1.0205-0.48009-1.4335zm-8.2018 15.48 19.258 4.188c0.27359 1.4613 1.7156 2.1764 2.925 1.8702l5.2789 8.1325h-38.52l8.6994-13.402c0.75889 0.17514 1.7153-0.02293 2.3586-0.7886z" stroke-width=".7096"/></svg>
