<?xml version="1.0" encoding="UTF-8"?>
<!-- Created with Inkscape (http://www.inkscape.org/) -->
<svg width="512" height="320" version="1.1" viewBox="0 0 135.47 84.667" xml:space="preserve" xmlns="http://www.w3.org/2000/svg"><g fill-rule="evenodd"><path d="m27.251 32.279a10.054 10.054 0 0 0-10.054 10.054 10.054 10.054 0 0 0 10.054 10.054 10.054 10.054 0 0 0 10.054-10.054 10.054 10.054 0 0 0-10.054-10.054zm0 1.5859a8.4682 8.4682 0 0 1 8.4682 8.4682 8.4682 8.4682 0 0 1-8.4682 8.4682 8.4682 8.4682 0 0 1-8.4682-8.4682 8.4682 8.4682 0 0 1 8.4682-8.4682z"/><path d="m45.928 41.539h71.657c0.37941 0 0.68485 0.35412 0.68485 0.79399s-0.30544 0.79399-0.68485 0.79399h-71.657c-0.3794 0-0.68485-0.35412-0.68485-0.79399s0.30545-0.79399 0.68485-0.79399z" stroke-width="3.4526"/><circle cx="27.251" cy="42.333" r="5.0271"/></g></svg>
