<?xml version="1.0" encoding="UTF-8"?>
<!-- Created with Inkscape (http://www.inkscape.org/) -->
<svg width="512" height="320" version="1.1" viewBox="0 0 135.47 84.667" xml:space="preserve" xmlns="http://www.w3.org/2000/svg"><g fill-rule="evenodd"><rect x="7.6729" y="40.746" width="120.12" height="3.175" rx="1.5875" ry="1.5875"/><g stroke-width=".99998"><path d="m37.834 32.28a10.054 10.054 0 0 0-10.054 10.054 10.054 10.054 0 0 0 10.054 10.054 10.054 10.054 0 0 0 10.054-10.054 10.054 10.054 0 0 0-10.054-10.054zm0 1.5859a8.468 8.468 0 0 1 8.468 8.468 8.468 8.468 0 0 1-8.468 8.468 8.468 8.468 0 0 1-8.468-8.468 8.468 8.468 0 0 1 8.468-8.468z"/><path d="m97.632 32.28a10.054 10.054 0 0 0-10.054 10.054 10.054 10.054 0 0 0 10.054 10.054 10.054 10.054 0 0 0 10.054-10.054 10.054 10.054 0 0 0-10.054-10.054zm0 1.5859a8.468 8.468 0 0 1 8.468 8.468 8.468 8.468 0 0 1-8.468 8.468 8.468 8.468 0 0 1-8.468-8.468 8.468 8.468 0 0 1 8.468-8.468z"/><circle cx="37.834" cy="42.333" r="5.027"/><circle cx="97.632" cy="42.333" r="5.027"/></g></g></svg>
