<?xml version="1.0" encoding="UTF-8"?>
<!-- Created with Inkscape (http://www.inkscape.org/) -->
<svg width="512" height="320" version="1.1" viewBox="0 0 135.47 84.667" xml:space="preserve" xmlns="http://www.w3.org/2000/svg"><path d="m20.242 29.767-3.7165 8.7657-9.5139 0.80887 7.2228 6.2572-2.1701 9.3003 8.1777-4.9316 8.1743 4.9316-2.1557-9.3003 7.205-6.2535-9.5068-0.81956z" stop-color="#000000" stroke-width="1.8244"/><path d="m67.742 29.767-3.7165 8.7621-9.5176 0.80888 7.2264 6.2572-2.1702 9.3038 8.1778-4.9352 8.1743 4.9316-2.1557-9.3004 7.2016-6.2536-9.5034-0.81957zm4e-3 6.0719 2.0881 4.9245 5.3414 0.45964-4.0479 3.5169 1.2115 5.2273-4.5966-2.7722z" stop-color="#000000" stroke-width="1.8244"/><path d="m115.24 29.767-3.7165 8.7621-9.5176 0.80888 7.2264 6.2572-2.1702 9.3038 8.1778-4.9352 8.1743 4.9316-2.1557-9.3004 7.2015-6.2536-9.5034-0.81957zm4e-3 6.0719 2.088 4.9245 5.3414 0.45964-4.0478 3.5169 1.2115 5.2273-4.5966-2.7722-4.5932 2.7722 1.2187-5.2273-4.0586-3.5169 5.345-0.45254z" stop-color="#000000" stroke-width="1.8244"/></svg>
