<?xml version="1.0" encoding="UTF-8"?>
<svg width="512" height="320" version="1.1" viewBox="0 0 135.47 84.667" xml:space="preserve" xmlns="http://www.w3.org/2000/svg"><path d="m7.6736 8.3363v66.408 1.586h1.586 118.54v-1.586h-118.54v-66.408h-1.586z"/><circle cx="20.475" cy="64.868" r="2.4"/><circle cx="26.475" cy="52.868" r="2.4"/><circle cx="34.475" cy="58.868" r="2.4"/><circle cx="40.475" cy="44.868" r="2.4"/><circle cx="48.475" cy="50.868" r="2.4"/><circle cx="56.475" cy="36.868" r="2.4"/><circle cx="62.475" cy="46.868" r="2.4"/><circle cx="30.475" cy="40.868" r="2.4"/><circle cx="70.475" cy="28.868" r="2.4"/><circle cx="78.475" cy="34.868" r="2.4"/><circle cx="86.475" cy="20.868" r="2.4"/><circle cx="92.475" cy="30.868" r="2.4"/><circle cx="60.475" cy="24.868" r="2.4"/><circle cx="88.475" cy="42.868" r="2.4"/><circle cx="102.48" cy="34.868" r="2.4"/><circle cx="110.48" cy="40.868" r="2.4"/></svg>
