<?xml version="1.0" encoding="UTF-8"?>
<!-- Created with Inkscape (http://www.inkscape.org/) -->
<svg width="512" height="320" version="1.1" viewBox="0 0 135.47 84.667" xml:space="preserve" xmlns="http://www.w3.org/2000/svg"><g fill-rule="evenodd"><path d="m12.904 8.3369c-2.8777 0-5.2301 2.3061-5.2301 5.1577v57.677c0 2.8515 2.3521 5.1577 5.2301 5.1577h109.66c2.8777 0 5.2321-2.3061 5.2321-5.1577v-57.677c0-2.8515-2.3543-5.1577-5.2321-5.1577zm0 1.5859h109.66c2.0398 0 3.6462 1.5864 3.6462 3.5718v57.677c0 1.9854-1.6064 3.5702-3.6462 3.5702h-109.66c-2.0398 0-3.6441-1.585-3.6441-3.5702v-57.677c0-1.9854 1.6044-3.5718 3.6441-3.5718z" stroke-width=".99996"/><path d="m15.737 11.242c-2.8515 0-5.1578 2.3524-5.1578 5.2302v51.722c0 2.8777 2.3063 5.2302 5.1578 5.2302h34.886c2.8515 0 5.1578-2.3524 5.1578-5.2302v-51.722c0-2.8777-2.3063-5.2302-5.1578-5.2302zm0 1.5859h34.886c1.9854 0 3.5719 1.6045 3.5719 3.6442v51.722c0 2.0398-1.5865 3.6442-3.5719 3.6442h-34.886c-1.9853 0-3.5719-1.6045-3.5719-3.6442v-51.722c0-2.0397 1.5865-3.6442 3.5719-3.6442z"/></g></svg>
