<?xml version="1.0" encoding="UTF-8"?>
<!-- Created with Inkscape (http://www.inkscape.org/) -->
<svg width="512" height="320" version="1.1" viewBox="0 0 135.47 84.667" xml:space="preserve" xmlns="http://www.w3.org/2000/svg"><path d="m12.904 8.337c-2.8777 0-5.2302 2.3063-5.2302 5.1578v7.738 46.414 3.5254c0 2.8515 2.3522 5.1578 5.2302 5.1578h109.66c2.8777 0 5.2322-2.3063 5.2322-5.1578v-3.5254-46.414-7.738c0-2.8515-2.3545-5.1578-5.2322-5.1578h-109.66zm0 1.5859h41.292v11.695h-44.936v-0.38499-7.738c0-1.9854 1.6045-3.5719 3.6442-3.5719zm42.877 0h66.78c2.0398 0 3.6463 1.5864 3.6463 3.5719v7.738 46.414 3.5254c0 1.9854-1.6064 3.5703-3.6463 3.5703h-66.78v-64.819zm-46.522 13.281h44.936v11.695h-44.936v-11.695zm0 13.281h44.936v24.976h-44.936v-24.976zm0 26.562h44.936v11.695h-41.292c-2.0398 0-3.6442-1.5851-3.6442-3.5703v-3.5254-4.5992z" fill-rule="evenodd"/></svg>
