<?xml version="1.0" encoding="UTF-8"?>
<!-- Created with Inkscape (http://www.inkscape.org/) -->
<svg width="512" height="320" version="1.1" viewBox="0 0 135.47 84.667" xml:space="preserve" xmlns="http://www.w3.org/2000/svg"><g fill-rule="evenodd" stroke-width=".99998"><circle cx="17.727" cy="17.86" r="10.054"/><path d="m41.479 8.3359c-2.8778 0-5.2322 2.3062-5.2322 5.1578v8.7323c0 2.8516 2.3544 5.1578 5.2322 5.1578h81.082c2.8778 0 5.2322-2.3062 5.2322-5.1578v-8.7323c0-2.8516-2.3544-5.1578-5.2322-5.1578h-81.082z"/><path d="m12.904 36.379c-2.8778 0-5.2302 2.3068-5.2302 5.1583v29.635c0 2.8516 2.3522 5.1578 5.2302 5.1578h109.66c2.8778 0 5.2322-2.3063 5.2322-5.1578v-29.635c0-2.8516-2.3544-5.1583-5.2322-5.1583h-109.66zm113.3 5.0968c3.5e-4 0.020497 5.2e-4 0.040911 5.2e-4 0.061495v12.305h-5.2e-4v-12.366zm-116.95 13.954v15.803c-3.24e-4 -0.019905-5.168e-4 -0.039959-5.168e-4 -0.059945l5.168e-4 -15.743z"/></g></svg>
