<?xml version="1.0" encoding="UTF-8"?>
<!-- Created with Inkscape (http://www.inkscape.org/) -->
<svg width="512" height="320" version="1.1" viewBox="0 0 135.47 84.667" xml:space="preserve" xmlns="http://www.w3.org/2000/svg">
  
  
  
  
  
  
  
  
  
  
  
  
  
<path d="m12.904 8.3384c-2.8776 0-5.2298 2.3054-5.2298 5.1569v57.676c0 2.8514 2.3518 5.1569 5.2298 5.1569h109.66c2.8776 0 5.2318-2.3054 5.2318-5.1569v-57.676c0-2.8514-2.3542-5.1569-5.2318-5.1569h-109.66zm0.001033 1.5855-0.001033 5.168e-4h34.281v15.874h-37.924v-12.303c0-1.9854 1.6042-3.5714 3.6438-3.5714zm35.867 5.168e-4h73.789c2.0398 0 3.6464 1.5855 3.6464 3.5709v12.303h-37.924v-15.874h-1.587v15.874h-37.924v-15.874zm-39.511 17.46h37.924v47.356h-34.281c-2.0398 0-3.6438-1.5848-3.6438-3.5699v-39.112-1.586h0.0010335v-3.0883zm39.511 0h37.924v47.356h-37.924v-47.356zm39.511 0h37.924v3.0888h0.00258v1.5855 39.112c0 1.9854-1.6066 3.5699-3.6464 3.5699h-34.28v-47.356z"/><path d="m17.601 30.495c-2.8778 0-5.2303 2.3063-5.2303 5.158v1.7911c0 2.8517 2.3525 5.158 5.2303 5.158h21.244c2.8778 0 5.2303-2.3063 5.2303-5.158v-1.7911c0-2.8517-2.3525-5.158-5.2303-5.158zm0 1.586h21.244c2.0398 0 3.6443 1.5866 3.6443 3.572v1.7911c0 1.9854-1.6045 3.572-3.6443 3.572h-21.244c-2.0398 0-3.6443-1.5866-3.6443-3.572v-1.7911c0-1.9854 1.6045-3.572 3.6443-3.572z"/><path d="m21.325 35.756c-0.43899 0-0.79219 0.3532-0.79219 0.79219 0 0.43899 0.3532 0.79271 0.79219 0.79271h13.795c0.43899 0 0.79219-0.3537 0.79219-0.79271 0-0.43899-0.3532-0.79219-0.79219-0.79219z"/><path d="m17.601 45.713c-2.8778 0-5.2303 2.3063-5.2303 5.158v1.7911c0 2.8517 2.3525 5.158 5.2303 5.158h21.244c2.8778 0 5.2303-2.3063 5.2303-5.158v-1.7911c0-2.8517-2.3525-5.158-5.2303-5.158zm0 1.586h21.244c2.0398 0 3.6443 1.5866 3.6443 3.572v1.7911c0 1.9854-1.6045 3.572-3.6443 3.572h-21.244c-2.0398 0-3.6443-1.5866-3.6443-3.572v-1.7911c0-1.9854 1.6045-3.572 3.6443-3.572z"/><path d="m21.325 50.974c-0.43899 0-0.79219 0.3532-0.79219 0.79219 0 0.43899 0.3532 0.79271 0.79219 0.79271h13.795c0.43899 0 0.79219-0.3537 0.79219-0.79271 0-0.43899-0.3532-0.79219-0.79219-0.79219z"/><path d="m17.601 60.93c-2.8778 0-5.2303 2.3063-5.2303 5.158v1.7911c0 2.8517 2.3525 5.158 5.2303 5.158h21.244c2.8778 0 5.2303-2.3063 5.2303-5.158v-1.7911c0-2.8517-2.3525-5.158-5.2303-5.158zm0 1.586h21.244c2.0398 0 3.6443 1.5866 3.6443 3.572v1.7911c0 1.9854-1.6045 3.572-3.6443 3.572h-21.244c-2.0398 0-3.6443-1.5866-3.6443-3.572v-1.7911c0-1.9854 1.6045-3.572 3.6443-3.572z"/><path d="m21.325 66.191c-0.43899 0-0.79219 0.3532-0.79219 0.79219 0 0.43899 0.3532 0.79271 0.79219 0.79271h13.795c0.43899 0 0.79219-0.3537 0.79219-0.79271 0-0.43899-0.3532-0.79219-0.79219-0.79219z"/><path d="m57.112 30.495c-2.8778 0-5.2303 2.3063-5.2303 5.158v1.7911c0 2.8517 2.3525 5.158 5.2303 5.158h21.244c2.8778 0 5.2303-2.3063 5.2303-5.158v-1.7911c0-2.8517-2.3525-5.158-5.2303-5.158zm0 1.586h21.244c2.0398 0 3.6443 1.5866 3.6443 3.572v1.7911c0 1.9854-1.6045 3.572-3.6443 3.572h-21.244c-2.0398 0-3.6443-1.5866-3.6443-3.572v-1.7911c0-1.9854 1.6045-3.572 3.6443-3.572z"/><path d="m60.837 35.756c-0.43899 0-0.79219 0.3532-0.79219 0.79219 0 0.43899 0.3532 0.79271 0.79219 0.79271h13.795c0.43899 0 0.79219-0.3537 0.79219-0.79271 0-0.43899-0.3532-0.79219-0.79219-0.79219z"/><path d="m57.112 45.712c-2.8778 0-5.2303 2.3063-5.2303 5.158v1.7911c0 2.8517 2.3525 5.158 5.2303 5.158h21.244c2.8778 0 5.2303-2.3063 5.2303-5.158v-1.7911c0-2.8517-2.3525-5.158-5.2303-5.158zm0 1.586h21.244c2.0398 0 3.6443 1.5866 3.6443 3.572v1.7911c0 1.9854-1.6045 3.572-3.6443 3.572h-21.244c-2.0398 0-3.6443-1.5866-3.6443-3.572v-1.7911c0-1.9854 1.6045-3.572 3.6443-3.572z"/><path d="m60.837 50.973c-0.43899 0-0.79219 0.3532-0.79219 0.79219 0 0.43899 0.3532 0.79271 0.79219 0.79271h13.795c0.43899 0 0.79219-0.3537 0.79219-0.79271 0-0.43899-0.3532-0.79219-0.79219-0.79219z"/><path d="m57.112 60.93c-2.8778 0-5.2303 2.3063-5.2303 5.158v1.7911c0 2.8517 2.3525 5.158 5.2303 5.158h21.244c2.8778 0 5.2303-2.3063 5.2303-5.158v-1.7911c0-2.8517-2.3525-5.158-5.2303-5.158zm0 1.586h21.244c2.0398 0 3.6443 1.5866 3.6443 3.572v1.7911c0 1.9854-1.6045 3.572-3.6443 3.572h-21.244c-2.0398 0-3.6443-1.5866-3.6443-3.572v-1.7911c0-1.9854 1.6045-3.572 3.6443-3.572z"/><path d="m60.837 66.191c-0.43899 0-0.79219 0.3532-0.79219 0.79219 0 0.43899 0.3532 0.79271 0.79219 0.79271h13.795c0.43899 0 0.79219-0.3537 0.79219-0.79271 0-0.43899-0.3532-0.79219-0.79219-0.79219z"/><path d="m96.623 30.495c-2.8778 0-5.2303 2.3063-5.2303 5.158v1.7911c0 2.8517 2.3525 5.158 5.2303 5.158h21.244c2.8778 0 5.2303-2.3063 5.2303-5.158v-1.7911c0-2.8517-2.3525-5.158-5.2303-5.158zm0 1.586h21.244c2.0398 0 3.6443 1.5866 3.6443 3.572v1.7911c0 1.9854-1.6045 3.572-3.6443 3.572h-21.244c-2.0398 0-3.6443-1.5866-3.6443-3.572v-1.7911c0-1.9854 1.6045-3.572 3.6443-3.572z"/><path d="m100.35 35.756c-0.43899 0-0.79219 0.3532-0.79219 0.79219 0 0.43899 0.3532 0.79271 0.79219 0.79271h13.795c0.43899 0 0.79218-0.3537 0.79218-0.79271 0-0.43899-0.35319-0.79219-0.79218-0.79219z"/><path d="m96.623 45.712c-2.8778 0-5.2303 2.3063-5.2303 5.158v1.7911c0 2.8517 2.3525 5.158 5.2303 5.158h21.244c2.8778 0 5.2303-2.3063 5.2303-5.158v-1.7911c0-2.8517-2.3525-5.158-5.2303-5.158zm0 1.586h21.244c2.0398 0 3.6443 1.5866 3.6443 3.572v1.7911c0 1.9854-1.6045 3.572-3.6443 3.572h-21.244c-2.0398 0-3.6443-1.5866-3.6443-3.572v-1.7911c0-1.9854 1.6045-3.572 3.6443-3.572z"/><path d="m100.35 50.973c-0.43899 0-0.79219 0.3532-0.79219 0.79219 0 0.43899 0.3532 0.79271 0.79219 0.79271h13.795c0.43899 0 0.79218-0.3537 0.79218-0.79271 0-0.43899-0.35319-0.79219-0.79218-0.79219z"/><path d="m96.623 60.93c-2.8778 0-5.2303 2.3063-5.2303 5.158v1.7911c0 2.8517 2.3525 5.158 5.2303 5.158h21.244c2.8778 0 5.2303-2.3063 5.2303-5.158v-1.7911c0-2.8517-2.3525-5.158-5.2303-5.158zm0 1.586h21.244c2.0398 0 3.6443 1.5866 3.6443 3.572v1.7911c0 1.9854-1.6045 3.572-3.6443 3.572h-21.244c-2.0398 0-3.6443-1.5866-3.6443-3.572v-1.7911c0-1.9854 1.6045-3.572 3.6443-3.572z"/><path d="m100.35 66.191c-0.43899 0-0.79219 0.3532-0.79219 0.79219 0 0.43899 0.3532 0.79271 0.79219 0.79271h13.795c0.43899 0 0.79218-0.3537 0.79218-0.79271 0-0.43899-0.35319-0.79219-0.79218-0.79219z"/><path d="m21.327 19.979c-0.43899 0-0.79219 0.3532-0.79219 0.79219 0 0.43899 0.3532 0.79271 0.79219 0.79271h13.795c0.43899 0 0.79219-0.3537 0.79219-0.79271 0-0.43899-0.3532-0.79219-0.79219-0.79219z"/><path d="m18.399 14.159c-0.43899 0-0.79222 0.35271-0.79222 0.7917 0 0.43899 0.35323 0.79274 0.79222 0.79274h19.65c0.43899 0 0.79222-0.35374 0.79222-0.79274 0-0.43899-0.35323-0.7917-0.79222-0.7917z"/><path d="m60.838 19.979c-0.43899 0-0.79219 0.3532-0.79219 0.79219 0 0.43899 0.3532 0.79271 0.79219 0.79271h13.795c0.43899 0 0.79219-0.3537 0.79219-0.79271 0-0.43899-0.3532-0.79219-0.79219-0.79219z"/><path d="m57.91 14.159c-0.43899 0-0.79222 0.35271-0.79222 0.7917 0 0.43899 0.35323 0.79274 0.79222 0.79274h19.65c0.43899 0 0.79222-0.35374 0.79222-0.79274 0-0.43899-0.35323-0.7917-0.79222-0.7917z"/><path d="m100.35 19.979c-0.43899 0-0.79219 0.3532-0.79219 0.79219 0 0.43899 0.3532 0.79271 0.79219 0.79271h13.795c0.43899 0 0.79219-0.3537 0.79219-0.79271 0-0.43899-0.3532-0.79219-0.79219-0.79219z"/><path d="m97.42 14.159c-0.43899 0-0.79222 0.35271-0.79222 0.7917 0 0.43899 0.35323 0.79274 0.79222 0.79274h19.65c0.43899 0 0.79221-0.35374 0.79221-0.79274 0-0.43899-0.35322-0.7917-0.79221-0.7917z"/></svg>
