<?xml version="1.0" encoding="UTF-8"?>
<!-- Created with Inkscape (http://www.inkscape.org/) -->
<svg width="512" height="320" version="1.1" viewBox="0 0 135.47 84.667" xml:space="preserve" xmlns="http://www.w3.org/2000/svg"><path d="m73.368 20.904-4.99e-4 -1.34e-4c-11.797-3.1018-23.883 3.9116-27.044 15.693-3.1682 11.824 3.8487 23.978 15.673 27.146 11.783 3.1536 23.9-3.8066 27.113-15.574 0.2042-0.59866-0.18105-0.97674-0.52716-1.0695-0.42288-0.11332-0.85756 0.13764-0.97088 0.56053-2.9416 10.978-14.226 17.493-25.204 14.552-10.978-2.9416-17.493-14.226-14.552-25.204 2.9416-10.978 14.226-17.493 25.204-14.552 0.42288 0.11332 0.85756-0.13764 0.97088-0.56054 0.13839-0.51647-0.24909-0.89586-0.6621-0.99114z" fill-rule="evenodd"/></svg>
