<?xml version="1.0" encoding="UTF-8"?>
<!-- Created with Inkscape (http://www.inkscape.org/) -->
<svg width="512" height="320" version="1.1" viewBox="0 0 135.47 84.667" xml:space="preserve" xmlns="http://www.w3.org/2000/svg"><g fill-rule="evenodd"><path d="m20.239 29.767a12.566 12.566 0 0 0-12.566 12.566 12.566 12.566 0 0 0 12.566 12.566 12.566 12.566 0 0 0 12.566-12.566 12.566 12.566 0 0 0-12.566-12.566zm-0.52815 6.3982h1.6542v12.337h-1.9829v-7.9661c0-0.95073 0.02218-1.7045 0.06718-2.2614-0.12939 0.13502-0.28985 0.28387-0.48112 0.44701-0.18565 0.16314-0.81537 0.68092-1.8899 1.5529l-0.99583-1.2573z" /><path d="m37.264 41.539c-0.3794 0-0.68525 0.3539-0.68525 0.79377s0.30585 0.79429 0.68525 0.79429h13.447c0.3794 0 0.68525-0.35442 0.68525-0.79429s-0.30585-0.79377-0.68525-0.79377z"/><path d="m67.735 32.943a9.3904 9.3904 0 0 0-9.3904 9.3904 9.3904 9.3904 0 0 0 9.3904 9.3904 9.3904 9.3904 0 0 0 9.3904-9.3904 9.3904 9.3904 0 0 0-9.3904-9.3904zm-0.04909 3.1332c1.1476 0 2.0677 0.30086 2.7596 0.90281 0.69196 0.59632 1.0377 1.4007 1.0377 2.4133 0 0.55695-0.10083 1.0858-0.30335 1.5865-0.1969 0.50069-0.50356 1.0184-0.91986 1.5529-0.41068 0.52881-1.0974 1.2462-2.0594 2.1519l-2.1431 2.0759v0.08372h5.8561v1.7467h-8.3625v-1.5012l3.1813-3.1983c0.93949-0.96199 1.5612-1.6429 1.865-2.0423 0.30941-0.40506 0.53427-0.78451 0.67491-1.139 0.14064-0.35441 0.21084-0.7344 0.21084-1.1395 0-0.55694-0.16838-0.99556-0.50592-1.3162-0.33192-0.32066-0.79323-0.48112-1.3839-0.48112-0.47256 0-0.93126 0.08711-1.3757 0.26149-0.4388 0.1744-0.9481 0.4895-1.5276 0.94519l-1.0718-1.308c0.68633-0.57945 1.3529-0.99006 1.9999-1.232 0.64695-0.24191 1.3362-0.36278 2.0676-0.36278z"/></g><g transform="translate(-1.4925 -29.768)"><path d="m69.227 59.535a12.566 12.566 0 0 0-12.566 12.566 12.566 12.566 0 0 0 12.566 12.566 12.566 12.566 0 0 0 12.566-12.566 12.566 12.566 0 0 0-12.566-12.566zm0 1.5881a10.978 10.978 0 0 1 10.978 10.978 10.978 10.978 0 0 1-10.978 10.978 10.978 10.978 0 0 1-10.978-10.978 10.978 10.978 0 0 1 10.978-10.978z" fill-rule="evenodd" /></g><path d="m119.02 39.004q0 1.173-0.68352 1.9577-0.68352 0.77634-1.924 1.0464v0.0675q1.4852 0.18565 2.2278 0.92824 0.74259 0.73415 0.74259 1.9577 0 1.7805-1.2573 2.751-1.2573 0.96199-3.5779 0.96199-2.0506 0-3.4598-0.66665v-1.7636q0.78478 0.38817 1.6624 0.59914 0.87761 0.21096 1.6877 0.21096 1.4346 0 2.1434-0.53163 0.70884-0.53162 0.70884-1.6455 0-0.98731-0.78478-1.4514-0.78478-0.46412-2.464-0.46412h-1.0717v-1.6118h1.0886q2.9535 0 2.9535-2.0421 0-0.79322-0.51475-1.2236-0.51475-0.43037-1.5189-0.43037-0.7004 0-1.3502 0.20253-0.64977 0.19408-1.5358 0.7679l-0.97043-1.3839q1.6961-1.2489 3.9408-1.2489 1.8649 0 2.9113 0.80166t1.0464 2.2109z" fill-rule="evenodd"/><g transform="translate(46.003 -29.768)"><path d="m69.227 59.535a12.566 12.566 0 0 0-12.566 12.566 12.566 12.566 0 0 0 12.566 12.566 12.566 12.566 0 0 0 12.566-12.566 12.566 12.566 0 0 0-12.566-12.566zm0 1.5881a10.978 10.978 0 0 1 10.978 10.978 10.978 10.978 0 0 1-10.978 10.978 10.978 10.978 0 0 1-10.978-10.978 10.978 10.978 0 0 1 10.978-10.978z" fill-rule="evenodd" /></g><path d="m84.76 41.539c-0.3794 0-0.68525 0.3539-0.68525 0.79377s0.30585 0.79429 0.68525 0.79429h13.447c0.3794 0 0.68525-0.35442 0.68525-0.79429s-0.30585-0.79377-0.68525-0.79377z" fill-rule="evenodd"/></svg>
