<?xml version="1.0" encoding="UTF-8"?>
<!-- Created with Inkscape (http://www.inkscape.org/) -->
<svg width="512" height="320" version="1.1" viewBox="0 0 135.47 84.667" xml:space="preserve" xmlns="http://www.w3.org/2000/svg"><path d="m85.327 33.608c-4.8079 0-8.7225 3.9146-8.7225 8.7225 0 4.8079 3.9146 8.7225 8.7225 8.7225 4.8079 0 8.7225-3.9146 8.7225-8.7225 0-4.8079-3.9146-8.7225-8.7225-8.7225z" stroke-linecap="round" stroke-linejoin="round" stroke-width="1.5859"/><path d="m85.726 55.956c7.5335 0 13.622-6.0895 13.622-13.623 0-7.5335-6.089-13.622-13.622-13.622h-35.985c-7.5334 0-13.622 6.0889-13.622 13.622 0 7.5334 6.0889 13.623 13.622 13.623zm0-1.588h-35.985c-6.6813 0-12.034-5.3531-12.034-12.034 0-6.6813 5.353-12.035 12.034-12.035h35.985c6.6814 0 12.034 5.3536 12.034 12.035 0 6.6813-5.3531 12.034-12.034 12.034z" stroke-width=".99998"/></svg>
