<?xml version="1.0" encoding="UTF-8"?>
<!-- Created with Inkscape (http://www.inkscape.org/) -->
<svg width="512" height="320" version="1.1" viewBox="0 0 135.47 84.667" xml:space="preserve" xmlns="http://www.w3.org/2000/svg"><path d="m53.221 8.3354v0.00155h-19.942c-2.8776 0-5.2312 2.306-5.2312 5.1573v57.679c0 2.8513 2.3536 5.1573 5.2312 5.1573h19.942v1e-3h29.026v-1e-3h19.942c2.8776 0 5.2312-2.306 5.2312-5.1573v-57.679c0-2.8513-2.3536-5.1573-5.2312-5.1573h-19.942v-0.00155zm-19.943 1.5865h19.943v0.00103h0.75551v20.549h-24.344v-16.977c0-1.9854 1.6054-3.5724 3.6453-3.5724zm48.969 0h19.942c2.0398 0 3.6458 1.587 3.6458 3.5724v16.977h-24.344v-20.549h0.75551zm-26.684 0.0010335h24.343v20.549h-24.343zm-25.93 22.134h24.344v20.55h-24.343v-18.999h-5.17e-4zm25.93 0h24.343v20.55h-24.343zm25.929 0h24.344v20.55h-24.344zm-51.858 22.136h24.343v20.549h1.586v-20.549h24.343v20.549h1.586v-20.549h24.344v16.979c0 1.9854-1.6054 3.5724-3.6452 3.5724h-19.943v-0.0016h-29.025v0.0016h-19.942c-2.0398 0-3.6458-1.587-3.6458-3.5724v-13.888z" fill-rule="evenodd"/></svg>
