<?xml version="1.0" encoding="UTF-8"?>
<!-- Created with Inkscape (http://www.inkscape.org/) -->
<svg width="512" height="320" version="1.1" viewBox="0 0 135.47 84.667" xml:space="preserve" xmlns="http://www.w3.org/2000/svg"><path d="m12.904 8.338c-2.8776 0-5.2297 2.3058-5.2297 5.1573v57.676c0 2.8514 2.3517 5.1573 5.2297 5.1573h109.66c2.8776 0 5.2317-2.3058 5.2317-5.1573v-57.676c0-2.8514-2.354-5.1573-5.2317-5.1573h-109.66zm0 1.5859h24.404v20.549h-28.047v-16.978c0-1.9854 1.6041-3.5714 3.6437-3.5714zm25.99 0h28.047v20.549h-28.047v-20.549zm29.633 0h54.034c2.0398 0 3.6463 1.586 3.6463 3.5714v16.978h-57.681v-20.549zm-59.267 22.135h116.95v39.112c0 1.9854-1.6065 3.5698-3.6463 3.5698h-109.66c-2.0398 0-3.6437-1.5847-3.6437-3.5698v-39.112z" fill-rule="evenodd"/></svg>
