<?xml version="1.0" encoding="UTF-8"?>
<!-- Created with Inkscape (http://www.inkscape.org/) -->
<svg width="512" height="320" version="1.1" viewBox="0 0 135.47 84.667" xml:space="preserve" xmlns="http://www.w3.org/2000/svg"><g fill-rule="evenodd"><path d="m22.954 29.766c-2.8776 0-5.2322 2.3064-5.2322 5.1578l5.17e-4 14.819c0 2.8514 2.3546 5.1583 5.2322 5.1583h45.299c2.8776 0 5.2322-2.3069 5.2322-5.1583l5.17e-4 -14.819c0-2.8514-2.3546-5.1578-5.2322-5.1578zm-5.16e-4 1.5875v5.16e-4h45.301v-5.16e-4c2.0398 0 3.6463 1.5845 3.6463 3.5698l-1e-3 14.819c0 1.9852-1.6065 3.5703-3.6463 3.5703h-45.299c-2.0397 0-3.6463-1.5852-3.6463-3.5703l-1e-3 -14.819c0-1.9854 1.6064-3.5698 3.6463-3.5698z" stroke-width=".99998"/><g stroke-width="1.0174"><path d="m58.619 48.502v-12.337h2.0877v10.607h5.4069v1.7299z"/><path d="m49.273 41.903h1.45q1.4587 0 2.1139-0.52319 0.65513-0.52319 0.65513-1.5527 0-1.0464-0.70754-1.5021-0.70754-0.45568-2.1313-0.45568h-1.3801zm0 1.6708v4.9281h-2.0877v-12.337h3.6075q2.472 0 3.66 0.89448 1.188 0.89448 1.188 2.7003 0 2.3037-2.4807 3.2826l3.6076 5.4597h-2.3759l-3.0572-4.9281z"/><path d="m41.472 48.502h-2.0877v-10.607h-3.756v-1.7299h9.5997v1.7299h-3.756z"/><path d="m31.156 37.722q-1.7994 0-2.8301 1.232-1.0307 1.232-1.0307 3.4007 0 2.27 0.98705 3.4345 0.99578 1.1645 2.8738 1.1645 0.81235 0 1.5723-0.15189 0.75994-0.16033 1.581-0.40505v1.7299q-1.5024 0.5485-3.4066 0.5485-2.8039 0-4.3063-1.6371-1.5024-1.6455-1.5024-4.7003 0-1.924 0.725-3.367 0.73374-1.443 2.1139-2.2109 1.3801-0.76791 3.2407-0.76791 1.9566 0 3.6163 0.79322l-0.75121 1.6793q-0.64638-0.29535-1.3714-0.51475-0.71627-0.22784-1.5111-0.22784z"/></g><path d="m98.536 29.766c-2.8776 0-5.2322 2.3064-5.2322 5.1578l5.17e-4 14.819c0 2.8514 2.3546 5.1583 5.2322 5.1583h13.976c2.8776 0 5.2322-2.3069 5.2322-5.1583l5.1e-4 -14.819c0-2.8514-2.3546-5.1578-5.2322-5.1578zm-5.17e-4 1.5875v5.16e-4h13.978v-5.16e-4c2.0398 0 3.6463 1.5845 3.6463 3.5698l-1e-3 14.819c0 1.9852-1.6065 3.5703-3.6463 3.5703h-13.976c-2.0398 0-3.6463-1.5852-3.6463-3.5703l-1e-3 -14.819c0-1.9854 1.6064-3.5698 3.6463-3.5698z" stroke-width=".99998"/><path d="m106.74 37.722q-1.7994 0-2.8301 1.232-1.0307 1.232-1.0307 3.4007 0 2.27 0.98705 3.4345 0.99579 1.1645 2.8738 1.1645 0.81236 0 1.5723-0.15189 0.75995-0.16033 1.581-0.40505v1.7299q-1.5024 0.5485-3.4066 0.5485-2.8039 0-4.3063-1.6371-1.5024-1.6455-1.5024-4.7003 0-1.924 0.725-3.367 0.73373-1.443 2.1139-2.2109 1.3801-0.76791 3.2407-0.76791 1.9566 0 3.6163 0.79322l-0.75121 1.6793q-0.64638-0.29535-1.3714-0.51475-0.71626-0.22784-1.5111-0.22784z" stroke-width="1.0174"/><path d="m82.631 43.093h-3.3585v-1.5021h3.3585v-3.4429h1.5189v3.4429h3.367v1.5021h-3.367v3.426h-1.5189z" aria-label="+"/></g></svg>
