<?xml version="1.0" encoding="UTF-8"?>
<!-- Created with Inkscape (http://www.inkscape.org/) -->
<svg width="512" height="320" version="1.1" viewBox="0 0 135.47 84.667" xml:space="preserve" xmlns="http://www.w3.org/2000/svg"><g fill-rule="evenodd"><path d="m24.812 17.992c-2.8777 0-5.2322 2.3068-5.2322 5.1583l5.16e-4 38.366c0 2.8515 2.3545 5.1583 5.2322 5.1583h85.841c2.8777 0 5.2322-2.3068 5.2322-5.1583l5.1e-4 -38.366c0-2.8515-2.3545-5.1583-5.2322-5.1583zm-5.17e-4 1.588h85.843c2.0398 0 3.6463 1.5851 3.6463 3.5703l-0.00103 38.366c0 1.9854-1.6064 3.5703-3.6463 3.5703h-85.841c-2.0398 0-3.6463-1.5851-3.6463-3.5703l-1e-3 -38.366c0-1.9854 1.6064-3.5703 3.6463-3.5703z"/><path d="m28.574 23.527v1.7301h1.8795v10.607h-1.8795v1.7301h5.8487v-1.7301h-1.88v-10.607h1.88v-1.7301z"/></g></svg>
