<?xml version="1.0" encoding="UTF-8"?>
<!-- Created with Inkscape (http://www.inkscape.org/) -->
<svg width="512" height="320" version="1.1" viewBox="0 0 135.47 84.667" xml:space="preserve" xmlns="http://www.w3.org/2000/svg"><g fill-rule="evenodd"><path d="m27.25 32.28c-5.5524 0-10.054 4.5013-10.054 10.054s4.5013 10.054 10.054 10.054 10.054-4.5013 10.054-10.054-4.5013-10.054-10.054-10.054zm-1e-3 0.57658-7e-5 1.48e-4h3e-3c0.20287 0.0067 0.40548 0.01989 0.60751 0.03958 2.5308 0.30144 4.4943 2.4516 4.4943 5.0634 0 0.77683 0.3217 1.4358 0.78017 1.9825-3.5406-0.28955-5.8655-2.5764-5.8833-4.8772 0 2.3272-2.3627 4.594-5.8842 4.8781 0.45891-0.54685 0.78116-1.2062 0.78116-1.9835 0-2.612 1.9633-4.7624 4.4943-5.0634 0.20202-0.01969 0.40462-0.03289 0.6075-0.03958zm2.4e-4 4.2932 8e-5 7.6e-5c0.69835 1.2172 1.9623 2.1707 3.5084 2.7218-0.0411 2.5585-1.5993 4.6039-3.5075 4.6039-1.9083-3.3e-5 -3.4666-2.0457-3.5075-4.6048 1.5454-0.55124 2.8084-1.5045 3.5064-2.7211zm-4.0784 2.9033c0.0756 1.9632 0.92976 3.7215 2.2381 4.6077-0.29589 0.90547-1.1474 1.5596-2.1517 1.5596-1.43 0-2.5222 0.93426-3.1708 2.317-0.67441-0.77882-1.2174-1.6623-1.6075-2.6158 0.01-0.92517-0.0879-1.896-0.0274-2.6055 0-0.83152 0.4565-1.5959 1.1882-1.9909 0.42224-0.24378 0.8831-0.55317 1.2933-0.93072 0.77774-0.02537 1.5317-0.14306 2.2379-0.3414zm8.1591 4.38e-4c0.70627 0.19821 1.4603 0.31582 2.2381 0.34102 0.41012 0.37753 0.87092 0.68689 1.2931 0.93064 0.73173 0.39501 1.1879 1.1595 1.1881 1.991 0.06044 0.70954-0.03725 1.6804-0.02746 2.6056-0.39004 0.95347-0.93295 1.8369-1.6073 2.6157-0.64875-1.3827-1.741-2.317-3.1711-2.317-1.0043-1.9e-5 -1.8558-0.65416-2.1516-1.5596 1.3083-0.88609 2.1623-2.6442 2.2381-4.6074zm-6.3191 0.37501c-0.11939 0-0.21615 0.09676-0.21615 0.21615 0 0.11939 0.0968 0.21623 0.21615 0.21623 0.2996 0 0.32009 0.16952 0.78998 0.16952 0.31694 0 0.56609-0.12278 0.66018-0.17665l5.3e-4 -4.38e-4v-7.6e-5h7e-5c0.1034-0.05969 0.13878-0.19192 0.0791-0.2953-0.0597-0.1034-0.19191-0.13886-0.2953-0.07916-0.13516 0.07803-0.28842 0.11912-0.44449 0.11912-0.35704 0-0.35812-0.16944-0.78999-0.16944zm4.4785 0c-0.43187 0-0.43295 0.16944-0.78999 0.16944-0.15606 0-0.30939-0.04109-0.44458-0.11912-0.10339-0.05969-0.23561-0.02424-0.2953 0.07916-0.0597 0.10339-0.0242 0.23554 0.0792 0.29525v1.53e-4l7e-5 7.7e-5 8e-5 7.7e-5 8e-5 7.6e-5c1.2e-4 9.3e-5 2.2e-4 1.48e-4 2.2e-4 1.48e-4 0.0941 0.05387 0.34321 0.17665 0.66018 0.17665 0.46986 0 0.49035-0.16952 0.78998-0.16952 0.11939 0 0.21615-0.09676 0.21615-0.21615 0-0.11939-0.0968-0.21615-0.21615-0.21615zm-3.3962 1.9817a0.21378 0.21378 0 0 0-0.15119 0.06259 0.21378 0.21378 0 0 0 0 0.30229 0.21378 0.21378 0 0 0 7.6e-4 7.31e-4c0.34687 0.34646 0.81699 0.5411 1.3073 0.54121 0.49027-1.48e-4 0.96042-0.19477 1.3073-0.54121a0.21378 0.21378 0 0 0 7.6e-4 -7.31e-4 0.21378 0.21378 0 0 0 0-0.30229 0.21378 0.21378 0 0 0-0.15126-0.06259 0.21378 0.21378 0 0 0-0.15103 0.06259c-0.26674 0.26673-0.62846 0.41658-1.0057 0.41672-0.3772-1.48e-4 -0.73889-0.15-1.0057-0.41672a0.21378 0.21378 0 0 0-0.15103-0.06259zm2.4212 2.57h8e-5c0.16493 0.53908 0.50581 0.97884 0.96977 1.2906-0.0455 0.28128-0.14372 0.55136-0.28948 0.79618l0.0264-0.42409-0.46183 0.51567c-0.0626 0.06987-0.1208 0.14332-0.18017 0.21577l0.0657-0.2453-0.50248 0.29009c-0.1835 0.10594-0.35163 0.24729-0.5067 0.4017-0.0399-0.31793-0.17258-0.562-0.17258-0.562l-0.21285-0.40737-0.21301 0.40728s-0.13262 0.24404-0.17258 0.56194c-0.15507-0.15436-0.32325-0.2956-0.50669-0.40156l-0.5024-0.29009 0.0657 0.2453c-0.0594-0.07246-0.1176-0.1459-0.18017-0.21577l-0.46192-0.51567 0.0264 0.42418c-0.14578-0.24479-0.24409-0.51479-0.28963-0.79604 0.46404-0.31179 0.80503-0.75164 0.97001-1.2908 0.40824 0.17818 0.83494 0.26894 1.2642 0.26892 0.42935-9e-6 0.85598-0.09078 1.2642-0.269zm1.5305 1.5818c0.0139 0.0054 0.0279 0.01081 0.0419 0.01603 0.2346 0.60943 0.2055 0.84967-0.0287 1.4186l0.49351-0.38682c-0.0988-0.29215-0.16772-0.58263-0.14137-0.93002 0.14123 0.03663 0.28774 0.06497 0.43882 0.0846 0.0276 0.23489-0.0111 0.47311-0.1508 0.71504l0.47074-0.50792c-0.0358-0.06193-0.0674-0.12337-0.0952-0.18455 0.0952 0.0068 0.19199 0.0102 0.29017 0.0102 0.31822 7e-6 0.62823 0.07929 0.92184 0.22658-0.27977 0.12082-0.59616 0.14599-1.0342 0.02861l-0.49261 0.51844c0.25217-0.15215 0.77601-0.45022 1.6421-0.15648-0.51145 0.39302-1.2271 0.6548-1.8217 0.30522l-0.52719 0.40246c0.26965-0.09385 0.93152-0.16374 1.6696 0.08437-0.71323 0.30589-1.2136 0.53095-1.8489 0.01826l-0.61794 0.31542s0.83535-0.16292 1.6612 0.36888c-0.74597 0.188-1.3195 0.32006-1.8806-0.28902-0.54002 0.15418-0.61993 0.18002-0.61993 0.18002 0.31728 0.04371 1.075 0.25946 1.515 0.66649-0.81065 0.03809-1.3317 0.09918-1.8157-0.61587 0 0-0.49588 0.07066-0.6351 0.08085 0.55173 0.24514 0.92657 0.3986 1.3343 0.90664-0.83573 0-1.1521-0.21803-1.5164-0.82518 8e-3 0.15103 0.0314 0.28721 0.075 0.37446 0.2953 0.53919-0.12288 1.2742-0.12288 1.2742s-0.41828-0.73501-0.12296-1.2742c0.0436-0.08723 0.0668-0.22328 0.0749-0.37422-0.36429 0.60704-0.68073 0.82495-1.5164 0.82495 0.40764-0.50804 0.78248-0.66152 1.3343-0.90664-0.13922-0.01018-0.63504-0.08077-0.63504-0.08077-0.4841 0.71501-1.0052 0.65383-1.8159 0.61578 0.44002-0.40702 1.1978-0.6227 1.5151-0.6664 0 0-0.08-0.02592-0.61999-0.1801-0.56112 0.60908-1.1347 0.47702-1.8806 0.28902 0.82582-0.5318 1.6612-0.36888 1.6612-0.36888l-0.61794-0.31547c-0.63539 0.51268-1.1357 0.28771-1.8489-0.01818 0.73813-0.24812 1.4-0.17824 1.6696-0.08437l-0.52718-0.40255c-0.59462 0.34958-1.3103 0.08791-1.8217-0.30513 0.86604-0.29376 1.3899 0.0043 1.6421 0.15648l-0.49261-0.51844c-0.43803 0.11737-0.75435 0.0922-1.0341-0.02861 0.29361-0.14728 0.60353-0.22657 0.92175-0.22658 0.0982 0 0.19492-0.0035 0.2901-0.01027-0.0278 0.06118-0.0594 0.12264-0.0951 0.18455l0.47066 0.50801c-0.13967-0.24192-0.17844-0.48021-0.1508-0.7151 0.15108-0.01963 0.29761-0.04791 0.43882-0.08453 0.0264 0.34739-0.0425 0.63782-0.14129 0.92996l0.49351 0.38688c-0.23417-0.56898-0.26333-0.80925-0.0288-1.4186 0.0141-0.0053 0.0282-0.01058 0.0422-0.01603 0.34772 0.7953 0.31112 0.90623 0.23916 1.5694l0.57597 0.29952c-0.35724-0.39042-0.50745-0.90357-0.29155-1.4137 0.43753 0.75786 0.46442 0.70323 0.50739 1.498l0.67491 0.19889c-0.42079-0.31889-0.54136-0.47018-0.59891-1.3955 0.3794 0.42368 0.69054 0.86879 0.82956 1.4269 0 0 0.43952 0.05248 0.65918 0.06604-0.57216-0.25853-0.68806-0.71846-0.81299-1.1846 0.40191 0.23206 0.775 0.65845 0.96119 1.0615-0.0117-0.1746-0.0381-0.33818-0.0717-0.44259-0.12771-0.39664 0.12296-0.87604 0.12296-0.87604s0.25059 0.47939 0.12288 0.87604c-0.0336 0.10444-0.06 0.26811-0.0717 0.4428 0.18615-0.40313 0.55925-0.82965 0.96124-1.0617-0.12493 0.46615-0.24086 0.92614-0.81305 1.1847 0.21969-0.01356 0.65919-0.06612 0.65919-0.06612 0.13898-0.55814 0.45022-1.0032 0.82962-1.4269-0.0575 0.92535-0.17818 1.0767-0.59897 1.3956l0.6749-0.19889c0.043-0.79481 0.0699-0.74018 0.50749-1.498 0.21589 0.51014 0.0657 1.0232-0.29156 1.4137l0.57597-0.29952c-0.072-0.66319-0.10856-0.7742 0.23916-1.5695zm-8.3742 0.82687 0.28143 0.21623c0.1812 0.13924 0.38606 0.26385 0.6068 0.35636v0.0652l-0.45408 0.15272 0.45408 0.1949v2.1938c-0.74231-0.42292-1.424-0.94426-2.0266-1.5499 0.29145-0.67985 0.68397-1.2411 1.1384-1.6293zm11.159 0c0.45444 0.38823 0.84707 0.94946 1.1385 1.6293-0.60262 0.60566-1.2845 1.127-2.0268 1.5499v-2.1939l0.45423-0.1949-0.45423-0.15272v-0.06519c0.2207-0.09251 0.42573-0.21714 0.60689-0.35637zm-9.6937 1.2264c0.10263 0.03858 0.20458 0.0724 0.30758 0.09849l-0.30758 0.19813zm8.2287 0v0.29662l-0.30767-0.19813c0.10303-0.02609 0.20499-0.05989 0.30767-0.09849zm-8.2287 0.42885 0.38928 0.0981c0.29925 0.07541 0.58324 0.14509 0.86867 0.15939l-0.40883 0.37814 0.57304 0.027c0.33687 0.01582 0.63744 0.0361 0.92903-0.0047l-0.30214 0.37654h0.50096c0.4387 0 0.77449-0.0575 1.0538-0.21646 0.0126-7e-3 0.023-0.017 0.0354-0.0246-6e-3 0.50877 0.26632 0.943 0.26632 0.943l0.20886 0.36695 0.20879-0.3671s0.27229-0.43417 0.26624-0.943c0.0124 8e-3 0.0228 0.0175 0.0355 0.0247 0.27934 0.15899 0.61502 0.21646 1.0538 0.21646h0.50097l-0.30206-0.37659c0.2916 0.04073 0.59219 0.02045 0.92903 0.0047l0.57304-0.027-0.40883-0.37814c0.28544-0.01429 0.56948-0.08398 0.86876-0.15939l0.38919-0.0981v1.8268c-1.2834 0.61849-2.6897 0.9397-4.1146 0.9397-1.4246 0-2.831-0.32118-4.1146-0.9397z" stroke-width=".039273"/><path d="m12.904 21.962c-2.8777 0-5.2302 2.3063-5.2302 5.1578v30.427c0 2.8515 2.3524 5.1578 5.2302 5.1578h109.66c2.8777 0 5.2322-2.3063 5.2322-5.1578v-30.427c0-2.8515-2.3545-5.1578-5.2322-5.1578zm0 1.586h109.66c2.0398 0 3.6463 1.5864 3.6463 3.5719v30.427c0 1.9855-1.6065 3.5719-3.6463 3.5719h-109.66c-2.0398 0-3.6442-1.5865-3.6442-3.5719v-30.427c0-1.9854 1.6045-3.5719 3.6442-3.5719z"/><path d="m102.81 37.079c-2.8775 0-5.2315 2.3057-5.2315 5.1571v0.19379c0 2.8512 2.3538 5.1571 5.2315 5.1571h10.222c2.8775 0 5.2315-2.3057 5.2315-5.1571v-0.19379c0-2.8512-2.3538-5.1571-5.2315-5.1571zm0 1.5849h10.222c2.0398 0 3.6456 1.587 3.6456 3.5722v0.19379c0 1.9854-1.6059 3.5722-3.6456 3.5722h-10.222c-2.0398 0-3.6456-1.587-3.6456-3.5722v-0.19379c0-1.9854 1.6059-3.5722 3.6456-3.5722z" stroke-width=".99992"/><rect x="45.242" y="46.111" width="44.403" height="1.5879" rx=".79397" ry=".79397"/><rect x="45.242" y="36.968" width="26.458" height="1.5879" rx=".79397" ry=".79397"/></g></svg>
