<?xml version="1.0" encoding="UTF-8"?>
<!-- Created with Inkscape (http://www.inkscape.org/) -->
<svg width="512" height="320" version="1.1" viewBox="0 0 135.47 84.667" xml:space="preserve" xmlns="http://www.w3.org/2000/svg"><g fill-rule="evenodd"><path d="m24.813 23.807c-2.8776 0-5.2317 2.3063-5.2317 5.1578l5.17e-4 14.819c0 2.8514 2.354 5.1583 5.2317 5.1583h28.873l10.426 10.425c2.0163 2.0163 5.312 1.9826 7.3468-0.05219l10.373-10.372h28.82c2.8776 0 5.2317-2.3068 5.2317-5.1583l5.2e-4 -14.819c0-2.8514-2.3541-5.1578-5.2317-5.1578zm-5.17e-4 1.588h85.841c2.0398 0 3.6463 1.5847 3.6463 3.5698l-1e-3 14.819c0 1.9854-1.6065 3.5703-3.6463 3.5703h-29.478l-0.46457 0.46509-10.373 10.373c-1.4423 1.4423-3.6988 1.4569-5.1025 0.05323l-9.3043-9.3033-1.1741-1.1741-0.41444-0.41393h-29.527c-2.0398 0-3.6463-1.5852-3.6463-3.5703l-1e-3 -14.819c0-1.9854 1.6065-3.5698 3.6463-3.5698z"/><rect x="29.307" y="35.58" width="79.375" height="1.588" rx=".79401" ry=".79401"/></g></svg>
