<?xml version="1.0" encoding="UTF-8"?>
<!-- Created with Inkscape (http://www.inkscape.org/) -->
<svg width="512" height="320" version="1.1" viewBox="0 0 135.47 84.667" xml:space="preserve" xmlns="http://www.w3.org/2000/svg"><path d="m12.904 8.339c-2.8775 0-5.2297 2.3054-5.2297 5.1568v57.675c0 2.8513 2.3517 5.1568 5.2297 5.1568h109.66c2.8775 0 5.2317-2.3054 5.2317-5.1568v-57.675c0-2.8513-2.3541-5.1568-5.2317-5.1568zm1e-3 1.5854-1e-3 5.168e-4h109.65c2.0398 0 3.6463 1.5855 3.6463 3.5708v16.978l-116.94-5.17e-4v-16.977c0-1.9854 1.6042-3.5714 3.6437-3.5714zm-3.6447 22.135h116.95v39.111c0 1.9854-1.6065 3.5698-3.6463 3.5698h-109.66c-2.0398 0-3.6437-1.5848-3.6437-3.5698z" stroke-width=".99998"/></svg>
