<?xml version="1.0" encoding="UTF-8"?>
<!-- Created with Inkscape (http://www.inkscape.org/) -->
<svg width="512" height="320" version="1.1" viewBox="0 0 135.47 84.667" xml:space="preserve" xmlns="http://www.w3.org/2000/svg"><g fill-rule="evenodd"><path d="m119.57 13.314a0.96382 0.96382 0 0 0-1.3631 0 0.96382 0.96382 0 0 1-5.3e-4 5.4e-4l-6.138 6.1379c-0.67698 0.67698-1.7669 0.67698-2.4439 0l-6.138-6.1379a0.96382 0.96382 0 0 1-5.3e-4 -5.4e-4 0.96382 0.96382 0 0 0-1.3631 0 0.96382 0.96382 0 0 0 0 1.3631 0.96382 0.96382 0 0 1 5.4e-4 5.3e-4l7.501 7.501c0.67699 0.67698 1.767 0.67698 2.4439 0l7.4999-7.4999a0.96382 0.96382 0 0 0 2e-3 -2e-3 0.96382 0.96382 0 0 0 0-1.3631z" stroke-width=".99998"/><g><circle cx="17.198" cy="17.859" r="9.5242"/><circle cx="41.274" cy="42.333" r="9.5242"/><circle cx="41.274" cy="66.808" r="9.5242"/><rect x="34.395" y="17.065" width="59.769" height="1.5875" rx=".79375" ry=".79375"/><rect transform="rotate(90)" x="32.809" y="-17.991" width="43.523" height="1.5875" rx=".79375" ry=".79375"/><rect x="58.472" y="41.54" width="61.378" height="1.5875" rx=".79375" ry=".79375"/><rect x="58.472" y="66.014" width="61.378" height="1.5875" rx=".79375" ry=".79375"/></g></g></svg>
